<svg width="40" height="15" viewBox="0 0 40 15" fill="none" xmlns="http://www.w3.org/2000/svg">
<mask id="path-1-outside-1_1010_8" maskUnits="userSpaceOnUse" x="-0.335938" y="0" width="41" height="14" fill="black">
<rect fill="white" x="-0.335938" width="41" height="14"/>
<path d="M4.35206 11.12C3.91206 11.12 3.51206 11.012 3.15206 10.796C2.80006 10.572 2.52006 10.276 2.31206 9.908C2.10406 9.54 2.00006 9.128 2.00006 8.672L2.01206 4.928C2.01206 4.488 2.11206 4.088 2.31206 3.728C2.52006 3.36 2.80006 3.068 3.15206 2.852C3.51206 2.628 3.91206 2.516 4.35206 2.516C4.79206 2.516 5.18806 2.624 5.54006 2.84C5.89206 3.056 6.17206 3.348 6.38006 3.716C6.58806 4.076 6.69206 4.48 6.69206 4.928V5.48C6.69206 5.512 6.67606 5.528 6.64406 5.528H5.30006C5.26806 5.528 5.25206 5.512 5.25206 5.48V4.928C5.25206 4.664 5.16406 4.436 4.98806 4.244C4.82006 4.052 4.60806 3.956 4.35206 3.956C4.06406 3.956 3.84406 4.056 3.69206 4.256C3.54006 4.448 3.46406 4.672 3.46406 4.928V8.672C3.46406 8.968 3.54806 9.208 3.71606 9.392C3.89206 9.576 4.10406 9.668 4.35206 9.668C4.60806 9.668 4.82006 9.568 4.98806 9.368C5.16406 9.16 5.25206 8.928 5.25206 8.672V8.12C5.25206 8.088 5.26806 8.072 5.30006 8.072H6.65606C6.68806 8.072 6.70406 8.088 6.70406 8.12V8.672C6.70406 9.128 6.59606 9.54 6.38006 9.908C6.17206 10.276 5.89206 10.572 5.54006 10.796C5.18806 11.012 4.79206 11.12 4.35206 11.12ZM6.96263 10.94L8.45063 2.696C8.45863 2.664 8.47863 2.648 8.51063 2.648H10.2506C10.2826 2.648 10.3026 2.664 10.3106 2.696L11.7386 10.94C11.7466 10.98 11.7306 11 11.6906 11H10.3586C10.3266 11 10.3066 10.98 10.2986 10.94L10.1666 10.064H8.53463L8.40263 10.94C8.39463 10.98 8.37463 11 8.34263 11H7.01063C6.97863 11 6.96263 10.98 6.96263 10.94ZM8.77463 8.78H9.92663L9.43463 5.408L9.36263 4.964L9.31463 5.408L8.77463 8.78ZM12.5997 11C12.5357 11 12.5037 10.972 12.5037 10.916L12.4917 2.744C12.4917 2.68 12.5237 2.648 12.5877 2.648H13.6677L15.6957 7.376L15.6357 2.744C15.6357 2.68 15.6717 2.648 15.7437 2.648H16.9317C16.9797 2.648 17.0037 2.68 17.0037 2.744L17.0157 10.928C17.0157 10.976 16.9957 11 16.9557 11H15.8997L13.8237 6.584L13.9077 10.904C13.9077 10.968 13.8717 11 13.7997 11H12.5997ZM17.6501 10.94L19.1381 2.696C19.1461 2.664 19.1661 2.648 19.1981 2.648H20.9381C20.9701 2.648 20.9901 2.664 20.9981 2.696L22.4261 10.94C22.4341 10.98 22.4181 11 22.3781 11H21.0461C21.0141 11 20.9941 10.98 20.9861 10.94L20.8541 10.064H19.2221L19.0901 10.94C19.0821 10.98 19.0621 11 19.0301 11H17.6981C17.6661 11 17.6501 10.98 17.6501 10.94ZM19.4621 8.78H20.6141L20.1221 5.408L20.0501 4.964L20.0021 5.408L19.4621 8.78ZM23.2272 11C23.1952 11 23.1792 10.98 23.1792 10.94L23.2032 2.696C23.2032 2.664 23.2192 2.648 23.2512 2.648H25.6752C26.1072 2.648 26.5032 2.756 26.8632 2.972C27.2312 3.18 27.5232 3.464 27.7392 3.824C27.9552 4.176 28.0632 4.576 28.0632 5.024C28.0632 5.32 28.0192 5.588 27.9312 5.828C27.8432 6.06 27.7392 6.26 27.6192 6.428C27.4992 6.588 27.3912 6.708 27.2952 6.788C27.7272 7.268 27.9432 7.832 27.9432 8.48L27.9552 10.94C27.9552 10.98 27.9352 11 27.8952 11H26.5392C26.5072 11 26.4912 10.988 26.4912 10.964V8.48C26.4912 8.192 26.3872 7.944 26.1792 7.736C25.9792 7.52 25.7312 7.412 25.4352 7.412H24.6432L24.6312 10.94C24.6312 10.98 24.6152 11 24.5832 11H23.2272ZM24.6432 5.972H25.6752C25.9232 5.972 26.1432 5.88 26.3352 5.696C26.5272 5.512 26.6232 5.288 26.6232 5.024C26.6232 4.768 26.5272 4.548 26.3352 4.364C26.1512 4.18 25.9312 4.088 25.6752 4.088H24.6432V5.972ZM29.0283 11C28.9883 11 28.9683 10.98 28.9683 10.94L28.9923 2.696C28.9923 2.664 29.0083 2.648 29.0403 2.648L31.2843 2.636C31.7243 2.628 32.1243 2.732 32.4843 2.948C32.8523 3.164 33.1443 3.456 33.3603 3.824C33.5763 4.184 33.6843 4.584 33.6843 5.024V8.468C33.6843 8.932 33.5723 9.356 33.3483 9.74C33.1243 10.116 32.8243 10.416 32.4483 10.64C32.0723 10.864 31.6483 10.98 31.1763 10.988L29.0283 11ZM30.4323 9.524H31.1763C31.4723 9.524 31.7203 9.42 31.9203 9.212C32.1283 9.004 32.2323 8.756 32.2323 8.468V5.012C32.2323 4.756 32.1363 4.536 31.9443 4.352C31.7603 4.16 31.5403 4.068 31.2843 4.076L30.4443 4.088L30.4323 9.524ZM36.7217 8.792C36.6897 8.792 36.6697 8.772 36.6617 8.732L36.4097 5.972V2.708C36.4097 2.668 36.4257 2.648 36.4577 2.648H37.8017C37.8417 2.648 37.8617 2.668 37.8617 2.708L37.8497 5.972L37.5977 8.732C37.5897 8.772 37.5697 8.792 37.5377 8.792H36.7217ZM36.4577 11C36.4257 11 36.4097 10.98 36.4097 10.94V9.632C36.4097 9.6 36.4257 9.584 36.4577 9.584H37.8017C37.8337 9.584 37.8497 9.6 37.8497 9.632V10.94C37.8497 10.98 37.8337 11 37.8017 11H36.4577Z"/>
</mask>
<path d="M4.35206 11.12C3.91206 11.12 3.51206 11.012 3.15206 10.796C2.80006 10.572 2.52006 10.276 2.31206 9.908C2.10406 9.54 2.00006 9.128 2.00006 8.672L2.01206 4.928C2.01206 4.488 2.11206 4.088 2.31206 3.728C2.52006 3.36 2.80006 3.068 3.15206 2.852C3.51206 2.628 3.91206 2.516 4.35206 2.516C4.79206 2.516 5.18806 2.624 5.54006 2.84C5.89206 3.056 6.17206 3.348 6.38006 3.716C6.58806 4.076 6.69206 4.48 6.69206 4.928V5.48C6.69206 5.512 6.67606 5.528 6.64406 5.528H5.30006C5.26806 5.528 5.25206 5.512 5.25206 5.48V4.928C5.25206 4.664 5.16406 4.436 4.98806 4.244C4.82006 4.052 4.60806 3.956 4.35206 3.956C4.06406 3.956 3.84406 4.056 3.69206 4.256C3.54006 4.448 3.46406 4.672 3.46406 4.928V8.672C3.46406 8.968 3.54806 9.208 3.71606 9.392C3.89206 9.576 4.10406 9.668 4.35206 9.668C4.60806 9.668 4.82006 9.568 4.98806 9.368C5.16406 9.16 5.25206 8.928 5.25206 8.672V8.12C5.25206 8.088 5.26806 8.072 5.30006 8.072H6.65606C6.68806 8.072 6.70406 8.088 6.70406 8.12V8.672C6.70406 9.128 6.59606 9.54 6.38006 9.908C6.17206 10.276 5.89206 10.572 5.54006 10.796C5.18806 11.012 4.79206 11.12 4.35206 11.12ZM6.96263 10.94L8.45063 2.696C8.45863 2.664 8.47863 2.648 8.51063 2.648H10.2506C10.2826 2.648 10.3026 2.664 10.3106 2.696L11.7386 10.94C11.7466 10.98 11.7306 11 11.6906 11H10.3586C10.3266 11 10.3066 10.98 10.2986 10.94L10.1666 10.064H8.53463L8.40263 10.94C8.39463 10.98 8.37463 11 8.34263 11H7.01063C6.97863 11 6.96263 10.98 6.96263 10.94ZM8.77463 8.78H9.92663L9.43463 5.408L9.36263 4.964L9.31463 5.408L8.77463 8.78ZM12.5997 11C12.5357 11 12.5037 10.972 12.5037 10.916L12.4917 2.744C12.4917 2.68 12.5237 2.648 12.5877 2.648H13.6677L15.6957 7.376L15.6357 2.744C15.6357 2.68 15.6717 2.648 15.7437 2.648H16.9317C16.9797 2.648 17.0037 2.68 17.0037 2.744L17.0157 10.928C17.0157 10.976 16.9957 11 16.9557 11H15.8997L13.8237 6.584L13.9077 10.904C13.9077 10.968 13.8717 11 13.7997 11H12.5997ZM17.6501 10.94L19.1381 2.696C19.1461 2.664 19.1661 2.648 19.1981 2.648H20.9381C20.9701 2.648 20.9901 2.664 20.9981 2.696L22.4261 10.94C22.4341 10.98 22.4181 11 22.3781 11H21.0461C21.0141 11 20.9941 10.98 20.9861 10.94L20.8541 10.064H19.2221L19.0901 10.94C19.0821 10.98 19.0621 11 19.0301 11H17.6981C17.6661 11 17.6501 10.98 17.6501 10.94ZM19.4621 8.78H20.6141L20.1221 5.408L20.0501 4.964L20.0021 5.408L19.4621 8.78ZM23.2272 11C23.1952 11 23.1792 10.98 23.1792 10.94L23.2032 2.696C23.2032 2.664 23.2192 2.648 23.2512 2.648H25.6752C26.1072 2.648 26.5032 2.756 26.8632 2.972C27.2312 3.18 27.5232 3.464 27.7392 3.824C27.9552 4.176 28.0632 4.576 28.0632 5.024C28.0632 5.32 28.0192 5.588 27.9312 5.828C27.8432 6.06 27.7392 6.26 27.6192 6.428C27.4992 6.588 27.3912 6.708 27.2952 6.788C27.7272 7.268 27.9432 7.832 27.9432 8.48L27.9552 10.94C27.9552 10.98 27.9352 11 27.8952 11H26.5392C26.5072 11 26.4912 10.988 26.4912 10.964V8.48C26.4912 8.192 26.3872 7.944 26.1792 7.736C25.9792 7.52 25.7312 7.412 25.4352 7.412H24.6432L24.6312 10.94C24.6312 10.98 24.6152 11 24.5832 11H23.2272ZM24.6432 5.972H25.6752C25.9232 5.972 26.1432 5.88 26.3352 5.696C26.5272 5.512 26.6232 5.288 26.6232 5.024C26.6232 4.768 26.5272 4.548 26.3352 4.364C26.1512 4.18 25.9312 4.088 25.6752 4.088H24.6432V5.972ZM29.0283 11C28.9883 11 28.9683 10.98 28.9683 10.94L28.9923 2.696C28.9923 2.664 29.0083 2.648 29.0403 2.648L31.2843 2.636C31.7243 2.628 32.1243 2.732 32.4843 2.948C32.8523 3.164 33.1443 3.456 33.3603 3.824C33.5763 4.184 33.6843 4.584 33.6843 5.024V8.468C33.6843 8.932 33.5723 9.356 33.3483 9.74C33.1243 10.116 32.8243 10.416 32.4483 10.64C32.0723 10.864 31.6483 10.98 31.1763 10.988L29.0283 11ZM30.4323 9.524H31.1763C31.4723 9.524 31.7203 9.42 31.9203 9.212C32.1283 9.004 32.2323 8.756 32.2323 8.468V5.012C32.2323 4.756 32.1363 4.536 31.9443 4.352C31.7603 4.16 31.5403 4.068 31.2843 4.076L30.4443 4.088L30.4323 9.524ZM36.7217 8.792C36.6897 8.792 36.6697 8.772 36.6617 8.732L36.4097 5.972V2.708C36.4097 2.668 36.4257 2.648 36.4577 2.648H37.8017C37.8417 2.648 37.8617 2.668 37.8617 2.708L37.8497 5.972L37.5977 8.732C37.5897 8.772 37.5697 8.792 37.5377 8.792H36.7217ZM36.4577 11C36.4257 11 36.4097 10.98 36.4097 10.94V9.632C36.4097 9.6 36.4257 9.584 36.4577 9.584H37.8017C37.8337 9.584 37.8497 9.6 37.8497 9.632V10.94C37.8497 10.98 37.8337 11 37.8017 11H36.4577Z" fill="white"/>
<path d="M3.15206 10.796L2.07831 12.4833C2.09311 12.4927 2.10803 12.502 2.12307 12.511L3.15206 10.796ZM2.31206 9.908L0.570937 10.8921H0.570937L2.31206 9.908ZM2.00006 8.672L6.24657e-05 8.66559V8.672H2.00006ZM2.01206 4.928L4.01206 4.93441V4.928H2.01206ZM2.31206 3.728L0.570937 2.74389C0.568525 2.74815 0.566129 2.75243 0.563748 2.75671L2.31206 3.728ZM3.15206 2.852L4.19812 4.55668L4.20867 4.55011L3.15206 2.852ZM5.54006 2.84L4.49403 4.54465L4.49403 4.54465L5.54006 2.84ZM6.38006 3.716L4.63894 4.70011C4.64204 4.70561 4.64517 4.71109 4.64833 4.71656L6.38006 3.716ZM4.98806 4.244L3.48291 5.56101C3.49306 5.57261 3.50334 5.58409 3.51376 5.59545L4.98806 4.244ZM3.69206 4.256L5.26015 5.49741C5.26833 5.48707 5.27641 5.47666 5.28439 5.46617L3.69206 4.256ZM3.71606 9.392L2.23909 10.7405C2.24952 10.752 2.26009 10.7633 2.27078 10.7744L3.71606 9.392ZM4.98806 9.368L3.46128 8.07611L3.45665 8.08162L4.98806 9.368ZM6.38006 9.908L4.65523 8.8956C4.64972 8.90498 4.64429 8.91441 4.63894 8.92389L6.38006 9.908ZM5.54006 10.796L6.5861 12.5006C6.59538 12.4949 6.60462 12.4892 6.61381 12.4833L5.54006 10.796ZM4.35206 11.12V9.12C4.25636 9.12 4.21499 9.10137 4.18105 9.08101L3.15206 10.796L2.12307 12.511C2.80914 12.9226 3.56777 13.12 4.35206 13.12V11.12ZM3.15206 10.796L4.22581 9.10868C4.15435 9.0632 4.10198 9.01021 4.05319 8.92389L2.31206 9.908L0.570937 10.8921C0.938142 11.5418 1.44578 12.0808 2.07831 12.4833L3.15206 10.796ZM2.31206 9.908L4.05319 8.92389C4.02815 8.87958 4.00006 8.81112 4.00006 8.672H2.00006H6.24657e-05C6.24657e-05 9.44488 0.179978 10.2004 0.570937 10.8921L2.31206 9.908ZM2.00006 8.672L4.00005 8.67841L4.01205 4.93441L2.01206 4.928L0.0120728 4.92159L7.28369e-05 8.66559L2.00006 8.672ZM2.01206 4.928H4.01206C4.01206 4.80389 4.03672 4.74187 4.06038 4.69929L2.31206 3.728L0.563748 2.75671C0.187407 3.43413 0.0120625 4.17211 0.0120625 4.928H2.01206ZM2.31206 3.728L4.05319 4.71211C4.09842 4.63208 4.14215 4.59097 4.1981 4.55664L3.15206 2.852L2.10603 1.14735C1.45797 1.54503 0.9417 2.08792 0.570937 2.74389L2.31206 3.728ZM3.15206 2.852L4.20867 4.55011C4.23922 4.5311 4.27073 4.516 4.35206 4.516V2.516V0.516C3.55339 0.516 2.78491 0.724896 2.09546 1.15389L3.15206 2.852ZM4.35206 2.516V4.516C4.44797 4.516 4.47754 4.53452 4.49403 4.54465L5.54006 2.84L6.5861 1.13535C5.89859 0.713474 5.13615 0.516 4.35206 0.516V2.516ZM5.54006 2.84L4.49403 4.54465C4.54997 4.57897 4.5937 4.62008 4.63894 4.70011L6.38006 3.716L8.12119 2.73188C7.75042 2.07592 7.23415 1.53303 6.58609 1.13535L5.54006 2.84ZM6.38006 3.716L4.64833 4.71656C4.66703 4.74892 4.69206 4.80315 4.69206 4.928H6.69206H8.69206C8.69206 4.15684 8.5091 3.40308 8.11179 2.71544L6.38006 3.716ZM6.69206 4.928H4.69206V5.48H6.69206H8.69206V4.928H6.69206ZM6.69206 5.48H4.69206C4.69206 5.18771 4.76649 4.60114 5.26585 4.10178C5.76521 3.60242 6.35178 3.528 6.64406 3.528V5.528V7.528C6.96835 7.528 7.57891 7.44557 8.09427 6.93022C8.60963 6.41486 8.69206 5.80429 8.69206 5.48H6.69206ZM6.64406 5.528V3.528H5.30006V5.528V7.528H6.64406V5.528ZM5.30006 5.528V3.528C5.59235 3.528 6.17892 3.60243 6.67828 4.10179C7.17764 4.60115 7.25206 5.18771 7.25206 5.48H5.25206H3.25206C3.25206 5.80429 3.33449 6.41485 3.84985 6.93021C4.36521 7.44557 4.97577 7.528 5.30006 7.528V5.528ZM5.25206 5.48H7.25206V4.928H5.25206H3.25206V5.48H5.25206ZM5.25206 4.928H7.25206C7.25206 4.17115 6.98155 3.45893 6.46237 2.89255L4.98806 4.244L3.51376 5.59545C3.44417 5.51954 3.37195 5.41318 3.32022 5.27915C3.26866 5.14558 3.25206 5.0224 3.25206 4.928H5.25206ZM4.98806 4.244L6.49322 2.92699C5.94394 2.29925 5.18251 1.956 4.35206 1.956V3.956V5.956C4.22423 5.956 4.05619 5.93058 3.87805 5.84991C3.69973 5.76916 3.56869 5.65904 3.48291 5.56101L4.98806 4.244ZM4.35206 3.956V1.956C3.54316 1.956 2.68879 2.27077 2.09974 3.04583L3.69206 4.256L5.28439 5.46617C5.16818 5.61907 5.00231 5.75917 4.79867 5.85173C4.60375 5.94033 4.4396 5.956 4.35206 5.956V3.956ZM3.69206 4.256L2.12397 3.01459C1.67887 3.57682 1.46406 4.2434 1.46406 4.928H3.46406H5.46406C5.46406 5.00058 5.45279 5.09927 5.41502 5.21059C5.37689 5.32299 5.32117 5.42034 5.26015 5.49741L3.69206 4.256ZM3.46406 4.928H1.46406V8.672H3.46406H5.46406V4.928H3.46406ZM3.46406 8.672H1.46406C1.46406 9.36767 1.67314 10.1207 2.23909 10.7405L3.71606 9.392L5.19303 8.04346C5.29473 8.15485 5.36953 8.28403 5.41478 8.4133C5.45818 8.5373 5.46406 8.63119 5.46406 8.672H3.46406ZM3.71606 9.392L2.27078 10.7744C2.81272 11.341 3.542 11.668 4.35206 11.668V9.668V7.668C4.48168 7.668 4.64 7.69347 4.80325 7.76431C4.96536 7.83466 5.08407 7.92876 5.16135 8.00955L3.71606 9.392ZM4.35206 9.668V11.668C5.21259 11.668 5.98037 11.2962 6.51947 10.6544L4.98806 9.368L3.45665 8.08162C3.53699 7.98598 3.66625 7.87073 3.84983 7.78414C4.03451 7.69702 4.21259 7.668 4.35206 7.668V9.668ZM4.98806 9.368L6.51483 10.6599C6.97513 10.1159 7.25206 9.43296 7.25206 8.672H5.25206H3.25206C3.25206 8.56546 3.27138 8.4465 3.31607 8.32869C3.3601 8.21262 3.41699 8.12847 3.46129 8.07611L4.98806 9.368ZM5.25206 8.672H7.25206V8.12H5.25206H3.25206V8.672H5.25206ZM5.25206 8.12H7.25206C7.25206 8.41229 7.17764 8.99885 6.67828 9.49821C6.17892 9.99757 5.59236 10.072 5.30006 10.072V8.072V6.072C4.97577 6.072 4.3652 6.15443 3.84984 6.66979C3.33449 7.18515 3.25206 7.79571 3.25206 8.12H5.25206ZM5.30006 8.072V10.072H6.65606V8.072V6.072H5.30006V8.072ZM6.65606 8.072V10.072C6.36377 10.072 5.77721 9.99757 5.27785 9.49821C4.77849 8.99885 4.70406 8.41229 4.70406 8.12H6.70406H8.70406C8.70406 7.79571 8.62164 7.18515 8.10628 6.66979C7.59092 6.15443 6.98035 6.072 6.65606 6.072V8.072ZM6.70406 8.12H4.70406V8.672H6.70406H8.70406V8.12H6.70406ZM6.70406 8.672H4.70406C4.70406 8.7974 4.67865 8.8557 4.65523 8.8956L6.38006 9.908L8.10489 10.9204C8.51348 10.2243 8.70406 9.4586 8.70406 8.672H6.70406ZM6.38006 9.908L4.63894 8.92389C4.59014 9.01021 4.53778 9.0632 4.46631 9.10868L5.54006 10.796L6.61381 12.4833C7.24635 12.0808 7.75398 11.5418 8.12119 10.8921L6.38006 9.908ZM5.54006 10.796L4.49403 9.09135C4.47754 9.10147 4.44797 9.12 4.35206 9.12V11.12V13.12C5.13615 13.12 5.89859 12.9225 6.5861 12.5006L5.54006 10.796ZM6.96263 10.94L4.99443 10.5848C4.97327 10.702 4.96263 10.8209 4.96263 10.94H6.96263ZM8.45063 2.696L6.51034 2.21093C6.4996 2.25388 6.49029 2.29718 6.48243 2.34075L8.45063 2.696ZM10.3106 2.696L12.2813 2.35465C12.2729 2.30638 12.2628 2.25844 12.2509 2.21092L10.3106 2.696ZM11.7386 10.94L9.76797 11.2814C9.77092 11.2984 9.77408 11.3153 9.77746 11.3322L11.7386 10.94ZM10.2986 10.94L8.32095 11.238C8.3257 11.2695 8.33121 11.301 8.33747 11.3322L10.2986 10.94ZM10.1666 10.064L12.1443 9.76599C11.9969 8.78756 11.1561 8.064 10.1666 8.064V10.064ZM8.53463 10.064V8.064C7.54514 8.064 6.70439 8.78756 6.55695 9.76599L8.53463 10.064ZM8.40263 10.94L10.3638 11.3322C10.37 11.301 10.3755 11.2695 10.3803 11.238L8.40263 10.94ZM8.77462 8.78L6.79979 8.46375C6.70717 9.04206 6.87271 9.63191 7.2527 10.0776C7.63269 10.5233 8.18894 10.78 8.77462 10.78V8.78ZM9.92663 8.78V10.78C10.5075 10.78 11.0596 10.5275 11.4395 10.0881C11.8194 9.64879 11.9895 9.06598 11.9057 8.49124L9.92663 8.78ZM9.43463 5.408L11.4137 5.11924C11.4121 5.10877 11.4105 5.09831 11.4088 5.08786L9.43463 5.408ZM9.36263 4.964L11.3368 4.64386C11.1766 3.65564 10.3103 2.93814 9.30956 2.9647C8.30878 2.99127 7.48181 3.7537 7.37421 4.74904L9.36263 4.964ZM9.31462 5.408L11.2895 5.72425C11.2948 5.69061 11.2994 5.65684 11.303 5.62296L9.31462 5.408ZM6.96263 10.94L8.93082 11.2952L10.4188 3.05125L8.45063 2.696L6.48243 2.34075L4.99443 10.5848L6.96263 10.94ZM8.45063 2.696L10.3909 3.18107C10.3195 3.46678 10.1404 3.88626 9.72102 4.22174C9.29539 4.56224 8.83286 4.648 8.51062 4.648V2.648V0.648C8.15639 0.648 7.66786 0.741758 7.22223 1.09826C6.78288 1.44974 6.58977 1.89322 6.51034 2.21093L8.45063 2.696ZM8.51062 2.648V4.648H10.2506V2.648V0.648H8.51062V2.648ZM10.2506 2.648V4.648C9.92839 4.648 9.46587 4.56224 9.04024 4.22174C8.62089 3.88626 8.44177 3.46679 8.37034 3.18108L10.3106 2.696L12.2509 2.21092C12.1715 1.89321 11.9784 1.44974 11.539 1.09826C11.0934 0.741757 10.6049 0.648 10.2506 0.648V2.648ZM10.3106 2.696L8.33997 3.03735L9.76797 11.2814L11.7386 10.94L13.7093 10.5986L12.2813 2.35465L10.3106 2.696ZM11.7386 10.94L9.77746 11.3322C9.73368 11.1133 9.63732 10.4026 10.1709 9.73561C10.715 9.0555 11.4471 9 11.6906 9V11V13C11.9742 13 12.7343 12.9345 13.2944 12.2344C13.8439 11.5474 13.7516 10.8067 13.6998 10.5478L11.7386 10.94ZM11.6906 11V9H10.3586V11V13H11.6906V11ZM10.3586 11V9C10.7971 9 11.3183 9.15523 11.7338 9.57079C12.1011 9.93808 12.219 10.3437 12.2598 10.5478L10.2986 10.94L8.33747 11.3322C8.38628 11.5763 8.51812 12.0119 8.90541 12.3992C9.34097 12.8348 9.88813 13 10.3586 13V11ZM10.2986 10.94L12.2763 10.642L12.1443 9.76599L10.1666 10.064L8.18895 10.362L8.32095 11.238L10.2986 10.94ZM10.1666 10.064V8.064H8.53463V10.064V12.064H10.1666V10.064ZM8.53463 10.064L6.55695 9.76599L6.42495 10.642L8.40263 10.94L10.3803 11.238L10.5123 10.362L8.53463 10.064ZM8.40263 10.94L6.44146 10.5478C6.48228 10.3437 6.60012 9.93808 6.96741 9.57079C7.38297 9.15523 7.90413 9 8.34263 9V11V13C8.81312 13 9.36028 12.8348 9.79584 12.3992C10.1831 12.0119 10.315 11.5763 10.3638 11.3322L8.40263 10.94ZM8.34263 11V9H7.01062V11V13H8.34263V11ZM7.01062 11V9C7.43604 9 8.07192 9.15505 8.53636 9.73561C8.93263 10.2309 8.96263 10.7463 8.96263 10.94H6.96263H4.96263C4.96263 11.1737 5.00062 11.7191 5.41289 12.2344C5.89333 12.8349 6.55321 13 7.01062 13V11ZM8.77462 8.78V10.78H9.92663V8.78V6.78H8.77462V8.78ZM9.92663 8.78L11.9057 8.49124L11.4137 5.11924L9.43463 5.408L7.45558 5.69676L7.94758 9.06876L9.92663 8.78ZM9.43463 5.408L11.4088 5.08786L11.3368 4.64386L9.36263 4.964L7.38841 5.28414L7.46041 5.72814L9.43463 5.408ZM9.36263 4.964L7.37421 4.74904L7.32621 5.19304L9.31462 5.408L11.303 5.62296L11.351 5.17896L9.36263 4.964ZM9.31462 5.408L7.33979 5.09174L6.79979 8.46375L8.77462 8.78L10.7495 9.09626L11.2895 5.72425L9.31462 5.408ZM12.5037 10.916H14.5037L14.5037 10.9131L12.5037 10.916ZM12.4917 2.744H10.4917L10.4917 2.74694L12.4917 2.744ZM13.6677 2.648L15.5058 1.8596C15.1905 1.12453 14.4676 0.648 13.6677 0.648V2.648ZM15.6957 7.376L13.8577 8.1644C14.2339 9.04144 15.1773 9.53052 16.1108 9.33245C17.0444 9.13437 17.7079 8.30433 17.6956 7.3501L15.6957 7.376ZM15.6357 2.744H13.6357C13.6357 2.75264 13.6358 2.76127 13.6359 2.7699L15.6357 2.744ZM17.0037 2.744H15.0037L15.0037 2.74693L17.0037 2.744ZM17.0157 10.928H19.0157L19.0157 10.9251L17.0157 10.928ZM15.8997 11L14.0897 11.8509C14.4195 12.5523 15.1247 13 15.8997 13V11ZM13.8237 6.584L15.6337 5.73312C15.2321 4.87891 14.288 4.42174 13.3688 4.63641C12.4497 4.85109 11.8057 5.67917 11.8241 6.62288L13.8237 6.584ZM13.9077 10.904H15.9077C15.9077 10.891 15.9076 10.8781 15.9073 10.8651L13.9077 10.904ZM12.5997 11V9C12.8153 9 13.3505 9.04138 13.8447 9.47385C14.39 9.95094 14.5037 10.5611 14.5037 10.916H12.5037H10.5037C10.5037 11.3269 10.6335 11.9791 11.2107 12.4842C11.737 12.9446 12.3202 13 12.5997 13V11ZM12.5037 10.916L14.5037 10.9131L14.4917 2.74106L12.4917 2.744L10.4917 2.74694L10.5037 10.9189L12.5037 10.916ZM12.4917 2.744H14.4917C14.4917 3.02029 14.4213 3.59485 13.9299 4.08621C13.4386 4.57757 12.864 4.648 12.5877 4.648V2.648V0.648C12.2474 0.648 11.6249 0.734427 11.1015 1.25779C10.5781 1.78115 10.4917 2.40371 10.4917 2.744H12.4917ZM12.5877 2.648V4.648H13.6677V2.648V0.648H12.5877V2.648ZM13.6677 2.648L11.8297 3.4364L13.8577 8.1644L15.6957 7.376L17.5338 6.5876L15.5058 1.8596L13.6677 2.648ZM15.6957 7.376L17.6956 7.3501L17.6356 2.71809L15.6357 2.744L13.6359 2.7699L13.6959 7.4019L15.6957 7.376ZM15.6357 2.744H17.6357C17.6357 3.0853 17.5289 3.68908 16.9914 4.16682C16.4989 4.60465 15.9618 4.648 15.7437 4.648V2.648V0.648C15.4537 0.648 14.8626 0.70735 14.334 1.17718C13.7605 1.68692 13.6357 2.3387 13.6357 2.744H15.6357ZM15.7437 2.648V4.648H16.9317V2.648V0.648H15.7437V2.648ZM16.9317 2.648V4.648C16.4677 4.648 15.829 4.46299 15.3857 3.872C15.0236 3.38921 15.0037 2.90431 15.0037 2.744H17.0037H19.0037C19.0037 2.51969 18.9718 1.98679 18.5857 1.472C18.1185 0.849008 17.4437 0.648 16.9317 0.648V2.648ZM17.0037 2.744L15.0037 2.74693L15.0157 10.9309L17.0157 10.928L19.0157 10.9251L19.0037 2.74107L17.0037 2.744ZM17.0157 10.928H15.0157C15.0157 10.7235 15.0508 10.1978 15.4643 9.70163C15.936 9.13558 16.5618 9 16.9557 9V11V13C17.3896 13 18.0455 12.8524 18.5372 12.2624C18.9707 11.7422 19.0157 11.1805 19.0157 10.928H17.0157ZM16.9557 11V9H15.8997V11V13H16.9557V11ZM15.8997 11L17.7097 10.1491L15.6337 5.73312L13.8237 6.584L12.0137 7.43488L14.0897 11.8509L15.8997 11ZM13.8237 6.584L11.8241 6.62288L11.9081 10.9429L13.9077 10.904L15.9073 10.8651L15.8233 6.54512L13.8237 6.584ZM13.9077 10.904H11.9077C11.9077 10.5627 12.0145 9.95892 12.552 9.48118C13.0446 9.04335 13.5817 9 13.7997 9V11V13C14.0898 13 14.6809 12.9407 15.2094 12.4708C15.7829 11.9611 15.9077 11.3093 15.9077 10.904H13.9077ZM13.7997 11V9H12.5997V11V13H13.7997V11ZM17.6501 10.94L15.6819 10.5848C15.6608 10.702 15.6501 10.8209 15.6501 10.94H17.6501ZM19.1381 2.696L17.1978 2.21093C17.1871 2.25388 17.1778 2.29718 17.1699 2.34075L19.1381 2.696ZM20.9981 2.696L22.9688 2.35465C22.9604 2.30638 22.9503 2.25844 22.9384 2.21092L20.9981 2.696ZM22.4261 10.94L20.4555 11.2814C20.4584 11.2984 20.4616 11.3153 20.465 11.3322L22.4261 10.94ZM20.9861 10.94L19.0085 11.238C19.0132 11.2695 19.0187 11.301 19.025 11.3322L20.9861 10.94ZM20.8541 10.064L22.8318 9.76599C22.6844 8.78756 21.8436 8.064 20.8541 8.064V10.064ZM19.2221 10.064V8.064C18.2326 8.064 17.3919 8.78756 17.2445 9.76599L19.2221 10.064ZM19.0901 10.94L21.0513 11.3322C21.0575 11.301 21.063 11.2695 21.0678 11.238L19.0901 10.94ZM19.4621 8.78L17.4873 8.46375C17.3947 9.04206 17.5602 9.63191 17.9402 10.0776C18.3202 10.5233 18.8764 10.78 19.4621 10.78V8.78ZM20.6141 8.78V10.78C21.195 10.78 21.7471 10.5275 22.127 10.0881C22.5069 9.64879 22.677 9.06598 22.5932 8.49124L20.6141 8.78ZM20.1221 5.408L22.1012 5.11924C22.0996 5.10877 22.098 5.09831 22.0963 5.08786L20.1221 5.408ZM20.0501 4.964L22.0243 4.64386C21.8641 3.65564 20.9978 2.93814 19.9971 2.9647C18.9963 2.99127 18.1693 3.7537 18.0617 4.74904L20.0501 4.964ZM20.0021 5.408L21.977 5.72425C21.9823 5.69061 21.9869 5.65684 21.9905 5.62296L20.0021 5.408ZM17.6501 10.94L19.6183 11.2952L21.1063 3.05125L19.1381 2.696L17.1699 2.34075L15.6819 10.5848L17.6501 10.94ZM19.1381 2.696L21.0784 3.18107C21.007 3.46678 20.8279 3.88626 20.4085 4.22174C19.9829 4.56224 19.5204 4.648 19.1981 4.648V2.648V0.648C18.8439 0.648 18.3554 0.741758 17.9097 1.09826C17.4704 1.44974 17.2773 1.89322 17.1978 2.21093L19.1381 2.696ZM19.1981 2.648V4.648H20.9381V2.648V0.648H19.1981V2.648ZM20.9381 2.648V4.648C20.6159 4.648 20.1534 4.56224 19.7277 4.22174C19.3084 3.88626 19.1293 3.46679 19.0578 3.18108L20.9981 2.696L22.9384 2.21092C22.859 1.89321 22.6659 1.44974 22.2265 1.09826C21.7809 0.741757 21.2924 0.648 20.9381 0.648V2.648ZM20.9981 2.696L19.0275 3.03735L20.4555 11.2814L22.4261 10.94L24.3968 10.5986L22.9688 2.35465L20.9981 2.696ZM22.4261 10.94L20.465 11.3322C20.4212 11.1133 20.3248 10.4026 20.8584 9.73561C21.4025 9.0555 22.1346 9 22.3781 9V11V13C22.6617 13 23.4218 12.9345 23.9819 12.2344C24.5314 11.5474 24.4391 10.8067 24.3873 10.5478L22.4261 10.94ZM22.3781 11V9H21.0461V11V13H22.3781V11ZM21.0461 11V9C21.4846 9 22.0058 9.15523 22.4213 9.57079C22.7886 9.93808 22.9065 10.3437 22.9473 10.5478L20.9861 10.94L19.025 11.3322C19.0738 11.5763 19.2056 12.0119 19.5929 12.3992C20.0285 12.8348 20.5756 13 21.0461 13V11ZM20.9861 10.94L22.9638 10.642L22.8318 9.76599L20.8541 10.064L18.8765 10.362L19.0085 11.238L20.9861 10.94ZM20.8541 10.064V8.064H19.2221V10.064V12.064H20.8541V10.064ZM19.2221 10.064L17.2445 9.76599L17.1125 10.642L19.0901 10.94L21.0678 11.238L21.1998 10.362L19.2221 10.064ZM19.0901 10.94L17.129 10.5478C17.1698 10.3437 17.2876 9.93808 17.6549 9.57079C18.0705 9.15523 18.5916 9 19.0301 9V11V13C19.5006 13 20.0478 12.8348 20.4833 12.3992C20.8706 12.0119 21.0025 11.5763 21.0513 11.3322L19.0901 10.94ZM19.0301 11V9H17.6981V11V13H19.0301V11ZM17.6981 11V9C18.1235 9 18.7594 9.15505 19.2239 9.73561C19.6201 10.2309 19.6501 10.7463 19.6501 10.94H17.6501H15.6501C15.6501 11.1737 15.6881 11.7191 16.1004 12.2344C16.5808 12.8349 17.2407 13 17.6981 13V11ZM19.4621 8.78V10.78H20.6141V8.78V6.78H19.4621V8.78ZM20.6141 8.78L22.5932 8.49124L22.1012 5.11924L20.1221 5.408L18.1431 5.69676L18.6351 9.06876L20.6141 8.78ZM20.1221 5.408L22.0963 5.08786L22.0243 4.64386L20.0501 4.964L18.0759 5.28414L18.1479 5.72814L20.1221 5.408ZM20.0501 4.964L18.0617 4.74904L18.0137 5.19304L20.0021 5.408L21.9905 5.62296L22.0385 5.17896L20.0501 4.964ZM20.0021 5.408L18.0273 5.09174L17.4873 8.46375L19.4621 8.78L21.437 9.09626L21.977 5.72425L20.0021 5.408ZM23.1792 10.94L21.1792 10.9342V10.94H23.1792ZM23.2032 2.696L25.2032 2.70182V2.696H23.2032ZM26.8632 2.972L25.8342 4.68699C25.8491 4.69589 25.864 4.70461 25.8791 4.71312L26.8632 2.972ZM27.7392 3.824L26.0242 4.85299C26.0277 4.85869 26.0311 4.86437 26.0346 4.87003L27.7392 3.824ZM27.9312 5.828L29.8012 6.53731C29.8038 6.53039 29.8064 6.52346 29.809 6.51651L27.9312 5.828ZM27.6192 6.428L29.2192 7.628C29.2285 7.6156 29.2377 7.60309 29.2467 7.59048L27.6192 6.428ZM27.2952 6.788L26.0148 5.25156C25.5972 5.59959 25.3392 6.10263 25.3003 6.64488C25.2614 7.18713 25.445 7.72184 25.8086 8.12593L27.2952 6.788ZM27.9432 8.48H25.9432L25.9432 8.48976L27.9432 8.48ZM27.9552 10.94H29.9552L29.9552 10.9302L27.9552 10.94ZM26.1792 7.736L24.7117 9.09482C24.7291 9.11362 24.7469 9.13209 24.765 9.15021L26.1792 7.736ZM24.6432 7.412V5.412C23.5413 5.412 22.647 6.30329 22.6432 7.4052L24.6432 7.412ZM24.6312 10.94L22.6312 10.9332V10.94H24.6312ZM24.6432 5.972H22.6432C22.6432 7.07657 23.5386 7.972 24.6432 7.972V5.972ZM26.3352 5.696L24.9514 4.25202V4.25202L26.3352 5.696ZM26.3352 4.364L24.921 5.77821C24.931 5.78824 24.9412 5.79816 24.9514 5.80798L26.3352 4.364ZM24.6432 4.088V2.088C23.5386 2.088 22.6432 2.98343 22.6432 4.088H24.6432ZM23.2272 11V9C23.6526 9 24.2885 9.15505 24.753 9.73561C25.1492 10.2309 25.1792 10.7463 25.1792 10.94H23.1792H21.1792C21.1792 11.1737 21.2172 11.7191 21.6295 12.2344C22.1099 12.8349 22.7698 13 23.2272 13V11ZM23.1792 10.94L25.1792 10.9458L25.2032 2.70182L23.2032 2.696L21.2032 2.69018L21.1792 10.9342L23.1792 10.94ZM23.2032 2.696H25.2032C25.2032 2.98829 25.1288 3.57485 24.6294 4.07421C24.1301 4.57357 23.5435 4.648 23.2512 4.648V2.648V0.648C22.9269 0.648 22.3164 0.730427 21.801 1.24579C21.2856 1.76115 21.2032 2.37171 21.2032 2.696H23.2032ZM23.2512 2.648V4.648H25.6752V2.648V0.648H23.2512V2.648ZM25.6752 2.648V4.648C25.7558 4.648 25.7944 4.66308 25.8342 4.68699L26.8632 2.972L27.8922 1.25701C27.2121 0.848921 26.4587 0.648 25.6752 0.648V2.648ZM26.8632 2.972L25.8791 4.71312C25.9482 4.75217 25.9875 4.79171 26.0242 4.85299L27.7392 3.824L29.4542 2.79501C29.059 2.13629 28.5143 1.60783 27.8473 1.23087L26.8632 2.972ZM27.7392 3.824L26.0346 4.87003C26.0411 4.88074 26.0632 4.9128 26.0632 5.024H28.0632H30.0632C30.0632 4.2392 29.8693 3.47126 29.4439 2.77797L27.7392 3.824ZM28.0632 5.024H26.0632C26.0632 5.12158 26.0489 5.15187 26.0535 5.13949L27.9312 5.828L29.809 6.51651C29.9895 6.02413 30.0632 5.51842 30.0632 5.024H28.0632ZM27.9312 5.828L26.0612 5.11869C26.0224 5.22106 25.994 5.26232 25.9918 5.26552L27.6192 6.428L29.2467 7.59048C29.4844 7.25768 29.664 6.89894 29.8012 6.53731L27.9312 5.828ZM27.6192 6.428L26.0192 5.228C26.0035 5.24895 25.9906 5.26532 25.9806 5.27765C25.9705 5.29003 25.9642 5.29722 25.9616 5.30007C25.959 5.30301 25.9615 5.29998 25.9693 5.29235C25.977 5.28487 25.9921 5.27048 26.0148 5.25156L27.2952 6.788L28.5756 8.32444C28.84 8.10409 29.0545 7.84758 29.2192 7.628L27.6192 6.428ZM27.2952 6.788L25.8086 8.12593C25.9088 8.23728 25.9432 8.3242 25.9432 8.48H27.9432H29.9432C29.9432 7.3398 29.5456 6.29872 28.7818 5.45007L27.2952 6.788ZM27.9432 8.48L25.9432 8.48976L25.9552 10.9498L27.9552 10.94L29.9552 10.9302L29.9432 8.47024L27.9432 8.48ZM27.9552 10.94H25.9552C25.9552 10.6517 26.0286 10.0681 26.526 9.57079C27.0234 9.07343 27.6069 9 27.8952 9V11V13C28.2235 13 28.8371 12.9166 29.3544 12.3992C29.8718 11.8819 29.9552 11.2683 29.9552 10.94H27.9552ZM27.8952 11V9H26.5392V11V13H27.8952V11ZM26.5392 11V9C26.7155 9 27.2124 9.02291 27.7032 9.391C28.3022 9.84024 28.4912 10.488 28.4912 10.964H26.4912H24.4912C24.4912 11.464 24.6882 12.1298 25.3032 12.591C25.81 12.9711 26.3309 13 26.5392 13V11ZM26.4912 10.964H28.4912V8.48H26.4912H24.4912V10.964H26.4912ZM26.4912 8.48H28.4912C28.4912 7.64899 28.1675 6.89587 27.5934 6.32179L26.1792 7.736L24.765 9.15021C24.7027 9.08789 24.6263 8.98853 24.5688 8.85145C24.511 8.71354 24.4912 8.58253 24.4912 8.48H26.4912ZM26.1792 7.736L27.6467 6.37718C27.0658 5.74982 26.2848 5.412 25.4352 5.412V7.412V9.412C25.3346 9.412 25.1955 9.39235 25.0447 9.32667C24.8936 9.26088 24.7827 9.17154 24.7117 9.09482L26.1792 7.736ZM25.4352 7.412V5.412H24.6432V7.412V9.412H25.4352V7.412ZM24.6432 7.412L22.6432 7.4052L22.6312 10.9332L24.6312 10.94L26.6312 10.9468L26.6432 7.4188L24.6432 7.412ZM24.6312 10.94H22.6312C22.6312 10.7463 22.6612 10.2309 23.0575 9.73561C23.5219 9.15505 24.1578 9 24.5832 9V11V13C25.0406 13 25.7005 12.8349 26.181 12.2344C26.5932 11.7191 26.6312 11.1737 26.6312 10.94H24.6312ZM24.5832 11V9H23.2272V11V13H24.5832V11ZM24.6432 5.972V7.972H25.6752V5.972V3.972H24.6432V5.972ZM25.6752 5.972V7.972C26.4785 7.972 27.1843 7.65243 27.719 7.13998L26.3352 5.696L24.9514 4.25202C25.0127 4.19332 25.1129 4.11709 25.2546 4.05784C25.3988 3.99754 25.5451 3.972 25.6752 3.972V5.972ZM26.3352 5.696L27.719 7.13998C28.3014 6.58188 28.6232 5.8377 28.6232 5.024H26.6232H24.6232C24.6232 4.90793 24.6456 4.75923 24.7129 4.60216C24.7801 4.4454 24.8712 4.32889 24.9514 4.25202L26.3352 5.696ZM26.6232 5.024H28.6232C28.6232 4.19949 28.2875 3.4648 27.719 2.92002L26.3352 4.364L24.9514 5.80798C24.8772 5.73686 24.7867 5.62406 24.7181 5.46689C24.6488 5.30809 24.6232 5.15268 24.6232 5.024H26.6232ZM26.3352 4.364L27.7494 2.94979C27.1973 2.39764 26.4714 2.088 25.6752 2.088V4.088V6.088C25.558 6.088 25.4126 6.0657 25.2606 6.00216C25.1093 5.93889 24.9962 5.85343 24.921 5.77821L26.3352 4.364ZM25.6752 4.088V2.088H24.6432V4.088V6.088H25.6752V4.088ZM24.6432 4.088H22.6432V5.972H24.6432H26.6432V4.088H24.6432ZM29.0283 11V13L29.0395 13L29.0283 11ZM28.9683 10.94L26.9683 10.9342V10.94H28.9683ZM28.9923 2.696L30.9923 2.70182V2.696H28.9923ZM29.0403 2.648V4.64803L29.051 4.64797L29.0403 2.648ZM31.2843 2.636L31.295 4.63597C31.3035 4.63593 31.3121 4.63582 31.3206 4.63567L31.2843 2.636ZM32.4843 2.948L31.4553 4.66299C31.4608 4.66629 31.4663 4.66958 31.4719 4.67283L32.4843 2.948ZM33.3603 3.824L31.6355 4.8364C31.6387 4.84195 31.642 4.84748 31.6453 4.85299L33.3603 3.824ZM33.3483 9.74L35.0665 10.7636C35.0696 10.7583 35.0727 10.753 35.0758 10.7477L33.3483 9.74ZM32.4483 10.64L31.4247 8.9218L32.4483 10.64ZM31.1763 10.988L31.1875 12.988C31.195 12.9879 31.2026 12.9878 31.2102 12.9877L31.1763 10.988ZM30.4323 9.524L28.4323 9.51958C28.4311 10.0508 28.6413 10.5606 29.0165 10.9367C29.3917 11.3127 29.9011 11.524 30.4323 11.524V9.524ZM31.9203 9.212L30.5061 7.79779C30.4968 7.80703 30.4877 7.81636 30.4786 7.82578L31.9203 9.212ZM31.9443 4.352L30.5003 5.73581C30.5199 5.75629 30.54 5.77635 30.5605 5.79598L31.9443 4.352ZM31.2843 4.076L31.3128 6.0758C31.3242 6.07563 31.3355 6.07538 31.3468 6.07502L31.2843 4.076ZM30.4443 4.088L30.4157 2.0882C29.3241 2.1038 28.4467 2.99188 28.4443 4.08358L30.4443 4.088ZM29.0283 11V9C29.3166 9 29.9001 9.07343 30.3975 9.57079C30.8949 10.0681 30.9683 10.6517 30.9683 10.94H28.9683H26.9683C26.9683 11.2683 27.0517 11.8819 27.5691 12.3992C28.0864 12.9166 28.7 13 29.0283 13V11ZM28.9683 10.94L30.9683 10.9458L30.9923 2.70182L28.9923 2.696L26.9923 2.69018L26.9683 10.9342L28.9683 10.94ZM28.9923 2.696H30.9923C30.9923 2.98829 30.9179 3.57485 30.4185 4.07421C29.9191 4.57357 29.3326 4.648 29.0403 4.648V2.648V0.648C28.716 0.648 28.1054 0.730427 27.5901 1.24579C27.0747 1.76115 26.9923 2.37171 26.9923 2.696H28.9923ZM29.0403 2.648L29.051 4.64797L31.295 4.63597L31.2843 2.636L31.2736 0.636028L29.0296 0.648028L29.0403 2.648ZM31.2843 2.636L31.3206 4.63567C31.4048 4.63414 31.4326 4.64936 31.4553 4.66299L32.4843 2.948L33.5133 1.23301C32.816 0.814637 32.0438 0.621861 31.2479 0.636331L31.2843 2.636ZM32.4843 2.948L31.4719 4.67283C31.5455 4.71604 31.5922 4.76278 31.6355 4.8364L33.3603 3.824L35.0851 2.8116C34.6963 2.14922 34.1591 1.61196 33.4967 1.22317L32.4843 2.948ZM33.3603 3.824L31.6453 4.85299C31.6657 4.88692 31.6843 4.9283 31.6843 5.024H33.6843H35.6843C35.6843 4.2397 35.4869 3.48108 35.0753 2.79501L33.3603 3.824ZM33.6843 5.024H31.6843V8.468H33.6843H35.6843V5.024H33.6843ZM33.6843 8.468H31.6843C31.6843 8.59404 31.6583 8.66779 31.6207 8.73226L33.3483 9.74L35.0758 10.7477C35.4862 10.0442 35.6843 9.26996 35.6843 8.468H33.6843ZM33.3483 9.74L31.6301 8.71639C31.5763 8.80672 31.515 8.86798 31.4247 8.9218L32.4483 10.64L33.4719 12.3582C34.1336 11.964 34.6723 11.4253 35.0665 10.7636L33.3483 9.74ZM32.4483 10.64L31.4247 8.9218C31.3718 8.9533 31.2939 8.98572 31.1424 8.98829L31.1763 10.988L31.2102 12.9877C32.0027 12.9743 32.7728 12.7747 33.4719 12.3582L32.4483 10.64ZM31.1763 10.988L31.1651 8.98803L29.0171 9.00003L29.0283 11L29.0395 13L31.1875 12.988L31.1763 10.988ZM30.4323 9.524V11.524H31.1763V9.524V7.524H30.4323V9.524ZM31.1763 9.524V11.524C32.0005 11.524 32.774 11.2096 33.3619 10.5982L31.9203 9.212L30.4786 7.82578C30.5538 7.74762 30.6652 7.66268 30.8108 7.60161C30.9554 7.541 31.0855 7.524 31.1763 7.524V9.524ZM31.9203 9.212L33.3345 10.6262C33.9086 10.0521 34.2323 9.29901 34.2323 8.468H32.2323H30.2323C30.2323 8.36547 30.2521 8.23446 30.3099 8.09655C30.3674 7.95947 30.4437 7.86011 30.5061 7.79779L31.9203 9.212ZM32.2323 8.468H34.2323V5.012H32.2323H30.2323V8.468H32.2323ZM32.2323 5.012H34.2323C34.2323 4.18749 33.8966 3.4528 33.3281 2.90802L31.9443 4.352L30.5605 5.79598C30.4863 5.72486 30.3958 5.61206 30.3272 5.45489C30.2579 5.29609 30.2323 5.14068 30.2323 5.012H32.2323ZM31.9443 4.352L33.3883 2.96819C32.8291 2.38467 32.0686 2.05051 31.2218 2.07698L31.2843 4.076L31.3468 6.07502C31.2104 6.07928 31.0427 6.0565 30.8697 5.98416C30.6985 5.91259 30.5764 5.81523 30.5003 5.73581L31.9443 4.352ZM31.2843 4.076L31.2557 2.0762L30.4157 2.0882L30.4443 4.088L30.4728 6.0878L31.3128 6.0758L31.2843 4.076ZM30.4443 4.088L28.4443 4.08358L28.4323 9.51958L30.4323 9.524L32.4323 9.52841L32.4443 4.09241L30.4443 4.088ZM36.6617 8.732L34.67 8.91385C34.6764 8.98447 34.6866 9.0547 34.7005 9.12423L36.6617 8.732ZM36.4097 5.972H34.4097C34.4097 6.03271 34.4125 6.09339 34.418 6.15385L36.4097 5.972ZM37.8617 2.708L39.8617 2.71535V2.708H37.8617ZM37.8497 5.972L39.8414 6.15385C39.8467 6.09583 39.8495 6.03761 39.8497 5.97935L37.8497 5.972ZM37.5977 8.732L39.5588 9.12423C39.5728 9.0547 39.583 8.98447 39.5894 8.91385L37.5977 8.732ZM36.7217 8.792V6.792C37.1602 6.792 37.6813 6.94723 38.0969 7.36279C38.4642 7.73008 38.582 8.13568 38.6228 8.33977L36.6617 8.732L34.7005 9.12423C34.7493 9.36832 34.8812 9.80392 35.2685 10.1912C35.704 10.6268 36.2512 10.792 36.7217 10.792V8.792ZM36.6617 8.732L38.6534 8.55015L38.4014 5.79015L36.4097 5.972L34.418 6.15385L34.67 8.91385L36.6617 8.732ZM36.4097 5.972H38.4097V2.708H36.4097H34.4097V5.972H36.4097ZM36.4097 2.708H38.4097C38.4097 2.90168 38.3797 3.41705 37.9834 3.91239C37.519 4.49295 36.8831 4.648 36.4577 4.648V2.648V0.648C36.0003 0.648 35.3404 0.813052 34.86 1.41361C34.4477 1.92895 34.4097 2.47431 34.4097 2.708H36.4097ZM36.4577 2.648V4.648H37.8017V2.648V0.648H36.4577V2.648ZM37.8017 2.648V4.648C37.5134 4.648 36.9298 4.57457 36.4325 4.07722C35.9351 3.57986 35.8617 2.99629 35.8617 2.708H37.8617H39.8617C39.8617 2.37971 39.7783 1.76614 39.2609 1.24878C38.7435 0.731425 38.13 0.648 37.8017 0.648V2.648ZM37.8617 2.708L35.8617 2.70065L35.8497 5.96465L37.8497 5.972L39.8497 5.97935L39.8617 2.71535L37.8617 2.708ZM37.8497 5.972L35.858 5.79015L35.606 8.55015L37.5977 8.732L39.5894 8.91385L39.8414 6.15385L37.8497 5.972ZM37.5977 8.732L35.6365 8.33977C35.6773 8.13568 35.7952 7.73008 36.1625 7.36278C36.578 6.94723 37.0992 6.792 37.5377 6.792V8.792V10.792C38.0082 10.792 38.5553 10.6268 38.9909 10.1912C39.3782 9.80392 39.51 9.36832 39.5588 9.12423L37.5977 8.732ZM37.5377 8.792V6.792H36.7217V8.792V10.792H37.5377V8.792ZM36.4577 11V9C36.8831 9 37.519 9.15505 37.9834 9.73561C38.3797 10.2309 38.4097 10.7463 38.4097 10.94H36.4097H34.4097C34.4097 11.1737 34.4477 11.7191 34.86 12.2344C35.3404 12.8349 36.0003 13 36.4577 13V11ZM36.4097 10.94H38.4097V9.632H36.4097H34.4097V10.94H36.4097ZM36.4097 9.632H38.4097C38.4097 9.92429 38.3353 10.5109 37.8359 11.0102C37.3365 11.5096 36.75 11.584 36.4577 11.584V9.584V7.584C36.1334 7.584 35.5228 7.66643 35.0075 8.18179C34.4921 8.69715 34.4097 9.30771 34.4097 9.632H36.4097ZM36.4577 9.584V11.584H37.8017V9.584V7.584H36.4577V9.584ZM37.8017 9.584V11.584C37.5094 11.584 36.9228 11.5096 36.4235 11.0102C35.9241 10.5109 35.8497 9.92429 35.8497 9.632H37.8497H39.8497C39.8497 9.30771 39.7673 8.69714 39.2519 8.18179C38.7365 7.66643 38.126 7.584 37.8017 7.584V9.584ZM37.8497 9.632H35.8497V10.94H37.8497H39.8497V9.632H37.8497ZM37.8497 10.94H35.8497C35.8497 10.7463 35.8797 10.2309 36.276 9.73561C36.7404 9.15505 37.3763 9 37.8017 9V11V13C38.2591 13 38.919 12.8349 39.3994 12.2344C39.8117 11.7191 39.8497 11.1737 39.8497 10.94H37.8497ZM37.8017 11V9H36.4577V11V13H37.8017V11Z" fill="black" mask="url(#path-1-outside-1_1010_8)"/>
<path d="M4.35206 11.12C3.91206 11.12 3.51206 11.012 3.15206 10.796C2.80006 10.572 2.52006 10.276 2.31206 9.908C2.10406 9.54 2.00006 9.128 2.00006 8.672L2.01206 4.928C2.01206 4.488 2.11206 4.088 2.31206 3.728C2.52006 3.36 2.80006 3.068 3.15206 2.852C3.51206 2.628 3.91206 2.516 4.35206 2.516C4.79206 2.516 5.18806 2.624 5.54006 2.84C5.89206 3.056 6.17206 3.348 6.38006 3.716C6.58806 4.076 6.69206 4.48 6.69206 4.928V5.48C6.69206 5.512 6.67606 5.528 6.64406 5.528H5.30006C5.26806 5.528 5.25206 5.512 5.25206 5.48V4.928C5.25206 4.664 5.16406 4.436 4.98806 4.244C4.82006 4.052 4.60806 3.956 4.35206 3.956C4.06406 3.956 3.84406 4.056 3.69206 4.256C3.54006 4.448 3.46406 4.672 3.46406 4.928V8.672C3.46406 8.968 3.54806 9.208 3.71606 9.392C3.89206 9.576 4.10406 9.668 4.35206 9.668C4.60806 9.668 4.82006 9.568 4.98806 9.368C5.16406 9.16 5.25206 8.928 5.25206 8.672V8.12C5.25206 8.088 5.26806 8.072 5.30006 8.072H6.65606C6.68806 8.072 6.70406 8.088 6.70406 8.12V8.672C6.70406 9.128 6.59606 9.54 6.38006 9.908C6.17206 10.276 5.89206 10.572 5.54006 10.796C5.18806 11.012 4.79206 11.12 4.35206 11.12ZM6.96263 10.94L8.45063 2.696C8.45863 2.664 8.47863 2.648 8.51063 2.648H10.2506C10.2826 2.648 10.3026 2.664 10.3106 2.696L11.7386 10.94C11.7466 10.98 11.7306 11 11.6906 11H10.3586C10.3266 11 10.3066 10.98 10.2986 10.94L10.1666 10.064H8.53463L8.40263 10.94C8.39463 10.98 8.37463 11 8.34263 11H7.01063C6.97863 11 6.96263 10.98 6.96263 10.94ZM8.77463 8.78H9.92663L9.43463 5.408L9.36263 4.964L9.31463 5.408L8.77463 8.78ZM12.5997 11C12.5357 11 12.5037 10.972 12.5037 10.916L12.4917 2.744C12.4917 2.68 12.5237 2.648 12.5877 2.648H13.6677L15.6957 7.376L15.6357 2.744C15.6357 2.68 15.6717 2.648 15.7437 2.648H16.9317C16.9797 2.648 17.0037 2.68 17.0037 2.744L17.0157 10.928C17.0157 10.976 16.9957 11 16.9557 11H15.8997L13.8237 6.584L13.9077 10.904C13.9077 10.968 13.8717 11 13.7997 11H12.5997ZM17.6501 10.94L19.1381 2.696C19.1461 2.664 19.1661 2.648 19.1981 2.648H20.9381C20.9701 2.648 20.9901 2.664 20.9981 2.696L22.4261 10.94C22.4341 10.98 22.4181 11 22.3781 11H21.0461C21.0141 11 20.9941 10.98 20.9861 10.94L20.8541 10.064H19.2221L19.0901 10.94C19.0821 10.98 19.0621 11 19.0301 11H17.6981C17.6661 11 17.6501 10.98 17.6501 10.94ZM19.4621 8.78H20.6141L20.1221 5.408L20.0501 4.964L20.0021 5.408L19.4621 8.78ZM23.2272 11C23.1952 11 23.1792 10.98 23.1792 10.94L23.2032 2.696C23.2032 2.664 23.2192 2.648 23.2512 2.648H25.6752C26.1072 2.648 26.5032 2.756 26.8632 2.972C27.2312 3.18 27.5232 3.464 27.7392 3.824C27.9552 4.176 28.0632 4.576 28.0632 5.024C28.0632 5.32 28.0192 5.588 27.9312 5.828C27.8432 6.06 27.7392 6.26 27.6192 6.428C27.4992 6.588 27.3912 6.708 27.2952 6.788C27.7272 7.268 27.9432 7.832 27.9432 8.48L27.9552 10.94C27.9552 10.98 27.9352 11 27.8952 11H26.5392C26.5072 11 26.4912 10.988 26.4912 10.964V8.48C26.4912 8.192 26.3872 7.944 26.1792 7.736C25.9792 7.52 25.7312 7.412 25.4352 7.412H24.6432L24.6312 10.94C24.6312 10.98 24.6152 11 24.5832 11H23.2272ZM24.6432 5.972H25.6752C25.9232 5.972 26.1432 5.88 26.3352 5.696C26.5272 5.512 26.6232 5.288 26.6232 5.024C26.6232 4.768 26.5272 4.548 26.3352 4.364C26.1512 4.18 25.9312 4.088 25.6752 4.088H24.6432V5.972ZM29.0283 11C28.9883 11 28.9683 10.98 28.9683 10.94L28.9923 2.696C28.9923 2.664 29.0083 2.648 29.0403 2.648L31.2843 2.636C31.7243 2.628 32.1243 2.732 32.4843 2.948C32.8523 3.164 33.1443 3.456 33.3603 3.824C33.5763 4.184 33.6843 4.584 33.6843 5.024V8.468C33.6843 8.932 33.5723 9.356 33.3483 9.74C33.1243 10.116 32.8243 10.416 32.4483 10.64C32.0723 10.864 31.6483 10.98 31.1763 10.988L29.0283 11ZM30.4323 9.524H31.1763C31.4723 9.524 31.7203 9.42 31.9203 9.212C32.1283 9.004 32.2323 8.756 32.2323 8.468V5.012C32.2323 4.756 32.1363 4.536 31.9443 4.352C31.7603 4.16 31.5403 4.068 31.2843 4.076L30.4443 4.088L30.4323 9.524ZM36.7217 8.792C36.6897 8.792 36.6697 8.772 36.6617 8.732L36.4097 5.972V2.708C36.4097 2.668 36.4257 2.648 36.4577 2.648H37.8017C37.8417 2.648 37.8617 2.668 37.8617 2.708L37.8497 5.972L37.5977 8.732C37.5897 8.772 37.5697 8.792 37.5377 8.792H36.7217ZM36.4577 11C36.4257 11 36.4097 10.98 36.4097 10.94V9.632C36.4097 9.6 36.4257 9.584 36.4577 9.584H37.8017C37.8337 9.584 37.8497 9.6 37.8497 9.632V10.94C37.8497 10.98 37.8337 11 37.8017 11H36.4577Z" fill="white"/>
</svg>
