<svg width="28" height="15" viewBox="0 0 28 15" fill="none" xmlns="http://www.w3.org/2000/svg">
<mask id="path-1-outside-1_1010_5" maskUnits="userSpaceOnUse" x="-0.335938" y="0" width="28" height="14" fill="black">
<rect fill="white" x="-0.335938" width="28" height="14"/>
<path d="M4.35206 11.12C3.91206 11.12 3.51206 11.012 3.15206 10.796C2.80006 10.572 2.52006 10.276 2.31206 9.908C2.10406 9.54 2.00006 9.128 2.00006 8.672L2.01206 4.928C2.01206 4.488 2.11206 4.088 2.31206 3.728C2.52006 3.36 2.80006 3.068 3.15206 2.852C3.51206 2.628 3.91206 2.516 4.35206 2.516C4.79206 2.516 5.18806 2.624 5.54006 2.84C5.89206 3.056 6.17206 3.348 6.38006 3.716C6.58806 4.076 6.69206 4.48 6.69206 4.928V5.48C6.69206 5.512 6.67606 5.528 6.64406 5.528H5.30006C5.26806 5.528 5.25206 5.512 5.25206 5.48V4.928C5.25206 4.664 5.16406 4.436 4.98806 4.244C4.82006 4.052 4.60806 3.956 4.35206 3.956C4.06406 3.956 3.84406 4.056 3.69206 4.256C3.54006 4.448 3.46406 4.672 3.46406 4.928V8.672C3.46406 8.968 3.54806 9.208 3.71606 9.392C3.89206 9.576 4.10406 9.668 4.35206 9.668C4.60806 9.668 4.82006 9.568 4.98806 9.368C5.16406 9.16 5.25206 8.928 5.25206 8.672V8.12C5.25206 8.088 5.26806 8.072 5.30006 8.072H6.65606C6.68806 8.072 6.70406 8.088 6.70406 8.12V8.672C6.70406 9.128 6.59606 9.54 6.38006 9.908C6.17206 10.276 5.89206 10.572 5.54006 10.796C5.18806 11.012 4.79206 11.12 4.35206 11.12ZM7.13841 10.94L8.62641 2.696C8.63441 2.664 8.65441 2.648 8.68641 2.648H10.4264C10.4584 2.648 10.4784 2.664 10.4864 2.696L11.9144 10.94C11.9224 10.98 11.9064 11 11.8664 11H10.5344C10.5024 11 10.4824 10.98 10.4744 10.94L10.3424 10.064H8.71041L8.57841 10.94C8.57041 10.98 8.55041 11 8.51841 11H7.18641C7.15441 11 7.13841 10.98 7.13841 10.94ZM8.95041 8.78H10.1024L9.61041 5.408L9.53841 4.964L9.49041 5.408L8.95041 8.78ZM13.3318 11C13.2998 11 13.2798 10.98 13.2718 10.94L11.6158 2.696C11.6078 2.664 11.6238 2.648 11.6638 2.648H13.0198C13.0518 2.648 13.0718 2.664 13.0798 2.696L14.0638 8.192L15.0238 2.696C15.0318 2.664 15.0518 2.648 15.0838 2.648H16.4278C16.4678 2.648 16.4838 2.664 16.4758 2.696L14.8438 10.94C14.8358 10.98 14.8158 11 14.7838 11H13.3318ZM17.2272 11C17.1952 11 17.1792 10.98 17.1792 10.94L17.1912 2.696C17.1912 2.664 17.2072 2.648 17.2392 2.648H21.0912C21.1232 2.648 21.1392 2.668 21.1392 2.708V4.052C21.1392 4.084 21.1232 4.1 21.0912 4.1H18.6312V5.972H21.0912C21.1232 5.972 21.1392 5.988 21.1392 6.02L21.1512 7.376C21.1512 7.408 21.1352 7.424 21.1032 7.424H18.6312V9.524H21.1032C21.1352 9.524 21.1512 9.544 21.1512 9.584V10.952C21.1512 10.984 21.1352 11 21.1032 11H17.2272ZM24.3115 8.792C24.2795 8.792 24.2595 8.772 24.2515 8.732L23.9995 5.972V2.708C23.9995 2.668 24.0155 2.648 24.0475 2.648H25.3915C25.4315 2.648 25.4515 2.668 25.4515 2.708L25.4395 5.972L25.1875 8.732C25.1795 8.772 25.1595 8.792 25.1275 8.792H24.3115ZM24.0475 11C24.0155 11 23.9995 10.98 23.9995 10.94V9.632C23.9995 9.6 24.0155 9.584 24.0475 9.584H25.3915C25.4235 9.584 25.4395 9.6 25.4395 9.632V10.94C25.4395 10.98 25.4235 11 25.3915 11H24.0475Z"/>
</mask>
<path d="M4.35206 11.12C3.91206 11.12 3.51206 11.012 3.15206 10.796C2.80006 10.572 2.52006 10.276 2.31206 9.908C2.10406 9.54 2.00006 9.128 2.00006 8.672L2.01206 4.928C2.01206 4.488 2.11206 4.088 2.31206 3.728C2.52006 3.36 2.80006 3.068 3.15206 2.852C3.51206 2.628 3.91206 2.516 4.35206 2.516C4.79206 2.516 5.18806 2.624 5.54006 2.84C5.89206 3.056 6.17206 3.348 6.38006 3.716C6.58806 4.076 6.69206 4.48 6.69206 4.928V5.48C6.69206 5.512 6.67606 5.528 6.64406 5.528H5.30006C5.26806 5.528 5.25206 5.512 5.25206 5.48V4.928C5.25206 4.664 5.16406 4.436 4.98806 4.244C4.82006 4.052 4.60806 3.956 4.35206 3.956C4.06406 3.956 3.84406 4.056 3.69206 4.256C3.54006 4.448 3.46406 4.672 3.46406 4.928V8.672C3.46406 8.968 3.54806 9.208 3.71606 9.392C3.89206 9.576 4.10406 9.668 4.35206 9.668C4.60806 9.668 4.82006 9.568 4.98806 9.368C5.16406 9.16 5.25206 8.928 5.25206 8.672V8.12C5.25206 8.088 5.26806 8.072 5.30006 8.072H6.65606C6.68806 8.072 6.70406 8.088 6.70406 8.12V8.672C6.70406 9.128 6.59606 9.54 6.38006 9.908C6.17206 10.276 5.89206 10.572 5.54006 10.796C5.18806 11.012 4.79206 11.12 4.35206 11.12ZM7.13841 10.94L8.62641 2.696C8.63441 2.664 8.65441 2.648 8.68641 2.648H10.4264C10.4584 2.648 10.4784 2.664 10.4864 2.696L11.9144 10.94C11.9224 10.98 11.9064 11 11.8664 11H10.5344C10.5024 11 10.4824 10.98 10.4744 10.94L10.3424 10.064H8.71041L8.57841 10.94C8.57041 10.98 8.55041 11 8.51841 11H7.18641C7.15441 11 7.13841 10.98 7.13841 10.94ZM8.95041 8.78H10.1024L9.61041 5.408L9.53841 4.964L9.49041 5.408L8.95041 8.78ZM13.3318 11C13.2998 11 13.2798 10.98 13.2718 10.94L11.6158 2.696C11.6078 2.664 11.6238 2.648 11.6638 2.648H13.0198C13.0518 2.648 13.0718 2.664 13.0798 2.696L14.0638 8.192L15.0238 2.696C15.0318 2.664 15.0518 2.648 15.0838 2.648H16.4278C16.4678 2.648 16.4838 2.664 16.4758 2.696L14.8438 10.94C14.8358 10.98 14.8158 11 14.7838 11H13.3318ZM17.2272 11C17.1952 11 17.1792 10.98 17.1792 10.94L17.1912 2.696C17.1912 2.664 17.2072 2.648 17.2392 2.648H21.0912C21.1232 2.648 21.1392 2.668 21.1392 2.708V4.052C21.1392 4.084 21.1232 4.1 21.0912 4.1H18.6312V5.972H21.0912C21.1232 5.972 21.1392 5.988 21.1392 6.02L21.1512 7.376C21.1512 7.408 21.1352 7.424 21.1032 7.424H18.6312V9.524H21.1032C21.1352 9.524 21.1512 9.544 21.1512 9.584V10.952C21.1512 10.984 21.1352 11 21.1032 11H17.2272ZM24.3115 8.792C24.2795 8.792 24.2595 8.772 24.2515 8.732L23.9995 5.972V2.708C23.9995 2.668 24.0155 2.648 24.0475 2.648H25.3915C25.4315 2.648 25.4515 2.668 25.4515 2.708L25.4395 5.972L25.1875 8.732C25.1795 8.772 25.1595 8.792 25.1275 8.792H24.3115ZM24.0475 11C24.0155 11 23.9995 10.98 23.9995 10.94V9.632C23.9995 9.6 24.0155 9.584 24.0475 9.584H25.3915C25.4235 9.584 25.4395 9.6 25.4395 9.632V10.94C25.4395 10.98 25.4235 11 25.3915 11H24.0475Z" fill="white"/>
<path d="M3.15206 10.796L2.07831 12.4833C2.09311 12.4927 2.10803 12.502 2.12307 12.511L3.15206 10.796ZM2.31206 9.908L0.570937 10.8921H0.570937L2.31206 9.908ZM2.00006 8.672L6.24657e-05 8.66559V8.672H2.00006ZM2.01206 4.928L4.01206 4.93441V4.928H2.01206ZM2.31206 3.728L0.570937 2.74389C0.568525 2.74815 0.566129 2.75243 0.563748 2.75671L2.31206 3.728ZM3.15206 2.852L4.19812 4.55668L4.20867 4.55011L3.15206 2.852ZM5.54006 2.84L4.49403 4.54465L4.49403 4.54465L5.54006 2.84ZM6.38006 3.716L4.63894 4.70011C4.64204 4.70561 4.64517 4.71109 4.64833 4.71656L6.38006 3.716ZM4.98806 4.244L3.48291 5.56101C3.49306 5.57261 3.50334 5.58409 3.51376 5.59545L4.98806 4.244ZM3.69206 4.256L5.26015 5.49741C5.26833 5.48707 5.27641 5.47666 5.28439 5.46617L3.69206 4.256ZM3.71606 9.392L2.23909 10.7405C2.24952 10.752 2.26009 10.7633 2.27078 10.7744L3.71606 9.392ZM4.98806 9.368L3.46128 8.07611L3.45665 8.08162L4.98806 9.368ZM6.38006 9.908L4.65523 8.8956C4.64972 8.90498 4.64429 8.91441 4.63894 8.92389L6.38006 9.908ZM5.54006 10.796L6.5861 12.5006C6.59538 12.4949 6.60462 12.4892 6.61381 12.4833L5.54006 10.796ZM4.35206 11.12V9.12C4.25636 9.12 4.21499 9.10137 4.18105 9.08101L3.15206 10.796L2.12307 12.511C2.80914 12.9226 3.56777 13.12 4.35206 13.12V11.12ZM3.15206 10.796L4.22581 9.10868C4.15435 9.0632 4.10198 9.01021 4.05319 8.92389L2.31206 9.908L0.570937 10.8921C0.938142 11.5418 1.44578 12.0808 2.07831 12.4833L3.15206 10.796ZM2.31206 9.908L4.05319 8.92389C4.02815 8.87958 4.00006 8.81112 4.00006 8.672H2.00006H6.24657e-05C6.24657e-05 9.44488 0.179978 10.2004 0.570937 10.8921L2.31206 9.908ZM2.00006 8.672L4.00005 8.67841L4.01205 4.93441L2.01206 4.928L0.0120728 4.92159L7.28369e-05 8.66559L2.00006 8.672ZM2.01206 4.928H4.01206C4.01206 4.80389 4.03672 4.74187 4.06038 4.69929L2.31206 3.728L0.563748 2.75671C0.187407 3.43413 0.0120625 4.17211 0.0120625 4.928H2.01206ZM2.31206 3.728L4.05319 4.71211C4.09842 4.63208 4.14215 4.59097 4.1981 4.55664L3.15206 2.852L2.10603 1.14735C1.45797 1.54503 0.9417 2.08792 0.570937 2.74389L2.31206 3.728ZM3.15206 2.852L4.20867 4.55011C4.23922 4.5311 4.27073 4.516 4.35206 4.516V2.516V0.516C3.55339 0.516 2.78491 0.724896 2.09546 1.15389L3.15206 2.852ZM4.35206 2.516V4.516C4.44797 4.516 4.47754 4.53452 4.49403 4.54465L5.54006 2.84L6.5861 1.13535C5.89859 0.713474 5.13615 0.516 4.35206 0.516V2.516ZM5.54006 2.84L4.49403 4.54465C4.54997 4.57897 4.5937 4.62008 4.63894 4.70011L6.38006 3.716L8.12119 2.73188C7.75042 2.07592 7.23415 1.53303 6.58609 1.13535L5.54006 2.84ZM6.38006 3.716L4.64833 4.71656C4.66703 4.74892 4.69206 4.80315 4.69206 4.928H6.69206H8.69206C8.69206 4.15684 8.5091 3.40308 8.11179 2.71544L6.38006 3.716ZM6.69206 4.928H4.69206V5.48H6.69206H8.69206V4.928H6.69206ZM6.69206 5.48H4.69206C4.69206 5.18771 4.76649 4.60114 5.26585 4.10178C5.76521 3.60242 6.35178 3.528 6.64406 3.528V5.528V7.528C6.96835 7.528 7.57891 7.44557 8.09427 6.93022C8.60963 6.41486 8.69206 5.80429 8.69206 5.48H6.69206ZM6.64406 5.528V3.528H5.30006V5.528V7.528H6.64406V5.528ZM5.30006 5.528V3.528C5.59235 3.528 6.17892 3.60243 6.67828 4.10179C7.17764 4.60115 7.25206 5.18771 7.25206 5.48H5.25206H3.25206C3.25206 5.80429 3.33449 6.41485 3.84985 6.93021C4.36521 7.44557 4.97577 7.528 5.30006 7.528V5.528ZM5.25206 5.48H7.25206V4.928H5.25206H3.25206V5.48H5.25206ZM5.25206 4.928H7.25206C7.25206 4.17115 6.98155 3.45893 6.46237 2.89255L4.98806 4.244L3.51376 5.59545C3.44417 5.51954 3.37195 5.41318 3.32022 5.27915C3.26866 5.14558 3.25206 5.0224 3.25206 4.928H5.25206ZM4.98806 4.244L6.49322 2.92699C5.94394 2.29925 5.18251 1.956 4.35206 1.956V3.956V5.956C4.22423 5.956 4.05619 5.93058 3.87805 5.84991C3.69973 5.76916 3.56869 5.65904 3.48291 5.56101L4.98806 4.244ZM4.35206 3.956V1.956C3.54316 1.956 2.68879 2.27077 2.09974 3.04583L3.69206 4.256L5.28439 5.46617C5.16818 5.61907 5.00231 5.75917 4.79867 5.85173C4.60375 5.94033 4.4396 5.956 4.35206 5.956V3.956ZM3.69206 4.256L2.12397 3.01459C1.67887 3.57682 1.46406 4.2434 1.46406 4.928H3.46406H5.46406C5.46406 5.00058 5.45279 5.09927 5.41502 5.21059C5.37689 5.32299 5.32117 5.42034 5.26015 5.49741L3.69206 4.256ZM3.46406 4.928H1.46406V8.672H3.46406H5.46406V4.928H3.46406ZM3.46406 8.672H1.46406C1.46406 9.36767 1.67314 10.1207 2.23909 10.7405L3.71606 9.392L5.19303 8.04346C5.29473 8.15485 5.36953 8.28403 5.41478 8.4133C5.45818 8.5373 5.46406 8.63119 5.46406 8.672H3.46406ZM3.71606 9.392L2.27078 10.7744C2.81272 11.341 3.542 11.668 4.35206 11.668V9.668V7.668C4.48168 7.668 4.64 7.69347 4.80325 7.76431C4.96536 7.83466 5.08407 7.92876 5.16135 8.00955L3.71606 9.392ZM4.35206 9.668V11.668C5.21259 11.668 5.98037 11.2962 6.51947 10.6544L4.98806 9.368L3.45665 8.08162C3.53699 7.98598 3.66625 7.87073 3.84983 7.78414C4.03451 7.69702 4.21259 7.668 4.35206 7.668V9.668ZM4.98806 9.368L6.51483 10.6599C6.97513 10.1159 7.25206 9.43296 7.25206 8.672H5.25206H3.25206C3.25206 8.56546 3.27138 8.4465 3.31607 8.32869C3.3601 8.21262 3.41699 8.12847 3.46129 8.07611L4.98806 9.368ZM5.25206 8.672H7.25206V8.12H5.25206H3.25206V8.672H5.25206ZM5.25206 8.12H7.25206C7.25206 8.41229 7.17764 8.99885 6.67828 9.49821C6.17892 9.99757 5.59236 10.072 5.30006 10.072V8.072V6.072C4.97577 6.072 4.3652 6.15443 3.84984 6.66979C3.33449 7.18515 3.25206 7.79571 3.25206 8.12H5.25206ZM5.30006 8.072V10.072H6.65606V8.072V6.072H5.30006V8.072ZM6.65606 8.072V10.072C6.36377 10.072 5.77721 9.99757 5.27785 9.49821C4.77849 8.99885 4.70406 8.41229 4.70406 8.12H6.70406H8.70406C8.70406 7.79571 8.62164 7.18515 8.10628 6.66979C7.59092 6.15443 6.98035 6.072 6.65606 6.072V8.072ZM6.70406 8.12H4.70406V8.672H6.70406H8.70406V8.12H6.70406ZM6.70406 8.672H4.70406C4.70406 8.7974 4.67865 8.8557 4.65523 8.8956L6.38006 9.908L8.10489 10.9204C8.51348 10.2243 8.70406 9.4586 8.70406 8.672H6.70406ZM6.38006 9.908L4.63894 8.92389C4.59014 9.01021 4.53778 9.0632 4.46631 9.10868L5.54006 10.796L6.61381 12.4833C7.24635 12.0808 7.75398 11.5418 8.12119 10.8921L6.38006 9.908ZM5.54006 10.796L4.49403 9.09135C4.47754 9.10147 4.44797 9.12 4.35206 9.12V11.12V13.12C5.13615 13.12 5.89859 12.9225 6.5861 12.5006L5.54006 10.796ZM7.13841 10.94L5.17021 10.5848C5.14905 10.702 5.13841 10.8209 5.13841 10.94H7.13841ZM8.62641 2.696L6.68612 2.21093C6.67538 2.25388 6.66607 2.29718 6.65821 2.34075L8.62641 2.696ZM10.4864 2.696L12.4571 2.35465C12.4487 2.30638 12.4386 2.25844 12.4267 2.21092L10.4864 2.696ZM11.9144 10.94L9.94375 11.2814C9.9467 11.2984 9.94986 11.3153 9.95325 11.3322L11.9144 10.94ZM10.4744 10.94L8.49673 11.238C8.50148 11.2695 8.50699 11.301 8.51325 11.3322L10.4744 10.94ZM10.3424 10.064L12.3201 9.76599C12.1726 8.78756 11.3319 8.064 10.3424 8.064V10.064ZM8.71041 10.064V8.064C7.72092 8.064 6.88017 8.78756 6.73273 9.76599L8.71041 10.064ZM8.57841 10.94L10.5396 11.3322C10.5458 11.301 10.5513 11.2695 10.5561 11.238L8.57841 10.94ZM8.95041 8.78L6.97557 8.46375C6.88296 9.04206 7.04849 9.63191 7.42848 10.0776C7.80847 10.5233 8.36472 10.78 8.95041 10.78V8.78ZM10.1024 8.78V10.78C10.6832 10.78 11.2354 10.5275 11.6153 10.0881C11.9952 9.64879 12.1653 9.06598 12.0815 8.49124L10.1024 8.78ZM9.61041 5.408L11.5895 5.11924C11.5879 5.10877 11.5863 5.09831 11.5846 5.08786L9.61041 5.408ZM9.53841 4.964L11.5126 4.64386C11.3524 3.65564 10.4861 2.93814 9.48534 2.9647C8.48456 2.99127 7.6576 3.7537 7.54999 4.74904L9.53841 4.964ZM9.49041 5.408L11.4652 5.72425C11.4706 5.69061 11.4752 5.65684 11.4788 5.62296L9.49041 5.408ZM7.13841 10.94L9.1066 11.2952L10.5946 3.05125L8.62641 2.696L6.65821 2.34075L5.17021 10.5848L7.13841 10.94ZM8.62641 2.696L10.5667 3.18107C10.4953 3.46678 10.3161 3.88626 9.8968 4.22174C9.47117 4.56224 9.00864 4.648 8.68641 4.648V2.648V0.648C8.33217 0.648 7.84364 0.741758 7.39801 1.09826C6.95867 1.44974 6.76555 1.89322 6.68612 2.21093L8.62641 2.696ZM8.68641 2.648V4.648H10.4264V2.648V0.648H8.68641V2.648ZM10.4264 2.648V4.648C10.1042 4.648 9.64165 4.56224 9.21602 4.22174C8.79667 3.88626 8.61755 3.46679 8.54612 3.18108L10.4864 2.696L12.4267 2.21092C12.3473 1.89321 12.1541 1.44974 11.7148 1.09826C11.2692 0.741757 10.7806 0.648 10.4264 0.648V2.648ZM10.4864 2.696L8.51575 3.03735L9.94375 11.2814L11.9144 10.94L13.8851 10.5986L12.4571 2.35465L10.4864 2.696ZM11.9144 10.94L9.95325 11.3322C9.90946 11.1133 9.81311 10.4026 10.3467 9.73561C10.8908 9.0555 11.6229 9 11.8664 9V11V13C12.15 13 12.9101 12.9345 13.4701 12.2344C14.0197 11.5474 13.9274 10.8067 13.8756 10.5478L11.9144 10.94ZM11.8664 11V9H10.5344V11V13H11.8664V11ZM10.5344 11V9C10.9729 9 11.4941 9.15523 11.9096 9.57079C12.2769 9.93808 12.3947 10.3437 12.4356 10.5478L10.4744 10.94L8.51325 11.3322C8.56206 11.5763 8.6939 12.0119 9.08119 12.3992C9.51675 12.8348 10.0639 13 10.5344 13V11ZM10.4744 10.94L12.4521 10.642L12.3201 9.76599L10.3424 10.064L8.36473 10.362L8.49673 11.238L10.4744 10.94ZM10.3424 10.064V8.064H8.71041V10.064V12.064H10.3424V10.064ZM8.71041 10.064L6.73273 9.76599L6.60073 10.642L8.57841 10.94L10.5561 11.238L10.6881 10.362L8.71041 10.064ZM8.57841 10.94L6.61725 10.5478C6.65806 10.3437 6.7759 9.93808 7.14319 9.57079C7.55875 9.15523 8.07991 9 8.51841 9V11V13C8.9889 13 9.53606 12.8348 9.97162 12.3992C10.3589 12.0119 10.4907 11.5763 10.5396 11.3322L8.57841 10.94ZM8.51841 11V9H7.18641V11V13H8.51841V11ZM7.18641 11V9C7.61182 9 8.2477 9.15505 8.71214 9.73561C9.10841 10.2309 9.13841 10.7463 9.13841 10.94H7.13841H5.13841C5.13841 11.1737 5.1764 11.7191 5.58867 12.2344C6.06911 12.8349 6.729 13 7.18641 13V11ZM8.95041 8.78V10.78H10.1024V8.78V6.78H8.95041V8.78ZM10.1024 8.78L12.0815 8.49124L11.5895 5.11924L9.61041 5.408L7.63136 5.69676L8.12336 9.06876L10.1024 8.78ZM9.61041 5.408L11.5846 5.08786L11.5126 4.64386L9.53841 4.964L7.5642 5.28414L7.6362 5.72814L9.61041 5.408ZM9.53841 4.964L7.54999 4.74904L7.50199 5.19304L9.49041 5.408L11.4788 5.62296L11.5268 5.17896L9.53841 4.964ZM9.49041 5.408L7.51557 5.09174L6.97557 8.46375L8.95041 8.78L10.9252 9.09626L11.4652 5.72425L9.49041 5.408ZM13.2718 10.94L15.233 10.5478L15.2326 10.5461L13.2718 10.94ZM11.6158 2.696L13.5766 2.30212C13.5705 2.27157 13.5637 2.24116 13.5561 2.21093L11.6158 2.696ZM13.0798 2.696L15.0485 2.34353C15.0405 2.29902 15.0311 2.25479 15.0201 2.21093L13.0798 2.696ZM14.0638 8.192L12.0951 8.54447C12.2661 9.49949 13.0978 10.194 14.068 10.192C15.0382 10.1899 15.867 9.49187 16.034 8.53613L14.0638 8.192ZM15.0238 2.696L13.0835 2.21094C13.0719 2.25754 13.0619 2.30454 13.0536 2.35186L15.0238 2.696ZM16.4758 2.696L14.5355 2.21094C14.5275 2.24298 14.5203 2.27521 14.5139 2.30761L16.4758 2.696ZM14.8438 10.94L16.805 11.3322L16.8057 11.3284L14.8438 10.94ZM13.3318 11V9C13.7703 9 14.2915 9.15523 14.707 9.57079C15.0743 9.93808 15.1922 10.3437 15.233 10.5478L13.2718 10.94L11.3107 11.3322C11.3595 11.5763 11.4913 12.0119 11.8786 12.3992C12.3142 12.8348 12.8613 13 13.3318 13V11ZM13.2718 10.94L15.2326 10.5461L13.5766 2.30212L11.6158 2.696L9.65498 3.08988L11.311 11.3339L13.2718 10.94ZM11.6158 2.696L13.5561 2.21093C13.6373 2.53576 13.7309 3.37932 13.036 4.07421C12.4682 4.64206 11.7992 4.648 11.6638 4.648V2.648V0.648C11.4884 0.648 10.7914 0.661943 10.2076 1.24579C9.4967 1.95668 9.58632 2.82424 9.67553 3.18107L11.6158 2.696ZM11.6638 2.648V4.648H13.0198V2.648V0.648H11.6638V2.648ZM13.0198 2.648V4.648C12.6976 4.648 12.2351 4.56224 11.8094 4.22174C11.3901 3.88626 11.211 3.46678 11.1395 3.18107L13.0798 2.696L15.0201 2.21093C14.9407 1.89322 14.7476 1.44974 14.3082 1.09826C13.8626 0.741757 13.374 0.648 13.0198 0.648V2.648ZM13.0798 2.696L11.1111 3.04847L12.0951 8.54447L14.0638 8.192L16.0325 7.83953L15.0485 2.34353L13.0798 2.696ZM14.0638 8.192L16.034 8.53613L16.994 3.04013L15.0238 2.696L13.0536 2.35186L12.0936 7.84787L14.0638 8.192ZM15.0238 2.696L16.9641 3.18106C16.8927 3.46678 16.7136 3.88625 16.2942 4.22174C15.8686 4.56224 15.406 4.648 15.0838 4.648V2.648V0.648C14.7296 0.648 14.2411 0.741757 13.7954 1.09826C13.3561 1.44975 13.163 1.89322 13.0835 2.21094L15.0238 2.696ZM15.0838 2.648V4.648H16.4278V2.648V0.648H15.0838V2.648ZM16.4278 2.648V4.648C16.2924 4.648 15.6234 4.64206 15.0556 4.07421C14.3607 3.37932 14.4543 2.53577 14.5355 2.21094L16.4758 2.696L18.4161 3.18106C18.5053 2.82423 18.5949 1.95668 17.884 1.24579C17.3002 0.661943 16.6032 0.648 16.4278 0.648V2.648ZM16.4758 2.696L14.5139 2.30761L12.8819 10.5516L14.8438 10.94L16.8057 11.3284L18.4377 3.08439L16.4758 2.696ZM14.8438 10.94L12.8827 10.5478C12.9235 10.3437 13.0413 9.93808 13.4086 9.57078C13.8242 9.15523 14.3453 9 14.7838 9V11V13C15.2543 13 15.8015 12.8348 16.237 12.3992C16.6243 12.0119 16.7562 11.5763 16.805 11.3322L14.8438 10.94ZM14.7838 11V9H13.3318V11V13H14.7838V11ZM17.1792 10.94L15.1792 10.9371V10.94H17.1792ZM17.1912 2.696L19.1912 2.69891V2.696H17.1912ZM18.6312 4.1V2.1C17.5266 2.1 16.6312 2.99543 16.6312 4.1H18.6312ZM18.6312 5.972H16.6312C16.6312 7.07657 17.5266 7.972 18.6312 7.972V5.972ZM21.1392 6.02H19.1392C19.1392 6.0259 19.1392 6.0318 19.1393 6.0377L21.1392 6.02ZM21.1512 7.376H23.1512C23.1512 7.3701 23.1512 7.3642 23.1511 7.3583L21.1512 7.376ZM18.6312 7.424V5.424C17.5266 5.424 16.6312 6.31943 16.6312 7.424H18.6312ZM18.6312 9.524H16.6312C16.6312 10.6286 17.5266 11.524 18.6312 11.524V9.524ZM17.2272 11V9C17.6526 9 18.2885 9.15505 18.753 9.73561C19.1492 10.2309 19.1792 10.7463 19.1792 10.94H17.1792H15.1792C15.1792 11.1737 15.2172 11.7191 15.6295 12.2344C16.1099 12.8349 16.7698 13 17.2272 13V11ZM17.1792 10.94L19.1792 10.9429L19.1912 2.69891L17.1912 2.696L15.1912 2.69309L15.1792 10.9371L17.1792 10.94ZM17.1912 2.696H19.1912C19.1912 2.98829 19.1168 3.57485 18.6174 4.07421C18.1181 4.57357 17.5315 4.648 17.2392 4.648V2.648V0.648C16.9149 0.648 16.3044 0.730427 15.789 1.24579C15.2736 1.76115 15.1912 2.37171 15.1912 2.696H17.1912ZM17.2392 2.648V4.648H21.0912V2.648V0.648H17.2392V2.648ZM21.0912 2.648V4.648C20.6658 4.648 20.0299 4.49294 19.5655 3.91239C19.1692 3.41705 19.1392 2.90168 19.1392 2.708H21.1392H23.1392C23.1392 2.47432 23.1012 1.92895 22.689 1.41361C22.2085 0.813055 21.5486 0.648 21.0912 0.648V2.648ZM21.1392 2.708H19.1392V4.052H21.1392H23.1392V2.708H21.1392ZM21.1392 4.052H19.1392C19.1392 3.75971 19.2136 3.17315 19.713 2.67379C20.2124 2.17443 20.7989 2.1 21.0912 2.1V4.1V6.1C21.4155 6.1 22.0261 6.01757 22.5414 5.50221C23.0568 4.98685 23.1392 4.37629 23.1392 4.052H21.1392ZM21.0912 4.1V2.1H18.6312V4.1V6.1H21.0912V4.1ZM18.6312 4.1H16.6312V5.972H18.6312H20.6312V4.1H18.6312ZM18.6312 5.972V7.972H21.0912V5.972V3.972H18.6312V5.972ZM21.0912 5.972V7.972C20.7989 7.972 20.2124 7.89757 19.713 7.39821C19.2136 6.89885 19.1392 6.31229 19.1392 6.02H21.1392H23.1392C23.1392 5.69571 23.0568 5.08515 22.5414 4.56979C22.0261 4.05443 21.4155 3.972 21.0912 3.972V5.972ZM21.1392 6.02L19.1393 6.0377L19.1513 7.3937L21.1512 7.376L23.1511 7.3583L23.1391 6.0023L21.1392 6.02ZM21.1512 7.376H19.1512C19.1512 7.08371 19.2256 6.49715 19.725 5.99779C20.2244 5.49843 20.8109 5.424 21.1032 5.424V7.424V9.424C21.4275 9.424 22.0381 9.34157 22.5534 8.82621C23.0688 8.31085 23.1512 7.70029 23.1512 7.376H21.1512ZM21.1032 7.424V5.424H18.6312V7.424V9.424H21.1032V7.424ZM18.6312 7.424H16.6312V9.524H18.6312H20.6312V7.424H18.6312ZM18.6312 9.524V11.524H21.1032V9.524V7.524H18.6312V9.524ZM21.1032 9.524V11.524C20.6778 11.524 20.0419 11.3689 19.5775 10.7884C19.1812 10.2931 19.1512 9.77769 19.1512 9.584H21.1512H23.1512C23.1512 9.35032 23.1132 8.80494 22.701 8.28961C22.2205 7.68905 21.5606 7.524 21.1032 7.524V9.524ZM21.1512 9.584H19.1512V10.952H21.1512H23.1512V9.584H21.1512ZM21.1512 10.952H19.1512C19.1512 10.6597 19.2256 10.0731 19.725 9.57378C20.2244 9.07443 20.8109 9 21.1032 9V11V13C21.4275 13 22.0381 12.9176 22.5534 12.4022C23.0688 11.8869 23.1512 11.2763 23.1512 10.952H21.1512ZM21.1032 11V9H17.2272V11V13H21.1032V11ZM24.2515 8.732L22.2598 8.91385C22.2663 8.98447 22.2765 9.0547 22.2904 9.12423L24.2515 8.732ZM23.9995 5.972H21.9995C21.9995 6.03271 22.0023 6.09339 22.0078 6.15385L23.9995 5.972ZM25.4515 2.708L27.4515 2.71535V2.708H25.4515ZM25.4395 5.972L27.4312 6.15385C27.4365 6.09583 27.4393 6.03761 27.4395 5.97935L25.4395 5.972ZM25.1875 8.732L27.1487 9.12423C27.1626 9.0547 27.1728 8.98447 27.1792 8.91385L25.1875 8.732ZM24.3115 8.792V6.792C24.75 6.792 25.2712 6.94723 25.6867 7.36279C26.054 7.73008 26.1719 8.13568 26.2127 8.33977L24.2515 8.732L22.2904 9.12423C22.3392 9.36832 22.471 9.80392 22.8583 10.1912C23.2939 10.6268 23.841 10.792 24.3115 10.792V8.792ZM24.2515 8.732L26.2432 8.55015L25.9912 5.79015L23.9995 5.972L22.0078 6.15385L22.2598 8.91385L24.2515 8.732ZM23.9995 5.972H25.9995V2.708H23.9995H21.9995V5.972H23.9995ZM23.9995 2.708H25.9995C25.9995 2.90168 25.9695 3.41705 25.5733 3.91239C25.1088 4.49295 24.4729 4.648 24.0475 4.648V2.648V0.648C23.5901 0.648 22.9302 0.813052 22.4498 1.41361C22.0375 1.92895 21.9995 2.47431 21.9995 2.708H23.9995ZM24.0475 2.648V4.648H25.3915V2.648V0.648H24.0475V2.648ZM25.3915 2.648V4.648C25.1032 4.648 24.5197 4.57457 24.0223 4.07722C23.525 3.57986 23.4515 2.99629 23.4515 2.708H25.4515H27.4515C27.4515 2.37971 27.3681 1.76614 26.8507 1.24878C26.3334 0.731425 25.7198 0.648 25.3915 0.648V2.648ZM25.4515 2.708L23.4515 2.70065L23.4395 5.96465L25.4395 5.972L27.4395 5.97935L27.4515 2.71535L25.4515 2.708ZM25.4395 5.972L23.4478 5.79015L23.1958 8.55015L25.1875 8.732L27.1792 8.91385L27.4312 6.15385L25.4395 5.972ZM25.1875 8.732L23.2264 8.33977C23.2672 8.13568 23.385 7.73008 23.7523 7.36278C24.1679 6.94723 24.689 6.792 25.1275 6.792V8.792V10.792C25.598 10.792 26.1452 10.6268 26.5807 10.1912C26.968 9.80392 27.0999 9.36832 27.1487 9.12423L25.1875 8.732ZM25.1275 8.792V6.792H24.3115V8.792V10.792H25.1275V8.792ZM24.0475 11V9C24.4729 9 25.1088 9.15505 25.5733 9.73561C25.9695 10.2309 25.9995 10.7463 25.9995 10.94H23.9995H21.9995C21.9995 11.1737 22.0375 11.7191 22.4498 12.2344C22.9302 12.8349 23.5901 13 24.0475 13V11ZM23.9995 10.94H25.9995V9.632H23.9995H21.9995V10.94H23.9995ZM23.9995 9.632H25.9995C25.9995 9.92429 25.9251 10.5109 25.4257 11.0102C24.9264 11.5096 24.3398 11.584 24.0475 11.584V9.584V7.584C23.7232 7.584 23.1127 7.66643 22.5973 8.18179C22.082 8.69715 21.9995 9.30771 21.9995 9.632H23.9995ZM24.0475 9.584V11.584H25.3915V9.584V7.584H24.0475V9.584ZM25.3915 9.584V11.584C25.0992 11.584 24.5127 11.5096 24.0133 11.0102C23.514 10.5109 23.4395 9.92429 23.4395 9.632H25.4395H27.4395C27.4395 9.30771 27.3571 8.69714 26.8417 8.18179C26.3264 7.66643 25.7158 7.584 25.3915 7.584V9.584ZM25.4395 9.632H23.4395V10.94H25.4395H27.4395V9.632H25.4395ZM25.4395 10.94H23.4395C23.4395 10.7463 23.4695 10.2309 23.8658 9.73561C24.3302 9.15505 24.9661 9 25.3915 9V11V13C25.8489 13 26.5088 12.8349 26.9893 12.2344C27.4015 11.7191 27.4395 11.1737 27.4395 10.94H25.4395ZM25.3915 11V9H24.0475V11V13H25.3915V11Z" fill="black" mask="url(#path-1-outside-1_1010_5)"/>
<path d="M4.35206 11.12C3.91206 11.12 3.51206 11.012 3.15206 10.796C2.80006 10.572 2.52006 10.276 2.31206 9.908C2.10406 9.54 2.00006 9.128 2.00006 8.672L2.01206 4.928C2.01206 4.488 2.11206 4.088 2.31206 3.728C2.52006 3.36 2.80006 3.068 3.15206 2.852C3.51206 2.628 3.91206 2.516 4.35206 2.516C4.79206 2.516 5.18806 2.624 5.54006 2.84C5.89206 3.056 6.17206 3.348 6.38006 3.716C6.58806 4.076 6.69206 4.48 6.69206 4.928V5.48C6.69206 5.512 6.67606 5.528 6.64406 5.528H5.30006C5.26806 5.528 5.25206 5.512 5.25206 5.48V4.928C5.25206 4.664 5.16406 4.436 4.98806 4.244C4.82006 4.052 4.60806 3.956 4.35206 3.956C4.06406 3.956 3.84406 4.056 3.69206 4.256C3.54006 4.448 3.46406 4.672 3.46406 4.928V8.672C3.46406 8.968 3.54806 9.208 3.71606 9.392C3.89206 9.576 4.10406 9.668 4.35206 9.668C4.60806 9.668 4.82006 9.568 4.98806 9.368C5.16406 9.16 5.25206 8.928 5.25206 8.672V8.12C5.25206 8.088 5.26806 8.072 5.30006 8.072H6.65606C6.68806 8.072 6.70406 8.088 6.70406 8.12V8.672C6.70406 9.128 6.59606 9.54 6.38006 9.908C6.17206 10.276 5.89206 10.572 5.54006 10.796C5.18806 11.012 4.79206 11.12 4.35206 11.12ZM7.13841 10.94L8.62641 2.696C8.63441 2.664 8.65441 2.648 8.68641 2.648H10.4264C10.4584 2.648 10.4784 2.664 10.4864 2.696L11.9144 10.94C11.9224 10.98 11.9064 11 11.8664 11H10.5344C10.5024 11 10.4824 10.98 10.4744 10.94L10.3424 10.064H8.71041L8.57841 10.94C8.57041 10.98 8.55041 11 8.51841 11H7.18641C7.15441 11 7.13841 10.98 7.13841 10.94ZM8.95041 8.78H10.1024L9.61041 5.408L9.53841 4.964L9.49041 5.408L8.95041 8.78ZM13.3318 11C13.2998 11 13.2798 10.98 13.2718 10.94L11.6158 2.696C11.6078 2.664 11.6238 2.648 11.6638 2.648H13.0198C13.0518 2.648 13.0718 2.664 13.0798 2.696L14.0638 8.192L15.0238 2.696C15.0318 2.664 15.0518 2.648 15.0838 2.648H16.4278C16.4678 2.648 16.4838 2.664 16.4758 2.696L14.8438 10.94C14.8358 10.98 14.8158 11 14.7838 11H13.3318ZM17.2272 11C17.1952 11 17.1792 10.98 17.1792 10.94L17.1912 2.696C17.1912 2.664 17.2072 2.648 17.2392 2.648H21.0912C21.1232 2.648 21.1392 2.668 21.1392 2.708V4.052C21.1392 4.084 21.1232 4.1 21.0912 4.1H18.6312V5.972H21.0912C21.1232 5.972 21.1392 5.988 21.1392 6.02L21.1512 7.376C21.1512 7.408 21.1352 7.424 21.1032 7.424H18.6312V9.524H21.1032C21.1352 9.524 21.1512 9.544 21.1512 9.584V10.952C21.1512 10.984 21.1352 11 21.1032 11H17.2272ZM24.3115 8.792C24.2795 8.792 24.2595 8.772 24.2515 8.732L23.9995 5.972V2.708C23.9995 2.668 24.0155 2.648 24.0475 2.648H25.3915C25.4315 2.648 25.4515 2.668 25.4515 2.708L25.4395 5.972L25.1875 8.732C25.1795 8.772 25.1595 8.792 25.1275 8.792H24.3115ZM24.0475 11C24.0155 11 23.9995 10.98 23.9995 10.94V9.632C23.9995 9.6 24.0155 9.584 24.0475 9.584H25.3915C25.4235 9.584 25.4395 9.6 25.4395 9.632V10.94C25.4395 10.98 25.4235 11 25.3915 11H24.0475Z" fill="white"/>
</svg>
