<svg width="41" height="18" viewBox="0 0 41 18" fill="none" xmlns="http://www.w3.org/2000/svg">
<mask id="path-1-outside-1_1010_6" maskUnits="userSpaceOnUse" x="-0.335938" y="-0.86377" width="42" height="17" fill="black">
<rect fill="white" x="-0.335938" y="-0.86377" width="42" height="17"/>
<path d="M4.35206 13.2562C3.91206 13.2562 3.51206 13.1482 3.15206 12.9322C2.80006 12.7082 2.52006 12.4122 2.31206 12.0442C2.10406 11.6762 2.00006 11.2642 2.00006 10.8082L2.01206 7.06423C2.01206 6.62423 2.11206 6.22423 2.31206 5.86423C2.52006 5.49623 2.80006 5.20423 3.15206 4.98823C3.51206 4.76423 3.91206 4.65223 4.35206 4.65223C4.79206 4.65223 5.18806 4.76023 5.54006 4.97623C5.89206 5.19223 6.17206 5.48423 6.38006 5.85223C6.58806 6.21223 6.69206 6.61623 6.69206 7.06423V7.61623C6.69206 7.64823 6.67606 7.66423 6.64406 7.66423H5.30006C5.26806 7.66423 5.25206 7.64823 5.25206 7.61623V7.06423C5.25206 6.80023 5.16406 6.57223 4.98806 6.38023C4.82006 6.18823 4.60806 6.09223 4.35206 6.09223C4.06406 6.09223 3.84406 6.19223 3.69206 6.39223C3.54006 6.58423 3.46406 6.80823 3.46406 7.06423V10.8082C3.46406 11.1042 3.54806 11.3442 3.71606 11.5282C3.89206 11.7122 4.10406 11.8042 4.35206 11.8042C4.60806 11.8042 4.82006 11.7042 4.98806 11.5042C5.16406 11.2962 5.25206 11.0642 5.25206 10.8082V10.2562C5.25206 10.2242 5.26806 10.2082 5.30006 10.2082H6.65606C6.68806 10.2082 6.70406 10.2242 6.70406 10.2562V10.8082C6.70406 11.2642 6.59606 11.6762 6.38006 12.0442C6.17206 12.4122 5.89206 12.7082 5.54006 12.9322C5.18806 13.1482 4.79206 13.2562 4.35206 13.2562ZM7.62956 13.1362C7.59756 13.1362 7.58156 13.1162 7.58156 13.0762L7.59356 4.83223C7.59356 4.80023 7.61356 4.78423 7.65356 4.78423H8.98556C9.02556 4.78423 9.04556 4.80023 9.04556 4.83223L9.03356 8.09623H10.8336V4.83223C10.8336 4.80023 10.8496 4.78423 10.8816 4.78423H12.2136C12.2536 4.78423 12.2736 4.80023 12.2736 4.83223L12.2976 13.0762C12.2976 13.1162 12.2776 13.1362 12.2376 13.1362H10.8936C10.8536 13.1362 10.8336 13.1162 10.8336 13.0762V9.54823H9.03356V13.0762C9.03356 13.1162 9.01756 13.1362 8.98556 13.1362H7.62956ZM12.8689 13.0762L14.3569 4.83223C14.3649 4.80023 14.3849 4.78423 14.4169 4.78423H16.1569C16.1889 4.78423 16.2089 4.80023 16.2169 4.83223L17.6449 13.0762C17.6529 13.1162 17.6369 13.1362 17.5969 13.1362H16.2649C16.2329 13.1362 16.2129 13.1162 16.2049 13.0762L16.0729 12.2002H14.4409L14.3089 13.0762C14.3009 13.1162 14.2809 13.1362 14.2489 13.1362H12.9169C12.8849 13.1362 12.8689 13.1162 12.8689 13.0762ZM14.6809 10.9162H15.8329L15.3409 7.54423L15.2689 7.10023L15.2209 7.54423L14.6809 10.9162ZM18.506 13.1362C18.442 13.1362 18.41 13.1082 18.41 13.0522L18.398 4.88023C18.398 4.81623 18.43 4.78423 18.494 4.78423H19.574L21.602 9.51223L21.542 4.88023C21.542 4.81623 21.578 4.78423 21.65 4.78423H22.838C22.886 4.78423 22.91 4.81623 22.91 4.88023L22.922 13.0642C22.922 13.1122 22.902 13.1362 22.862 13.1362H21.806L19.73 8.72023L19.814 13.0402C19.814 13.1042 19.778 13.1362 19.706 13.1362H18.506ZM24.0124 13.1362C23.9804 13.1362 23.9644 13.1162 23.9644 13.0762L23.9884 4.83223C23.9884 4.80023 24.0044 4.78423 24.0364 4.78423H25.5004C25.5324 4.78423 25.5604 4.80023 25.5844 4.83223L26.6764 6.41623L27.7684 4.83223C27.7924 4.80023 27.8204 4.78423 27.8524 4.78423H29.3284C29.3604 4.78423 29.3764 4.80023 29.3764 4.83223L29.4004 13.0762C29.4004 13.1162 29.3844 13.1362 29.3524 13.1362H27.9964C27.9644 13.1362 27.9484 13.1162 27.9484 13.0762L27.9364 6.95623L26.6764 8.78023L25.4284 6.95623L25.4164 13.0762C25.4164 13.1162 25.4004 13.1362 25.3684 13.1362H24.0124ZM30.4577 13.1362C30.4257 13.1362 30.4097 13.1162 30.4097 13.0762L30.4217 4.83223C30.4217 4.80023 30.4377 4.78423 30.4697 4.78423H34.3217C34.3537 4.78423 34.3697 4.80423 34.3697 4.84423V6.18823C34.3697 6.22023 34.3537 6.23623 34.3217 6.23623H31.8617V8.10823H34.3217C34.3537 8.10823 34.3697 8.12423 34.3697 8.15623L34.3817 9.51223C34.3817 9.54423 34.3657 9.56023 34.3337 9.56023H31.8617V11.6602H34.3337C34.3657 11.6602 34.3817 11.6802 34.3817 11.7202V13.0882C34.3817 13.1202 34.3657 13.1362 34.3337 13.1362H30.4577ZM31.6457 4.17223C31.6057 4.17223 31.5897 4.15623 31.5977 4.12423L32.5577 2.04823C32.5657 2.01623 32.5857 2.00023 32.6177 2.00023H33.9857C34.0337 2.00023 34.0497 2.01623 34.0337 2.04823L32.9177 4.12423C32.9017 4.15623 32.8777 4.17223 32.8457 4.17223H31.6457ZM37.542 10.9282C37.51 10.9282 37.49 10.9082 37.482 10.8682L37.23 8.10823V4.84423C37.23 4.80423 37.246 4.78423 37.278 4.78423H38.622C38.662 4.78423 38.682 4.80423 38.682 4.84423L38.67 8.10823L38.418 10.8682C38.41 10.9082 38.39 10.9282 38.358 10.9282H37.542ZM37.278 13.1362C37.246 13.1362 37.23 13.1162 37.23 13.0762V11.7682C37.23 11.7362 37.246 11.7202 37.278 11.7202H38.622C38.654 11.7202 38.67 11.7362 38.67 11.7682V13.0762C38.67 13.1162 38.654 13.1362 38.622 13.1362H37.278Z"/>
</mask>
<path d="M4.35206 13.2562C3.91206 13.2562 3.51206 13.1482 3.15206 12.9322C2.80006 12.7082 2.52006 12.4122 2.31206 12.0442C2.10406 11.6762 2.00006 11.2642 2.00006 10.8082L2.01206 7.06423C2.01206 6.62423 2.11206 6.22423 2.31206 5.86423C2.52006 5.49623 2.80006 5.20423 3.15206 4.98823C3.51206 4.76423 3.91206 4.65223 4.35206 4.65223C4.79206 4.65223 5.18806 4.76023 5.54006 4.97623C5.89206 5.19223 6.17206 5.48423 6.38006 5.85223C6.58806 6.21223 6.69206 6.61623 6.69206 7.06423V7.61623C6.69206 7.64823 6.67606 7.66423 6.64406 7.66423H5.30006C5.26806 7.66423 5.25206 7.64823 5.25206 7.61623V7.06423C5.25206 6.80023 5.16406 6.57223 4.98806 6.38023C4.82006 6.18823 4.60806 6.09223 4.35206 6.09223C4.06406 6.09223 3.84406 6.19223 3.69206 6.39223C3.54006 6.58423 3.46406 6.80823 3.46406 7.06423V10.8082C3.46406 11.1042 3.54806 11.3442 3.71606 11.5282C3.89206 11.7122 4.10406 11.8042 4.35206 11.8042C4.60806 11.8042 4.82006 11.7042 4.98806 11.5042C5.16406 11.2962 5.25206 11.0642 5.25206 10.8082V10.2562C5.25206 10.2242 5.26806 10.2082 5.30006 10.2082H6.65606C6.68806 10.2082 6.70406 10.2242 6.70406 10.2562V10.8082C6.70406 11.2642 6.59606 11.6762 6.38006 12.0442C6.17206 12.4122 5.89206 12.7082 5.54006 12.9322C5.18806 13.1482 4.79206 13.2562 4.35206 13.2562ZM7.62956 13.1362C7.59756 13.1362 7.58156 13.1162 7.58156 13.0762L7.59356 4.83223C7.59356 4.80023 7.61356 4.78423 7.65356 4.78423H8.98556C9.02556 4.78423 9.04556 4.80023 9.04556 4.83223L9.03356 8.09623H10.8336V4.83223C10.8336 4.80023 10.8496 4.78423 10.8816 4.78423H12.2136C12.2536 4.78423 12.2736 4.80023 12.2736 4.83223L12.2976 13.0762C12.2976 13.1162 12.2776 13.1362 12.2376 13.1362H10.8936C10.8536 13.1362 10.8336 13.1162 10.8336 13.0762V9.54823H9.03356V13.0762C9.03356 13.1162 9.01756 13.1362 8.98556 13.1362H7.62956ZM12.8689 13.0762L14.3569 4.83223C14.3649 4.80023 14.3849 4.78423 14.4169 4.78423H16.1569C16.1889 4.78423 16.2089 4.80023 16.2169 4.83223L17.6449 13.0762C17.6529 13.1162 17.6369 13.1362 17.5969 13.1362H16.2649C16.2329 13.1362 16.2129 13.1162 16.2049 13.0762L16.0729 12.2002H14.4409L14.3089 13.0762C14.3009 13.1162 14.2809 13.1362 14.2489 13.1362H12.9169C12.8849 13.1362 12.8689 13.1162 12.8689 13.0762ZM14.6809 10.9162H15.8329L15.3409 7.54423L15.2689 7.10023L15.2209 7.54423L14.6809 10.9162ZM18.506 13.1362C18.442 13.1362 18.41 13.1082 18.41 13.0522L18.398 4.88023C18.398 4.81623 18.43 4.78423 18.494 4.78423H19.574L21.602 9.51223L21.542 4.88023C21.542 4.81623 21.578 4.78423 21.65 4.78423H22.838C22.886 4.78423 22.91 4.81623 22.91 4.88023L22.922 13.0642C22.922 13.1122 22.902 13.1362 22.862 13.1362H21.806L19.73 8.72023L19.814 13.0402C19.814 13.1042 19.778 13.1362 19.706 13.1362H18.506ZM24.0124 13.1362C23.9804 13.1362 23.9644 13.1162 23.9644 13.0762L23.9884 4.83223C23.9884 4.80023 24.0044 4.78423 24.0364 4.78423H25.5004C25.5324 4.78423 25.5604 4.80023 25.5844 4.83223L26.6764 6.41623L27.7684 4.83223C27.7924 4.80023 27.8204 4.78423 27.8524 4.78423H29.3284C29.3604 4.78423 29.3764 4.80023 29.3764 4.83223L29.4004 13.0762C29.4004 13.1162 29.3844 13.1362 29.3524 13.1362H27.9964C27.9644 13.1362 27.9484 13.1162 27.9484 13.0762L27.9364 6.95623L26.6764 8.78023L25.4284 6.95623L25.4164 13.0762C25.4164 13.1162 25.4004 13.1362 25.3684 13.1362H24.0124ZM30.4577 13.1362C30.4257 13.1362 30.4097 13.1162 30.4097 13.0762L30.4217 4.83223C30.4217 4.80023 30.4377 4.78423 30.4697 4.78423H34.3217C34.3537 4.78423 34.3697 4.80423 34.3697 4.84423V6.18823C34.3697 6.22023 34.3537 6.23623 34.3217 6.23623H31.8617V8.10823H34.3217C34.3537 8.10823 34.3697 8.12423 34.3697 8.15623L34.3817 9.51223C34.3817 9.54423 34.3657 9.56023 34.3337 9.56023H31.8617V11.6602H34.3337C34.3657 11.6602 34.3817 11.6802 34.3817 11.7202V13.0882C34.3817 13.1202 34.3657 13.1362 34.3337 13.1362H30.4577ZM31.6457 4.17223C31.6057 4.17223 31.5897 4.15623 31.5977 4.12423L32.5577 2.04823C32.5657 2.01623 32.5857 2.00023 32.6177 2.00023H33.9857C34.0337 2.00023 34.0497 2.01623 34.0337 2.04823L32.9177 4.12423C32.9017 4.15623 32.8777 4.17223 32.8457 4.17223H31.6457ZM37.542 10.9282C37.51 10.9282 37.49 10.9082 37.482 10.8682L37.23 8.10823V4.84423C37.23 4.80423 37.246 4.78423 37.278 4.78423H38.622C38.662 4.78423 38.682 4.80423 38.682 4.84423L38.67 8.10823L38.418 10.8682C38.41 10.9082 38.39 10.9282 38.358 10.9282H37.542ZM37.278 13.1362C37.246 13.1362 37.23 13.1162 37.23 13.0762V11.7682C37.23 11.7362 37.246 11.7202 37.278 11.7202H38.622C38.654 11.7202 38.67 11.7362 38.67 11.7682V13.0762C38.67 13.1162 38.654 13.1362 38.622 13.1362H37.278Z" fill="white"/>
<path d="M3.15206 12.9322L2.07831 14.6196C2.09311 14.629 2.10803 14.6382 2.12307 14.6472L3.15206 12.9322ZM2.31206 12.0442L0.570937 13.0283H0.570937L2.31206 12.0442ZM2.00006 10.8082L6.24657e-05 10.8018V10.8082H2.00006ZM2.01206 7.06423L4.01206 7.07064V7.06423H2.01206ZM2.31206 5.86423L0.570937 4.88012C0.568525 4.88438 0.566129 4.88866 0.563748 4.89294L2.31206 5.86423ZM3.15206 4.98823L4.19812 6.69291L4.20867 6.68634L3.15206 4.98823ZM5.54006 4.97623L4.49403 6.68088L4.49403 6.68088L5.54006 4.97623ZM6.38006 5.85223L4.63894 6.83634C4.64204 6.84184 4.64517 6.84732 4.64833 6.85279L6.38006 5.85223ZM4.98806 6.38023L3.48291 7.69724C3.49306 7.70884 3.50334 7.72032 3.51376 7.73168L4.98806 6.38023ZM3.69206 6.39223L5.26015 7.63364C5.26833 7.6233 5.27641 7.61289 5.28439 7.6024L3.69206 6.39223ZM3.71606 11.5282L2.23909 12.8768C2.24952 12.8882 2.26009 12.8995 2.27078 12.9107L3.71606 11.5282ZM4.98806 11.5042L3.46128 10.2123L3.45665 10.2178L4.98806 11.5042ZM6.38006 12.0442L4.65523 11.0318C4.64972 11.0412 4.64429 11.0506 4.63894 11.0601L6.38006 12.0442ZM5.54006 12.9322L6.5861 14.6369C6.59538 14.6312 6.60462 14.6254 6.61381 14.6196L5.54006 12.9322ZM4.35206 13.2562V11.2562C4.25636 11.2562 4.21499 11.2376 4.18105 11.2172L3.15206 12.9322L2.12307 14.6472C2.80914 15.0589 3.56777 15.2562 4.35206 15.2562V13.2562ZM3.15206 12.9322L4.22581 11.2449C4.15435 11.1994 4.10198 11.1464 4.05319 11.0601L2.31206 12.0442L0.570937 13.0283C0.938142 13.678 1.44578 14.217 2.07831 14.6196L3.15206 12.9322ZM2.31206 12.0442L4.05319 11.0601C4.02815 11.0158 4.00006 10.9474 4.00006 10.8082H2.00006H6.24657e-05C6.24657e-05 11.5811 0.179978 12.3366 0.570937 13.0283L2.31206 12.0442ZM2.00006 10.8082L4.00005 10.8146L4.01205 7.07064L2.01206 7.06423L0.0120728 7.05782L7.28369e-05 10.8018L2.00006 10.8082ZM2.01206 7.06423H4.01206C4.01206 6.94012 4.03672 6.8781 4.06038 6.83552L2.31206 5.86423L0.563748 4.89294C0.187407 5.57036 0.0120625 6.30834 0.0120625 7.06423H2.01206ZM2.31206 5.86423L4.05319 6.84834C4.09842 6.76831 4.14215 6.7272 4.1981 6.69288L3.15206 4.98823L2.10603 3.28358C1.45797 3.68126 0.9417 4.22415 0.570937 4.88012L2.31206 5.86423ZM3.15206 4.98823L4.20867 6.68634C4.23922 6.66733 4.27073 6.65223 4.35206 6.65223V4.65223V2.65223C3.55339 2.65223 2.78491 2.86113 2.09546 3.29012L3.15206 4.98823ZM4.35206 4.65223V6.65223C4.44797 6.65223 4.47754 6.67076 4.49403 6.68088L5.54006 4.97623L6.5861 3.27159C5.89859 2.8497 5.13615 2.65223 4.35206 2.65223V4.65223ZM5.54006 4.97623L4.49403 6.68088C4.54997 6.7152 4.5937 6.75631 4.63894 6.83634L6.38006 5.85223L8.12119 4.86812C7.75042 4.21215 7.23415 3.66926 6.58609 3.27158L5.54006 4.97623ZM6.38006 5.85223L4.64833 6.85279C4.66703 6.88515 4.69206 6.93939 4.69206 7.06423H6.69206H8.69206C8.69206 6.29307 8.5091 5.53931 8.11179 4.85167L6.38006 5.85223ZM6.69206 7.06423H4.69206V7.61623H6.69206H8.69206V7.06423H6.69206ZM6.69206 7.61623H4.69206C4.69206 7.32394 4.76649 6.73737 5.26585 6.23801C5.76521 5.73866 6.35178 5.66423 6.64406 5.66423V7.66423V9.66423C6.96835 9.66423 7.57891 9.58181 8.09427 9.06645C8.60963 8.55109 8.69206 7.94052 8.69206 7.61623H6.69206ZM6.64406 7.66423V5.66423H5.30006V7.66423V9.66423H6.64406V7.66423ZM5.30006 7.66423V5.66423C5.59235 5.66423 6.17892 5.73866 6.67828 6.23802C7.17764 6.73738 7.25206 7.32394 7.25206 7.61623H5.25206H3.25206C3.25206 7.94052 3.33449 8.55108 3.84985 9.06644C4.36521 9.5818 4.97577 9.66423 5.30006 9.66423V7.66423ZM5.25206 7.61623H7.25206V7.06423H5.25206H3.25206V7.61623H5.25206ZM5.25206 7.06423H7.25206C7.25206 6.30738 6.98155 5.59516 6.46237 5.02878L4.98806 6.38023L3.51376 7.73168C3.44417 7.65577 3.37195 7.54941 3.32022 7.41538C3.26866 7.28181 3.25206 7.15863 3.25206 7.06423H5.25206ZM4.98806 6.38023L6.49322 5.06322C5.94394 4.43548 5.18251 4.09223 4.35206 4.09223V6.09223V8.09223C4.22423 8.09223 4.05619 8.06681 3.87805 7.98614C3.69973 7.90539 3.56869 7.79527 3.48291 7.69724L4.98806 6.38023ZM4.35206 6.09223V4.09223C3.54316 4.09223 2.68879 4.407 2.09974 5.18206L3.69206 6.39223L5.28439 7.6024C5.16818 7.7553 5.00231 7.8954 4.79867 7.98796C4.60375 8.07656 4.4396 8.09223 4.35206 8.09223V6.09223ZM3.69206 6.39223L2.12397 5.15082C1.67887 5.71305 1.46406 6.37963 1.46406 7.06423H3.46406H5.46406C5.46406 7.13682 5.45279 7.2355 5.41502 7.34682C5.37689 7.45922 5.32117 7.55657 5.26015 7.63364L3.69206 6.39223ZM3.46406 7.06423H1.46406V10.8082H3.46406H5.46406V7.06423H3.46406ZM3.46406 10.8082H1.46406C1.46406 11.5039 1.67314 12.2569 2.23909 12.8768L3.71606 11.5282L5.19303 10.1797C5.29473 10.2911 5.36953 10.4203 5.41478 10.5495C5.45818 10.6735 5.46406 10.7674 5.46406 10.8082H3.46406ZM3.71606 11.5282L2.27078 12.9107C2.81272 13.4773 3.542 13.8042 4.35206 13.8042V11.8042V9.80423C4.48168 9.80423 4.64 9.8297 4.80325 9.90054C4.96536 9.97089 5.08407 10.065 5.16135 10.1458L3.71606 11.5282ZM4.35206 11.8042V13.8042C5.21259 13.8042 5.98037 13.4324 6.51947 12.7906L4.98806 11.5042L3.45665 10.2178C3.53699 10.1222 3.66625 10.007 3.84983 9.92037C4.03451 9.83325 4.21259 9.80423 4.35206 9.80423V11.8042ZM4.98806 11.5042L6.51483 12.7961C6.97513 12.2521 7.25206 11.5692 7.25206 10.8082H5.25206H3.25206C3.25206 10.7017 3.27138 10.5827 3.31607 10.4649C3.3601 10.3488 3.41699 10.2647 3.46129 10.2123L4.98806 11.5042ZM5.25206 10.8082H7.25206V10.2562H5.25206H3.25206V10.8082H5.25206ZM5.25206 10.2562H7.25206C7.25206 10.5485 7.17764 11.1351 6.67828 11.6344C6.17892 12.1338 5.59236 12.2082 5.30006 12.2082V10.2082V8.20823C4.97577 8.20823 4.3652 8.29066 3.84984 8.80602C3.33449 9.32138 3.25206 9.93194 3.25206 10.2562H5.25206ZM5.30006 10.2082V12.2082H6.65606V10.2082V8.20823H5.30006V10.2082ZM6.65606 10.2082V12.2082C6.36377 12.2082 5.77721 12.1338 5.27785 11.6344C4.77849 11.1351 4.70406 10.5485 4.70406 10.2562H6.70406H8.70406C8.70406 9.93194 8.62164 9.32138 8.10628 8.80602C7.59092 8.29066 6.98035 8.20823 6.65606 8.20823V10.2082ZM6.70406 10.2562H4.70406V10.8082H6.70406H8.70406V10.2562H6.70406ZM6.70406 10.8082H4.70406C4.70406 10.9336 4.67865 10.9919 4.65523 11.0318L6.38006 12.0442L8.10489 13.0566C8.51348 12.3605 8.70406 11.5948 8.70406 10.8082H6.70406ZM6.38006 12.0442L4.63894 11.0601C4.59014 11.1464 4.53778 11.1994 4.46631 11.2449L5.54006 12.9322L6.61381 14.6196C7.24635 14.217 7.75398 13.678 8.12119 13.0283L6.38006 12.0442ZM5.54006 12.9322L4.49403 11.2276C4.47754 11.2377 4.44797 11.2562 4.35206 11.2562V13.2562V15.2562C5.13615 15.2562 5.89859 15.0588 6.5861 14.6369L5.54006 12.9322ZM7.58156 13.0762L5.58156 13.0733V13.0762H7.58156ZM7.59356 4.83223L9.59356 4.83514V4.83223H7.59356ZM9.04556 4.83223L11.0456 4.83958V4.83223H9.04556ZM9.03356 8.09623L7.03358 8.08888C7.03162 8.62058 7.24147 9.13118 7.61675 9.50784C7.99203 9.88451 8.50186 10.0962 9.03356 10.0962V8.09623ZM10.8336 8.09623V10.0962C11.9381 10.0962 12.8336 9.2008 12.8336 8.09623H10.8336ZM12.2736 4.83223L10.2736 4.83223L10.2736 4.83805L12.2736 4.83223ZM12.2976 13.0762H14.2976L14.2976 13.0704L12.2976 13.0762ZM10.8336 9.54823H12.8336C12.8336 8.44366 11.9381 7.54823 10.8336 7.54823V9.54823ZM9.03356 9.54823V7.54823C7.92899 7.54823 7.03356 8.44366 7.03356 9.54823H9.03356ZM7.62956 13.1362V11.1362C8.05497 11.1362 8.69085 11.2913 9.1553 11.8718C9.55157 12.3672 9.58156 12.8825 9.58156 13.0762H7.58156H5.58156C5.58156 13.3099 5.61956 13.8553 6.03183 14.3706C6.51227 14.9712 7.17215 15.1362 7.62956 15.1362V13.1362ZM7.58156 13.0762L9.58156 13.0791L9.59356 4.83514L7.59356 4.83223L5.59356 4.82932L5.58156 13.0733L7.58156 13.0762ZM7.59356 4.83223H9.59356C9.59356 5.25764 9.43851 5.89352 8.85795 6.35797C8.36262 6.75424 7.84725 6.78423 7.65356 6.78423V4.78423V2.78423C7.41988 2.78423 6.87451 2.82222 6.35917 3.23449C5.75862 3.71494 5.59356 4.37482 5.59356 4.83223H7.59356ZM7.65356 4.78423V6.78423H8.98556V4.78423V2.78423H7.65356V4.78423ZM8.98556 4.78423V6.78423C8.79188 6.78423 8.27651 6.75424 7.78117 6.35797C7.20061 5.89352 7.04556 5.25764 7.04556 4.83223H9.04556H11.0456C11.0456 4.37482 10.8805 3.71494 10.28 3.23449C9.76462 2.82222 9.21925 2.78423 8.98556 2.78423V4.78423ZM9.04556 4.83223L7.04558 4.82488L7.03358 8.08888L9.03356 8.09623L11.0335 8.10358L11.0455 4.83958L9.04556 4.83223ZM9.03356 8.09623V10.0962H10.8336V8.09623V6.09623H9.03356V8.09623ZM10.8336 8.09623H12.8336V4.83223H10.8336H8.83356V8.09623H10.8336ZM10.8336 4.83223H12.8336C12.8336 5.12452 12.7591 5.71108 12.2598 6.21044C11.7604 6.7098 11.1739 6.78423 10.8816 6.78423V4.78423V2.78423C10.5573 2.78423 9.94671 2.86666 9.43135 3.38202C8.91599 3.89738 8.83356 4.50794 8.83356 4.83223H10.8336ZM10.8816 4.78423V6.78423H12.2136V4.78423V2.78423H10.8816V4.78423ZM12.2136 4.78423V6.78423C12.0199 6.78423 11.5045 6.75424 11.0092 6.35797C10.4286 5.89352 10.2736 5.25764 10.2736 4.83223H12.2736H14.2736C14.2736 4.37482 14.1085 3.71494 13.508 3.23449C12.9926 2.82222 12.4472 2.78423 12.2136 2.78423V4.78423ZM12.2736 4.83223L10.2736 4.83805L10.2976 13.0821L12.2976 13.0762L14.2976 13.0704L14.2736 4.82641L12.2736 4.83223ZM12.2976 13.0762H10.2976C10.2976 12.7879 10.371 12.2044 10.8683 11.707C11.3657 11.2097 11.9493 11.1362 12.2376 11.1362V13.1362V15.1362C12.5659 15.1362 13.1794 15.0528 13.6968 14.5354C14.2141 14.0181 14.2976 13.4045 14.2976 13.0762H12.2976ZM12.2376 13.1362V11.1362H10.8936V13.1362V15.1362H12.2376V13.1362ZM10.8936 13.1362V11.1362C11.1819 11.1362 11.7654 11.2097 12.2628 11.707C12.7601 12.2044 12.8336 12.7879 12.8336 13.0762H10.8336H8.83356C8.83356 13.4045 8.91699 14.0181 9.43435 14.5354C9.95171 15.0528 10.5653 15.1362 10.8936 15.1362V13.1362ZM10.8336 13.0762H12.8336V9.54823H10.8336H8.83356V13.0762H10.8336ZM10.8336 9.54823V7.54823H9.03356V9.54823V11.5482H10.8336V9.54823ZM9.03356 9.54823H7.03356V13.0762H9.03356H11.0336V9.54823H9.03356ZM9.03356 13.0762H7.03356C7.03356 12.8825 7.06356 12.3672 7.45983 11.8718C7.92427 11.2913 8.56015 11.1362 8.98556 11.1362V13.1362V15.1362C9.44297 15.1362 10.1029 14.9712 10.5833 14.3706C10.9956 13.8553 11.0336 13.3099 11.0336 13.0762H9.03356ZM8.98556 13.1362V11.1362H7.62956V13.1362V15.1362H8.98556V13.1362ZM12.8689 13.0762L10.9007 12.721C10.8795 12.8382 10.8689 12.9571 10.8689 13.0762H12.8689ZM14.3569 4.83223L12.4166 4.34716C12.4059 4.39011 12.3965 4.43341 12.3887 4.47698L14.3569 4.83223ZM16.2169 4.83223L18.1875 4.49088C18.1792 4.44261 18.169 4.39467 18.1572 4.34715L16.2169 4.83223ZM17.6449 13.0762L15.6742 13.4176C15.6772 13.4346 15.6803 13.4515 15.6837 13.4685L17.6449 13.0762ZM16.2049 13.0762L14.2272 13.3742C14.232 13.4058 14.2375 13.4372 14.2437 13.4685L16.2049 13.0762ZM16.0729 12.2002L18.0505 11.9022C17.9031 10.9238 17.0624 10.2002 16.0729 10.2002V12.2002ZM14.4409 12.2002V10.2002C13.4514 10.2002 12.6106 10.9238 12.4632 11.9022L14.4409 12.2002ZM14.3089 13.0762L16.27 13.4685C16.2763 13.4372 16.2818 13.4058 16.2865 13.3742L14.3089 13.0762ZM14.6809 10.9162L12.706 10.6C12.6134 11.1783 12.779 11.7681 13.1589 12.2138C13.5389 12.6595 14.0952 12.9162 14.6809 12.9162V10.9162ZM15.8329 10.9162V12.9162C16.4137 12.9162 16.9658 12.6637 17.3457 12.2244C17.7256 11.785 17.8958 11.2022 17.8119 10.6275L15.8329 10.9162ZM15.3409 7.54423L17.3199 7.25547C17.3184 7.245 17.3168 7.23454 17.3151 7.22409L15.3409 7.54423ZM15.2689 7.10023L17.2431 6.78009C17.0828 5.79187 16.2166 5.07437 15.2158 5.10093C14.215 5.1275 13.3881 5.88993 13.2805 6.88527L15.2689 7.10023ZM15.2209 7.54423L17.1957 7.86049C17.2011 7.82684 17.2056 7.79307 17.2093 7.75919L15.2209 7.54423ZM12.8689 13.0762L14.8371 13.4315L16.3251 5.18748L14.3569 4.83223L12.3887 4.47698L10.9007 12.721L12.8689 13.0762ZM14.3569 4.83223L16.2972 5.3173C16.2257 5.60301 16.0466 6.02249 15.6273 6.35797C15.2016 6.69847 14.7391 6.78423 14.4169 6.78423V4.78423V2.78423C14.0626 2.78423 13.5741 2.87799 13.1285 3.23449C12.6891 3.58597 12.496 4.02945 12.4166 4.34716L14.3569 4.83223ZM14.4169 4.78423V6.78423H16.1569V4.78423V2.78423H14.4169V4.78423ZM16.1569 4.78423V6.78423C15.8346 6.78423 15.3721 6.69847 14.9465 6.35797C14.5271 6.02249 14.348 5.60302 14.2766 5.31731L16.2169 4.83223L18.1572 4.34715C18.0777 4.02944 17.8846 3.58597 17.4453 3.23449C16.9996 2.87799 16.5111 2.78423 16.1569 2.78423V4.78423ZM16.2169 4.83223L14.2462 5.17358L15.6742 13.4176L17.6449 13.0762L19.6155 12.7349L18.1875 4.49088L16.2169 4.83223ZM17.6449 13.0762L15.6837 13.4685C15.6399 13.2495 15.5436 12.5388 16.0771 11.8718C16.6212 11.1917 17.3533 11.1362 17.5969 11.1362V13.1362V15.1362C17.8804 15.1362 18.6405 15.0707 19.2006 14.3706C19.7502 13.6837 19.6578 12.9429 19.606 12.684L17.6449 13.0762ZM17.5969 13.1362V11.1362H16.2649V13.1362V15.1362H17.5969V13.1362ZM16.2649 13.1362V11.1362C16.7034 11.1362 17.2245 11.2915 17.6401 11.707C18.0074 12.0743 18.1252 12.4799 18.166 12.684L16.2049 13.0762L14.2437 13.4685C14.2925 13.7126 14.4244 14.1482 14.8117 14.5354C15.2472 14.971 15.7944 15.1362 16.2649 15.1362V13.1362ZM16.2049 13.0762L18.1825 12.7782L18.0505 11.9022L16.0729 12.2002L14.0952 12.4982L14.2272 13.3742L16.2049 13.0762ZM16.0729 12.2002V10.2002H14.4409V12.2002V14.2002H16.0729V12.2002ZM14.4409 12.2002L12.4632 11.9022L12.3312 12.7782L14.3089 13.0762L16.2865 13.3742L16.4185 12.4982L14.4409 12.2002ZM14.3089 13.0762L12.3477 12.684C12.3885 12.4799 12.5064 12.0743 12.8737 11.707C13.2892 11.2915 13.8104 11.1362 14.2489 11.1362V13.1362V15.1362C14.7194 15.1362 15.2665 14.971 15.7021 14.5354C16.0894 14.1481 16.2212 13.7126 16.27 13.4685L14.3089 13.0762ZM14.2489 13.1362V11.1362H12.9169V13.1362V15.1362H14.2489V13.1362ZM12.9169 13.1362V11.1362C13.3423 11.1362 13.9782 11.2913 14.4426 11.8718C14.8389 12.3672 14.8689 12.8825 14.8689 13.0762H12.8689H10.8689C10.8689 13.3099 10.9069 13.8553 11.3191 14.3706C11.7996 14.9712 12.4595 15.1362 12.9169 15.1362V13.1362ZM14.6809 10.9162V12.9162H15.8329V10.9162V8.91623H14.6809V10.9162ZM15.8329 10.9162L17.8119 10.6275L17.3199 7.25547L15.3409 7.54423L13.3618 7.83299L13.8538 11.205L15.8329 10.9162ZM15.3409 7.54423L17.3151 7.22409L17.2431 6.78009L15.2689 7.10023L13.2947 7.42037L13.3667 7.86437L15.3409 7.54423ZM15.2689 7.10023L13.2805 6.88527L13.2325 7.32927L15.2209 7.54423L17.2093 7.75919L17.2573 7.31519L15.2689 7.10023ZM15.2209 7.54423L13.246 7.22798L12.706 10.6L14.6809 10.9162L16.6557 11.2325L17.1957 7.86049L15.2209 7.54423ZM18.41 13.0522H20.41L20.41 13.0493L18.41 13.0522ZM18.398 4.88023H16.398L16.398 4.88317L18.398 4.88023ZM19.574 4.78423L21.412 3.99583C21.0967 3.26076 20.3738 2.78423 19.574 2.78423V4.78423ZM21.602 9.51223L19.7639 10.3006C20.1401 11.1777 21.0835 11.6668 22.0171 11.4687C22.9506 11.2706 23.6142 10.4406 23.6018 9.48633L21.602 9.51223ZM21.542 4.88023H19.542C19.542 4.88887 19.542 4.8975 19.5421 4.90613L21.542 4.88023ZM22.91 4.88023H20.91L20.91 4.88316L22.91 4.88023ZM22.922 13.0642H24.922L24.922 13.0613L22.922 13.0642ZM21.806 13.1362L19.996 13.9871C20.3257 14.6885 21.031 15.1362 21.806 15.1362V13.1362ZM19.73 8.72023L21.5399 7.86935C21.1384 7.01514 20.1942 6.55797 19.2751 6.77264C18.3559 6.98732 17.712 7.8154 17.7303 8.75911L19.73 8.72023ZM19.814 13.0402H21.814C21.814 13.0273 21.8138 13.0143 21.8136 13.0013L19.814 13.0402ZM18.506 13.1362V11.1362C18.7215 11.1362 19.2567 11.1776 19.751 11.6101C20.2962 12.0872 20.41 12.6974 20.41 13.0522H18.41H16.41C16.41 13.4631 16.5397 14.1153 17.117 14.6204C17.6432 15.0808 18.2264 15.1362 18.506 15.1362V13.1362ZM18.41 13.0522L20.41 13.0493L20.398 4.87729L18.398 4.88023L16.398 4.88317L16.41 13.0552L18.41 13.0522ZM18.398 4.88023H20.398C20.398 5.15652 20.3275 5.73108 19.8362 6.22244C19.3448 6.7138 18.7703 6.78423 18.494 6.78423V4.78423V2.78423C18.1537 2.78423 17.5311 2.87066 17.0078 3.39402C16.4844 3.91738 16.398 4.53994 16.398 4.88023H18.398ZM18.494 4.78423V6.78423H19.574V4.78423V2.78423H18.494V4.78423ZM19.574 4.78423L17.7359 5.57263L19.7639 10.3006L21.602 9.51223L23.44 8.72383L21.412 3.99583L19.574 4.78423ZM21.602 9.51223L23.6018 9.48633L23.5418 4.85433L21.542 4.88023L19.5421 4.90613L19.6021 9.53813L21.602 9.51223ZM21.542 4.88023H23.542C23.542 5.22153 23.4352 5.82531 22.8977 6.30305C22.4051 6.74088 21.868 6.78423 21.65 6.78423V4.78423V2.78423C21.3599 2.78423 20.7688 2.84358 20.2402 3.31341C19.6668 3.82315 19.542 4.47493 19.542 4.88023H21.542ZM21.65 4.78423V6.78423H22.838V4.78423V2.78423H21.65V4.78423ZM22.838 4.78423V6.78423C22.374 6.78423 21.7352 6.59922 21.292 6.00823C20.9299 5.52544 20.91 5.04054 20.91 4.88023H22.91H24.91C24.91 4.65592 24.8781 4.12302 24.492 3.60823C24.0247 2.98524 23.35 2.78423 22.838 2.78423V4.78423ZM22.91 4.88023L20.91 4.88316L20.922 13.0672L22.922 13.0642L24.922 13.0613L24.91 4.8773L22.91 4.88023ZM22.922 13.0642H20.922C20.922 12.8597 20.957 12.3341 21.3705 11.8379C21.8422 11.2718 22.4681 11.1362 22.862 11.1362V13.1362V15.1362C23.2958 15.1362 23.9517 14.9886 24.4434 14.3986C24.8769 13.8784 24.922 13.3167 24.922 13.0642H22.922ZM22.862 13.1362V11.1362H21.806V13.1362V15.1362H22.862V13.1362ZM21.806 13.1362L23.6159 12.2853L21.5399 7.86935L19.73 8.72023L17.92 9.57111L19.996 13.9871L21.806 13.1362ZM19.73 8.72023L17.7303 8.75911L17.8143 13.0791L19.814 13.0402L21.8136 13.0013L21.7296 8.68135L19.73 8.72023ZM19.814 13.0402H17.814C17.814 12.6989 17.9208 12.0951 18.4582 11.6174C18.9508 11.1796 19.4879 11.1362 19.706 11.1362V13.1362V15.1362C19.996 15.1362 20.5871 15.0769 21.1157 14.607C21.6891 14.0973 21.814 13.4455 21.814 13.0402H19.814ZM19.706 13.1362V11.1362H18.506V13.1362V15.1362H19.706V13.1362ZM23.9644 13.0762L21.9644 13.0704V13.0762H23.9644ZM23.9884 4.83223L25.9884 4.83805V4.83223H23.9884ZM25.5844 4.83223L27.231 3.69706C27.2159 3.67514 27.2003 3.65353 27.1844 3.63223L25.5844 4.83223ZM26.6764 6.41623L25.0297 7.5514C25.403 8.09289 26.0187 8.41623 26.6764 8.41623C27.3341 8.41623 27.9497 8.09289 28.323 7.5514L26.6764 6.41623ZM27.7684 4.83223L26.1684 3.63223C26.1524 3.65353 26.1369 3.67514 26.1217 3.69706L27.7684 4.83223ZM29.3764 4.83223L27.3764 4.83223L27.3764 4.83805L29.3764 4.83223ZM29.4004 13.0762H31.4004L31.4004 13.0704L29.4004 13.0762ZM27.9484 13.0762H29.9484L29.9484 13.0723L27.9484 13.0762ZM27.9364 6.95623L29.9364 6.95231C29.9347 6.0778 29.365 5.30582 28.5299 5.04631C27.6947 4.78681 26.7879 5.09997 26.2908 5.8195L27.9364 6.95623ZM26.6764 8.78023L25.0258 9.9096C25.3977 10.4531 26.0133 10.7788 26.6719 10.7802C27.3305 10.7817 27.9476 10.4588 28.3219 9.91696L26.6764 8.78023ZM25.4284 6.95623L27.079 5.82686C26.5842 5.10376 25.6764 4.78687 24.8392 5.04499C24.0019 5.30312 23.4301 6.07615 23.4284 6.95231L25.4284 6.95623ZM25.4164 13.0762L23.4164 13.0723V13.0762H25.4164ZM24.0124 13.1362V11.1362C24.4378 11.1362 25.0737 11.2913 25.5381 11.8718C25.9344 12.3672 25.9644 12.8825 25.9644 13.0762H23.9644H21.9644C21.9644 13.3099 22.0024 13.8553 22.4146 14.3706C22.8951 14.9712 23.555 15.1362 24.0124 15.1362V13.1362ZM23.9644 13.0762L25.9644 13.0821L25.9884 4.83805L23.9884 4.83223L21.9884 4.82641L21.9644 13.0704L23.9644 13.0762ZM23.9884 4.83223H25.9884C25.9884 5.12452 25.9139 5.71108 25.4146 6.21044C24.9152 6.7098 24.3287 6.78423 24.0364 6.78423V4.78423V2.78423C23.7121 2.78423 23.1015 2.86666 22.5862 3.38202C22.0708 3.89738 21.9884 4.50794 21.9884 4.83223H23.9884ZM24.0364 4.78423V6.78423H25.5004V4.78423V2.78423H24.0364V4.78423ZM25.5004 4.78423V6.78423C25.1655 6.78423 24.8388 6.69599 24.5531 6.53272C24.2804 6.37686 24.098 6.18372 23.9844 6.03223L25.5844 4.83223L27.1844 3.63223C26.8874 3.23627 26.3181 2.78423 25.5004 2.78423V4.78423ZM25.5844 4.83223L23.9377 5.9674L25.0297 7.5514L26.6764 6.41623L28.323 5.28106L27.231 3.69706L25.5844 4.83223ZM26.6764 6.41623L28.323 7.5514L29.415 5.9674L27.7684 4.83223L26.1217 3.69706L25.0297 5.28106L26.6764 6.41623ZM27.7684 4.83223L29.3684 6.03223C29.2548 6.18371 29.0724 6.37686 28.7997 6.53272C28.5139 6.69599 28.1873 6.78423 27.8524 6.78423V4.78423V2.78423C27.0347 2.78423 26.4653 3.23627 26.1684 3.63223L27.7684 4.83223ZM27.8524 4.78423V6.78423H29.3284V4.78423V2.78423H27.8524V4.78423ZM29.3284 4.78423V6.78423C29.0361 6.78423 28.4495 6.7098 27.9502 6.21044C27.4508 5.71108 27.3764 5.12452 27.3764 4.83223H29.3764H31.3764C31.3764 4.50794 31.2939 3.89738 30.7786 3.38202C30.2632 2.86666 29.6527 2.78423 29.3284 2.78423V4.78423ZM29.3764 4.83223L27.3764 4.83805L27.4004 13.0821L29.4004 13.0762L31.4004 13.0704L31.3764 4.82641L29.3764 4.83223ZM29.4004 13.0762H27.4004C27.4004 12.8825 27.4304 12.3672 27.8266 11.8718C28.2911 11.2913 28.927 11.1362 29.3524 11.1362V13.1362V15.1362C29.8098 15.1362 30.4697 14.9712 30.9501 14.3706C31.3624 13.8553 31.4004 13.3099 31.4004 13.0762H29.4004ZM29.3524 13.1362V11.1362H27.9964V13.1362V15.1362H29.3524V13.1362ZM27.9964 13.1362V11.1362C28.4218 11.1362 29.0577 11.2913 29.5221 11.8718C29.9184 12.3672 29.9484 12.8825 29.9484 13.0762H27.9484H25.9484C25.9484 13.3099 25.9864 13.8553 26.3986 14.3706C26.8791 14.9712 27.539 15.1362 27.9964 15.1362V13.1362ZM27.9484 13.0762L29.9484 13.0723L29.9364 6.95231L27.9364 6.95623L25.9364 6.96015L25.9484 13.0802L27.9484 13.0762ZM27.9364 6.95623L26.2908 5.8195L25.0308 7.6435L26.6764 8.78023L28.3219 9.91696L29.5819 8.09296L27.9364 6.95623ZM26.6764 8.78023L28.327 7.65086L27.079 5.82686L25.4284 6.95623L23.7778 8.0856L25.0258 9.9096L26.6764 8.78023ZM25.4284 6.95623L23.4284 6.95231L23.4164 13.0723L25.4164 13.0762L27.4164 13.0802L27.4284 6.96015L25.4284 6.95623ZM25.4164 13.0762H23.4164C23.4164 12.8825 23.4464 12.3672 23.8426 11.8718C24.3071 11.2913 24.943 11.1362 25.3684 11.1362V13.1362V15.1362C25.8258 15.1362 26.4857 14.9712 26.9661 14.3706C27.3784 13.8553 27.4164 13.3099 27.4164 13.0762H25.4164ZM25.3684 13.1362V11.1362H24.0124V13.1362V15.1362H25.3684V13.1362ZM30.4097 13.0762L28.4097 13.0733V13.0762H30.4097ZM30.4217 4.83223L32.4217 4.83514V4.83223H30.4217ZM31.8617 6.23623V4.23623C30.7571 4.23623 29.8617 5.13166 29.8617 6.23623H31.8617ZM31.8617 8.10823H29.8617C29.8617 9.2128 30.7571 10.1082 31.8617 10.1082V8.10823ZM34.3697 8.15623H32.3697C32.3697 8.16213 32.3697 8.16803 32.3698 8.17393L34.3697 8.15623ZM34.3817 9.51223H36.3817C36.3817 9.50633 36.3817 9.50043 36.3816 9.49453L34.3817 9.51223ZM31.8617 9.56023V7.56023C30.7571 7.56023 29.8617 8.45566 29.8617 9.56023H31.8617ZM31.8617 11.6602H29.8617C29.8617 12.7648 30.7571 13.6602 31.8617 13.6602V11.6602ZM31.5977 4.12423L29.7824 3.28478C29.7297 3.39872 29.6878 3.51737 29.6574 3.63916L31.5977 4.12423ZM32.5577 2.04823L34.373 2.88768C34.4257 2.77374 34.4675 2.65509 34.498 2.5333L32.5577 2.04823ZM34.0337 2.04823L35.7953 2.99522C35.8046 2.97783 35.8137 2.96031 35.8225 2.94266L34.0337 2.04823ZM32.9177 4.12423L31.1561 3.17725C31.1467 3.19463 31.1377 3.21215 31.1288 3.2298L32.9177 4.12423ZM30.4577 13.1362V11.1362C30.8831 11.1362 31.519 11.2913 31.9834 11.8718C32.3797 12.3672 32.4097 12.8825 32.4097 13.0762H30.4097H28.4097C28.4097 13.3099 28.4477 13.8553 28.8599 14.3706C29.3404 14.9712 30.0003 15.1362 30.4577 15.1362V13.1362ZM30.4097 13.0762L32.4097 13.0791L32.4217 4.83514L30.4217 4.83223L28.4217 4.82932L28.4097 13.0733L30.4097 13.0762ZM30.4217 4.83223H32.4217C32.4217 5.12452 32.3473 5.71108 31.8479 6.21044C31.3485 6.7098 30.762 6.78423 30.4697 6.78423V4.78423V2.78423C30.1454 2.78423 29.5348 2.86666 29.0195 3.38202C28.5041 3.89738 28.4217 4.50794 28.4217 4.83223H30.4217ZM30.4697 4.78423V6.78423H34.3217V4.78423V2.78423H30.4697V4.78423ZM34.3217 4.78423V6.78423C33.8963 6.78423 33.2604 6.62917 32.7959 6.04862C32.3997 5.55328 32.3697 5.03791 32.3697 4.84423H34.3697H36.3697C36.3697 4.61055 36.3317 4.06518 35.9194 3.54984C35.439 2.94929 34.7791 2.78423 34.3217 2.78423V4.78423ZM34.3697 4.84423H32.3697V6.18823H34.3697H36.3697V4.84423H34.3697ZM34.3697 6.18823H32.3697C32.3697 5.89594 32.4441 5.30938 32.9435 4.81002C33.4428 4.31066 34.0294 4.23623 34.3217 4.23623V6.23623V8.23623C34.646 8.23623 35.2565 8.1538 35.7719 7.63844C36.2873 7.12308 36.3697 6.51252 36.3697 6.18823H34.3697ZM34.3217 6.23623V4.23623H31.8617V6.23623V8.23623H34.3217V6.23623ZM31.8617 6.23623H29.8617V8.10823H31.8617H33.8617V6.23623H31.8617ZM31.8617 8.10823V10.1082H34.3217V8.10823V6.10823H31.8617V8.10823ZM34.3217 8.10823V10.1082C34.0294 10.1082 33.4428 10.0338 32.9435 9.53444C32.4441 9.03508 32.3697 8.44852 32.3697 8.15623H34.3697H36.3697C36.3697 7.83194 36.2873 7.22138 35.7719 6.70602C35.2565 6.19066 34.646 6.10823 34.3217 6.10823V8.10823ZM34.3697 8.15623L32.3698 8.17393L32.3818 9.52993L34.3817 9.51223L36.3816 9.49453L36.3696 8.13853L34.3697 8.15623ZM34.3817 9.51223H32.3817C32.3817 9.21994 32.4561 8.63338 32.9555 8.13402C33.4548 7.63466 34.0414 7.56023 34.3337 7.56023V9.56023V11.5602C34.658 11.5602 35.2685 11.4778 35.7839 10.9624C36.2993 10.4471 36.3817 9.83652 36.3817 9.51223H34.3817ZM34.3337 9.56023V7.56023H31.8617V9.56023V11.5602H34.3337V9.56023ZM31.8617 9.56023H29.8617V11.6602H31.8617H33.8617V9.56023H31.8617ZM31.8617 11.6602V13.6602H34.3337V11.6602V9.66023H31.8617V11.6602ZM34.3337 11.6602V13.6602C33.9083 13.6602 33.2724 13.5052 32.808 12.9246C32.4117 12.4293 32.3817 11.9139 32.3817 11.7202H34.3817H36.3817C36.3817 11.4865 36.3437 10.9412 35.9314 10.4258C35.451 9.82528 34.7911 9.66023 34.3337 9.66023V11.6602ZM34.3817 11.7202H32.3817V13.0882H34.3817H36.3817V11.7202H34.3817ZM34.3817 13.0882H32.3817C32.3817 12.7959 32.4561 12.2094 32.9555 11.71C33.4548 11.2107 34.0414 11.1362 34.3337 11.1362V13.1362V15.1362C34.658 15.1362 35.2685 15.0538 35.7839 14.5384C36.2993 14.0231 36.3817 13.4125 36.3817 13.0882H34.3817ZM34.3337 13.1362V11.1362H30.4577V13.1362V15.1362H34.3337V13.1362ZM31.6457 4.17223V2.17223C31.7811 2.17223 32.4501 2.17817 33.0179 2.74602C33.7128 3.44091 33.6192 4.28447 33.538 4.6093L31.5977 4.12423L29.6574 3.63916C29.5682 3.99599 29.4786 4.86355 30.1895 5.57444C30.7733 6.15829 31.4703 6.17223 31.6457 6.17223V4.17223ZM31.5977 4.12423L33.413 4.96368L34.373 2.88768L32.5577 2.04823L30.7424 1.20878L29.7824 3.28478L31.5977 4.12423ZM32.5577 2.04823L34.498 2.5333C34.4265 2.81901 34.2474 3.23849 33.8281 3.57397C33.4024 3.91447 32.9399 4.00023 32.6177 4.00023V2.00023V0.000229836C32.2635 0.000229836 31.7749 0.0939884 31.3293 0.450495C30.8899 0.801973 30.6968 1.24545 30.6174 1.56316L32.5577 2.04823ZM32.6177 2.00023V4.00023H33.9857V2.00023V0.000229836H32.6177V2.00023ZM33.9857 2.00023V4.00023C33.9012 4.00023 33.7352 3.99467 33.5306 3.94351C33.3381 3.89539 32.9632 3.77018 32.6195 3.42644C32.2239 3.03084 32.0397 2.51595 32.0397 2.02723C32.0397 1.60797 32.1725 1.29845 32.2448 1.1538L34.0337 2.04823L35.8225 2.94266C35.9537 2.68031 36.3953 1.54542 35.4479 0.598022C35.0962 0.246282 34.7093 0.11507 34.5008 0.0629454C34.2802 0.00779343 34.0942 0.000229836 33.9857 0.000229836V2.00023ZM34.0337 2.04823L32.2721 1.10124L31.1561 3.17725L32.9177 4.12423L34.6793 5.07121L35.7953 2.99522L34.0337 2.04823ZM32.9177 4.12423L31.1288 3.2298C31.2395 3.00854 31.4388 2.72244 31.7783 2.49613C32.1303 2.26147 32.5117 2.17223 32.8457 2.17223V4.17223V6.17223C33.2117 6.17223 33.6211 6.07499 33.9971 5.82433C34.3606 5.58202 34.5799 5.27192 34.7065 5.01866L32.9177 4.12423ZM32.8457 4.17223V2.17223H31.6457V4.17223V6.17223H32.8457V4.17223ZM37.482 10.8682L35.4903 11.0501C35.4967 11.1207 35.5069 11.1909 35.5208 11.2605L37.482 10.8682ZM37.23 8.10823H35.23C35.23 8.16894 35.2328 8.22962 35.2383 8.29008L37.23 8.10823ZM38.682 4.84423L40.682 4.85158V4.84423H38.682ZM38.67 8.10823L40.6617 8.29008C40.667 8.23206 40.6698 8.17384 40.67 8.11558L38.67 8.10823ZM38.418 10.8682L40.3792 11.2605C40.3931 11.1909 40.4033 11.1207 40.4097 11.0501L38.418 10.8682ZM37.542 10.9282V8.92823C37.9805 8.92823 38.5017 9.08346 38.9172 9.49902C39.2845 9.86631 39.4023 10.2719 39.4432 10.476L37.482 10.8682L35.5208 11.2605C35.5697 11.5046 35.7015 11.9401 36.0888 12.3274C36.5243 12.763 37.0715 12.9282 37.542 12.9282V10.9282ZM37.482 10.8682L39.4737 10.6864L39.2217 7.92638L37.23 8.10823L35.2383 8.29008L35.4903 11.0501L37.482 10.8682ZM37.23 8.10823H39.23V4.84423H37.23H35.23V8.10823H37.23ZM37.23 4.84423H39.23C39.23 5.03791 39.2 5.55328 38.8037 6.04862C38.3393 6.62918 37.7034 6.78423 37.278 6.78423V4.78423V2.78423C36.8206 2.78423 36.1607 2.94928 35.6803 3.54984C35.268 4.06518 35.23 4.61055 35.23 4.84423H37.23ZM37.278 4.78423V6.78423H38.622V4.78423V2.78423H37.278V4.78423ZM38.622 4.78423V6.78423C38.3337 6.78423 37.7501 6.7108 37.2528 6.21345C36.7554 5.71609 36.682 5.13252 36.682 4.84423H38.682H40.682C40.682 4.51594 40.5986 3.90237 40.0812 3.38501C39.5639 2.86766 38.9503 2.78423 38.622 2.78423V4.78423ZM38.682 4.84423L36.682 4.83688L36.67 8.10088L38.67 8.10823L40.67 8.11558L40.682 4.85158L38.682 4.84423ZM38.67 8.10823L36.6783 7.92638L36.4263 10.6864L38.418 10.8682L40.4097 11.0501L40.6617 8.29008L38.67 8.10823ZM38.418 10.8682L36.4568 10.476C36.4977 10.2719 36.6155 9.86631 36.9828 9.49901C37.3983 9.08346 37.9195 8.92823 38.358 8.92823V10.9282V12.9282C38.8285 12.9282 39.3757 12.763 39.8112 12.3274C40.1985 11.9402 40.3303 11.5046 40.3792 11.2605L38.418 10.8682ZM38.358 10.9282V8.92823H37.542V10.9282V12.9282H38.358V10.9282ZM37.278 13.1362V11.1362C37.7034 11.1362 38.3393 11.2913 38.8037 11.8718C39.2 12.3672 39.23 12.8825 39.23 13.0762H37.23H35.23C35.23 13.3099 35.268 13.8553 35.6803 14.3706C36.1607 14.9712 36.8206 15.1362 37.278 15.1362V13.1362ZM37.23 13.0762H39.23V11.7682H37.23H35.23V13.0762H37.23ZM37.23 11.7682H39.23C39.23 12.0605 39.1556 12.6471 38.6562 13.1464C38.1569 13.6458 37.5703 13.7202 37.278 13.7202V11.7202V9.72023C36.9537 9.72023 36.3431 9.80266 35.8278 10.318C35.3124 10.8334 35.23 11.4439 35.23 11.7682H37.23ZM37.278 11.7202V13.7202H38.622V11.7202V9.72023H37.278V11.7202ZM38.622 11.7202V13.7202C38.3297 13.7202 37.7431 13.6458 37.2438 13.1464C36.7444 12.6471 36.67 12.0605 36.67 11.7682H38.67H40.67C40.67 11.4439 40.5876 10.8334 40.0722 10.318C39.5569 9.80266 38.9463 9.72023 38.622 9.72023V11.7202ZM38.67 11.7682H36.67V13.0762H38.67H40.67V11.7682H38.67ZM38.67 13.0762H36.67C36.67 12.8825 36.7 12.3672 37.0963 11.8718C37.5607 11.2913 38.1966 11.1362 38.622 11.1362V13.1362V15.1362C39.0794 15.1362 39.7393 14.9712 40.2197 14.3706C40.632 13.8553 40.67 13.3099 40.67 13.0762H38.67ZM38.622 13.1362V11.1362H37.278V13.1362V15.1362H38.622V13.1362Z" fill="black" mask="url(#path-1-outside-1_1010_6)"/>
<path d="M4.35206 13.2562C3.91206 13.2562 3.51206 13.1482 3.15206 12.9322C2.80006 12.7082 2.52006 12.4122 2.31206 12.0442C2.10406 11.6762 2.00006 11.2642 2.00006 10.8082L2.01206 7.06423C2.01206 6.62423 2.11206 6.22423 2.31206 5.86423C2.52006 5.49623 2.80006 5.20423 3.15206 4.98823C3.51206 4.76423 3.91206 4.65223 4.35206 4.65223C4.79206 4.65223 5.18806 4.76023 5.54006 4.97623C5.89206 5.19223 6.17206 5.48423 6.38006 5.85223C6.58806 6.21223 6.69206 6.61623 6.69206 7.06423V7.61623C6.69206 7.64823 6.67606 7.66423 6.64406 7.66423H5.30006C5.26806 7.66423 5.25206 7.64823 5.25206 7.61623V7.06423C5.25206 6.80023 5.16406 6.57223 4.98806 6.38023C4.82006 6.18823 4.60806 6.09223 4.35206 6.09223C4.06406 6.09223 3.84406 6.19223 3.69206 6.39223C3.54006 6.58423 3.46406 6.80823 3.46406 7.06423V10.8082C3.46406 11.1042 3.54806 11.3442 3.71606 11.5282C3.89206 11.7122 4.10406 11.8042 4.35206 11.8042C4.60806 11.8042 4.82006 11.7042 4.98806 11.5042C5.16406 11.2962 5.25206 11.0642 5.25206 10.8082V10.2562C5.25206 10.2242 5.26806 10.2082 5.30006 10.2082H6.65606C6.68806 10.2082 6.70406 10.2242 6.70406 10.2562V10.8082C6.70406 11.2642 6.59606 11.6762 6.38006 12.0442C6.17206 12.4122 5.89206 12.7082 5.54006 12.9322C5.18806 13.1482 4.79206 13.2562 4.35206 13.2562ZM7.62956 13.1362C7.59756 13.1362 7.58156 13.1162 7.58156 13.0762L7.59356 4.83223C7.59356 4.80023 7.61356 4.78423 7.65356 4.78423H8.98556C9.02556 4.78423 9.04556 4.80023 9.04556 4.83223L9.03356 8.09623H10.8336V4.83223C10.8336 4.80023 10.8496 4.78423 10.8816 4.78423H12.2136C12.2536 4.78423 12.2736 4.80023 12.2736 4.83223L12.2976 13.0762C12.2976 13.1162 12.2776 13.1362 12.2376 13.1362H10.8936C10.8536 13.1362 10.8336 13.1162 10.8336 13.0762V9.54823H9.03356V13.0762C9.03356 13.1162 9.01756 13.1362 8.98556 13.1362H7.62956ZM12.8689 13.0762L14.3569 4.83223C14.3649 4.80023 14.3849 4.78423 14.4169 4.78423H16.1569C16.1889 4.78423 16.2089 4.80023 16.2169 4.83223L17.6449 13.0762C17.6529 13.1162 17.6369 13.1362 17.5969 13.1362H16.2649C16.2329 13.1362 16.2129 13.1162 16.2049 13.0762L16.0729 12.2002H14.4409L14.3089 13.0762C14.3009 13.1162 14.2809 13.1362 14.2489 13.1362H12.9169C12.8849 13.1362 12.8689 13.1162 12.8689 13.0762ZM14.6809 10.9162H15.8329L15.3409 7.54423L15.2689 7.10023L15.2209 7.54423L14.6809 10.9162ZM18.506 13.1362C18.442 13.1362 18.41 13.1082 18.41 13.0522L18.398 4.88023C18.398 4.81623 18.43 4.78423 18.494 4.78423H19.574L21.602 9.51223L21.542 4.88023C21.542 4.81623 21.578 4.78423 21.65 4.78423H22.838C22.886 4.78423 22.91 4.81623 22.91 4.88023L22.922 13.0642C22.922 13.1122 22.902 13.1362 22.862 13.1362H21.806L19.73 8.72023L19.814 13.0402C19.814 13.1042 19.778 13.1362 19.706 13.1362H18.506ZM24.0124 13.1362C23.9804 13.1362 23.9644 13.1162 23.9644 13.0762L23.9884 4.83223C23.9884 4.80023 24.0044 4.78423 24.0364 4.78423H25.5004C25.5324 4.78423 25.5604 4.80023 25.5844 4.83223L26.6764 6.41623L27.7684 4.83223C27.7924 4.80023 27.8204 4.78423 27.8524 4.78423H29.3284C29.3604 4.78423 29.3764 4.80023 29.3764 4.83223L29.4004 13.0762C29.4004 13.1162 29.3844 13.1362 29.3524 13.1362H27.9964C27.9644 13.1362 27.9484 13.1162 27.9484 13.0762L27.9364 6.95623L26.6764 8.78023L25.4284 6.95623L25.4164 13.0762C25.4164 13.1162 25.4004 13.1362 25.3684 13.1362H24.0124ZM30.4577 13.1362C30.4257 13.1362 30.4097 13.1162 30.4097 13.0762L30.4217 4.83223C30.4217 4.80023 30.4377 4.78423 30.4697 4.78423H34.3217C34.3537 4.78423 34.3697 4.80423 34.3697 4.84423V6.18823C34.3697 6.22023 34.3537 6.23623 34.3217 6.23623H31.8617V8.10823H34.3217C34.3537 8.10823 34.3697 8.12423 34.3697 8.15623L34.3817 9.51223C34.3817 9.54423 34.3657 9.56023 34.3337 9.56023H31.8617V11.6602H34.3337C34.3657 11.6602 34.3817 11.6802 34.3817 11.7202V13.0882C34.3817 13.1202 34.3657 13.1362 34.3337 13.1362H30.4577ZM31.6457 4.17223C31.6057 4.17223 31.5897 4.15623 31.5977 4.12423L32.5577 2.04823C32.5657 2.01623 32.5857 2.00023 32.6177 2.00023H33.9857C34.0337 2.00023 34.0497 2.01623 34.0337 2.04823L32.9177 4.12423C32.9017 4.15623 32.8777 4.17223 32.8457 4.17223H31.6457ZM37.542 10.9282C37.51 10.9282 37.49 10.9082 37.482 10.8682L37.23 8.10823V4.84423C37.23 4.80423 37.246 4.78423 37.278 4.78423H38.622C38.662 4.78423 38.682 4.80423 38.682 4.84423L38.67 8.10823L38.418 10.8682C38.41 10.9082 38.39 10.9282 38.358 10.9282H37.542ZM37.278 13.1362C37.246 13.1362 37.23 13.1162 37.23 13.0762V11.7682C37.23 11.7362 37.246 11.7202 37.278 11.7202H38.622C38.654 11.7202 38.67 11.7362 38.67 11.7682V13.0762C38.67 13.1162 38.654 13.1362 38.622 13.1362H37.278Z" fill="white"/>
</svg>
