<svg width="68" height="15" viewBox="0 0 68 15" fill="none" xmlns="http://www.w3.org/2000/svg">
<mask id="path-1-outside-1_1010_7" maskUnits="userSpaceOnUse" x="-0.335938" y="0" width="69" height="14" fill="black">
<rect fill="white" x="-0.335938" width="69" height="14"/>
<path d="M4.35206 11.12C3.91206 11.12 3.51206 11.012 3.15206 10.796C2.80006 10.572 2.52006 10.276 2.31206 9.908C2.10406 9.54 2.00006 9.128 2.00006 8.672L2.01206 4.928C2.01206 4.488 2.11206 4.088 2.31206 3.728C2.52006 3.36 2.80006 3.068 3.15206 2.852C3.51206 2.628 3.91206 2.516 4.35206 2.516C4.79206 2.516 5.18806 2.624 5.54006 2.84C5.89206 3.056 6.17206 3.348 6.38006 3.716C6.58806 4.076 6.69206 4.48 6.69206 4.928V5.48C6.69206 5.512 6.67606 5.528 6.64406 5.528H5.30006C5.26806 5.528 5.25206 5.512 5.25206 5.48V4.928C5.25206 4.664 5.16406 4.436 4.98806 4.244C4.82006 4.052 4.60806 3.956 4.35206 3.956C4.06406 3.956 3.84406 4.056 3.69206 4.256C3.54006 4.448 3.46406 4.672 3.46406 4.928V8.672C3.46406 8.968 3.54806 9.208 3.71606 9.392C3.89206 9.576 4.10406 9.668 4.35206 9.668C4.60806 9.668 4.82006 9.568 4.98806 9.368C5.16406 9.16 5.25206 8.928 5.25206 8.672V8.12C5.25206 8.088 5.26806 8.072 5.30006 8.072H6.65606C6.68806 8.072 6.70406 8.088 6.70406 8.12V8.672C6.70406 9.128 6.59606 9.54 6.38006 9.908C6.17206 10.276 5.89206 10.572 5.54006 10.796C5.18806 11.012 4.79206 11.12 4.35206 11.12ZM7.62956 11C7.59756 11 7.58156 10.98 7.58156 10.94L7.59356 2.696C7.59356 2.664 7.61356 2.648 7.65356 2.648H8.98556C9.02556 2.648 9.04556 2.664 9.04556 2.696L9.03356 5.96H10.8336V2.696C10.8336 2.664 10.8496 2.648 10.8816 2.648H12.2136C12.2536 2.648 12.2736 2.664 12.2736 2.696L12.2976 10.94C12.2976 10.98 12.2776 11 12.2376 11H10.8936C10.8536 11 10.8336 10.98 10.8336 10.94V7.412H9.03356V10.94C9.03356 10.98 9.01756 11 8.98556 11H7.62956ZM12.8689 10.94L14.3569 2.696C14.3649 2.664 14.3849 2.648 14.4169 2.648H16.1569C16.1889 2.648 16.2089 2.664 16.2169 2.696L17.6449 10.94C17.6529 10.98 17.6369 11 17.5969 11H16.2649C16.2329 11 16.2129 10.98 16.2049 10.94L16.0729 10.064H14.4409L14.3089 10.94C14.3009 10.98 14.2809 11 14.2489 11H12.9169C12.8849 11 12.8689 10.98 12.8689 10.94ZM14.6809 8.78H15.8329L15.3409 5.408L15.2689 4.964L15.2209 5.408L14.6809 8.78ZM18.446 11C18.414 11 18.398 10.98 18.398 10.94L18.422 2.696C18.422 2.664 18.438 2.648 18.47 2.648H20.894C21.326 2.648 21.722 2.756 22.082 2.972C22.45 3.18 22.742 3.464 22.958 3.824C23.174 4.176 23.282 4.576 23.282 5.024C23.282 5.32 23.238 5.588 23.15 5.828C23.062 6.06 22.958 6.26 22.838 6.428C22.718 6.588 22.61 6.708 22.514 6.788C22.946 7.268 23.162 7.832 23.162 8.48L23.174 10.94C23.174 10.98 23.154 11 23.114 11H21.758C21.726 11 21.71 10.988 21.71 10.964V8.48C21.71 8.192 21.606 7.944 21.398 7.736C21.198 7.52 20.95 7.412 20.654 7.412H19.862L19.85 10.94C19.85 10.98 19.834 11 19.802 11H18.446ZM19.862 5.972H20.894C21.142 5.972 21.362 5.88 21.554 5.696C21.746 5.512 21.842 5.288 21.842 5.024C21.842 4.768 21.746 4.548 21.554 4.364C21.37 4.18 21.15 4.088 20.894 4.088H19.862V5.972ZM24.235 11C24.203 11 24.187 10.98 24.187 10.94L24.211 2.696C24.211 2.664 24.227 2.648 24.259 2.648H26.563C27.019 2.648 27.427 2.76 27.787 2.984C28.147 3.2 28.431 3.488 28.639 3.848C28.847 4.208 28.951 4.6 28.951 5.024C28.951 5.368 28.871 5.688 28.711 5.984C28.559 6.28 28.375 6.52 28.159 6.704C28.391 6.936 28.571 7.204 28.699 7.508C28.827 7.812 28.891 8.132 28.891 8.468C28.891 8.932 28.779 9.356 28.555 9.74C28.331 10.124 28.027 10.432 27.643 10.664C27.267 10.888 26.847 11 26.383 11H24.235ZM25.651 5.96H26.563C26.843 5.96 27.067 5.864 27.235 5.672C27.411 5.472 27.499 5.256 27.499 5.024C27.499 4.768 27.407 4.548 27.223 4.364C27.039 4.172 26.819 4.076 26.563 4.076H25.651V5.96ZM25.639 9.536H26.383C26.671 9.536 26.919 9.432 27.127 9.224C27.335 9.008 27.439 8.756 27.439 8.468C27.439 8.18 27.335 7.932 27.127 7.724C26.919 7.516 26.671 7.412 26.383 7.412H25.651L25.639 9.536ZM31.9734 11.12C31.5414 11.12 31.1454 11.012 30.7854 10.796C30.4334 10.572 30.1494 10.28 29.9334 9.92C29.7174 9.552 29.6094 9.148 29.6094 8.708L29.6214 4.904C29.6214 4.464 29.7254 4.064 29.9334 3.704C30.1494 3.344 30.4374 3.056 30.7974 2.84C31.1574 2.624 31.5494 2.516 31.9734 2.516C32.4054 2.516 32.7974 2.624 33.1494 2.84C33.5014 3.056 33.7814 3.344 33.9894 3.704C34.2054 4.064 34.3134 4.464 34.3134 4.904L34.3254 8.708C34.3254 9.148 34.2174 9.552 34.0014 9.92C33.7934 10.28 33.5094 10.572 33.1494 10.796C32.7974 11.012 32.4054 11.12 31.9734 11.12ZM31.9734 9.668C32.2134 9.668 32.4214 9.572 32.5974 9.38C32.7814 9.18 32.8734 8.956 32.8734 8.708L32.8614 4.904C32.8614 4.64 32.7774 4.416 32.6094 4.232C32.4414 4.048 32.2294 3.956 31.9734 3.956C31.7254 3.956 31.5134 4.048 31.3374 4.232C31.1614 4.408 31.0734 4.632 31.0734 4.904V8.708C31.0734 8.972 31.1614 9.2 31.3374 9.392C31.5134 9.576 31.7254 9.668 31.9734 9.668ZM35.3458 11C35.2818 11 35.2498 10.972 35.2498 10.916L35.2378 2.744C35.2378 2.68 35.2698 2.648 35.3338 2.648H36.4138L38.4418 7.376L38.3818 2.744C38.3818 2.68 38.4178 2.648 38.4898 2.648H39.6778C39.7258 2.648 39.7498 2.68 39.7498 2.744L39.7618 10.928C39.7618 10.976 39.7418 11 39.7018 11H38.6458L36.5698 6.584L36.6538 10.904C36.6538 10.968 36.6178 11 36.5458 11H35.3458ZM40.9122 11C40.8482 11 40.8162 10.972 40.8162 10.916L40.8042 2.744C40.8042 2.68 40.8362 2.648 40.9002 2.648H41.9802L44.0082 7.376L43.9482 2.744C43.9482 2.68 43.9842 2.648 44.0562 2.648H45.2442C45.2922 2.648 45.3162 2.68 45.3162 2.744L45.3282 10.928C45.3282 10.976 45.3082 11 45.2682 11H44.2122L42.1362 6.584L42.2202 10.904C42.2202 10.968 42.1842 11 42.1122 11H40.9122ZM46.4186 11C46.3866 11 46.3706 10.98 46.3706 10.94L46.3826 2.696C46.3826 2.664 46.3986 2.648 46.4306 2.648H50.2826C50.3146 2.648 50.3306 2.668 50.3306 2.708V4.052C50.3306 4.084 50.3146 4.1 50.2826 4.1H47.8226V5.972H50.2826C50.3146 5.972 50.3306 5.988 50.3306 6.02L50.3426 7.376C50.3426 7.408 50.3266 7.424 50.2946 7.424H47.8226V9.524H50.2946C50.3266 9.524 50.3426 9.544 50.3426 9.584V10.952C50.3426 10.984 50.3266 11 50.2946 11H46.4186ZM53.6177 11.12C53.1937 11.12 52.8017 11.012 52.4417 10.796C52.0817 10.572 51.7937 10.276 51.5777 9.908C51.3697 9.54 51.2657 9.136 51.2657 8.696L51.2897 2.696C51.2897 2.664 51.3057 2.648 51.3377 2.648H52.6817C52.7137 2.648 52.7297 2.664 52.7297 2.696V8.696C52.7297 8.968 52.8137 9.2 52.9817 9.392C53.1577 9.576 53.3697 9.668 53.6177 9.668C53.8737 9.668 54.0857 9.576 54.2537 9.392C54.4297 9.2 54.5177 8.968 54.5177 8.696V2.696C54.5177 2.664 54.5337 2.648 54.5657 2.648H55.9097C55.9417 2.648 55.9577 2.664 55.9577 2.696L55.9817 8.696C55.9817 9.144 55.8737 9.552 55.6577 9.92C55.4497 10.288 55.1657 10.58 54.8057 10.796C54.4537 11.012 54.0577 11.12 53.6177 11.12ZM56.9772 11C56.9452 11 56.9292 10.98 56.9292 10.94L56.9532 2.696C56.9532 2.664 56.9692 2.648 57.0012 2.648H59.4252C59.8572 2.648 60.2532 2.756 60.6132 2.972C60.9812 3.18 61.2732 3.464 61.4892 3.824C61.7052 4.176 61.8132 4.576 61.8132 5.024C61.8132 5.32 61.7692 5.588 61.6812 5.828C61.5932 6.06 61.4892 6.26 61.3692 6.428C61.2492 6.588 61.1412 6.708 61.0452 6.788C61.4772 7.268 61.6932 7.832 61.6932 8.48L61.7052 10.94C61.7052 10.98 61.6852 11 61.6452 11H60.2892C60.2572 11 60.2412 10.988 60.2412 10.964V8.48C60.2412 8.192 60.1372 7.944 59.9292 7.736C59.7292 7.52 59.4812 7.412 59.1852 7.412H58.3932L58.3812 10.94C58.3812 10.98 58.3652 11 58.3332 11H56.9772ZM58.3932 5.972H59.4252C59.6732 5.972 59.8932 5.88 60.0852 5.696C60.2772 5.512 60.3732 5.288 60.3732 5.024C60.3732 4.768 60.2772 4.548 60.0852 4.364C59.9012 4.18 59.6812 4.088 59.4252 4.088H58.3932V5.972ZM64.8115 8.792C64.7795 8.792 64.7595 8.772 64.7515 8.732L64.4995 5.972V2.708C64.4995 2.668 64.5155 2.648 64.5475 2.648H65.8915C65.9315 2.648 65.9515 2.668 65.9515 2.708L65.9395 5.972L65.6875 8.732C65.6795 8.772 65.6595 8.792 65.6275 8.792H64.8115ZM64.5475 11C64.5155 11 64.4995 10.98 64.4995 10.94V9.632C64.4995 9.6 64.5155 9.584 64.5475 9.584H65.8915C65.9235 9.584 65.9395 9.6 65.9395 9.632V10.94C65.9395 10.98 65.9235 11 65.8915 11H64.5475Z"/>
</mask>
<path d="M4.35206 11.12C3.91206 11.12 3.51206 11.012 3.15206 10.796C2.80006 10.572 2.52006 10.276 2.31206 9.908C2.10406 9.54 2.00006 9.128 2.00006 8.672L2.01206 4.928C2.01206 4.488 2.11206 4.088 2.31206 3.728C2.52006 3.36 2.80006 3.068 3.15206 2.852C3.51206 2.628 3.91206 2.516 4.35206 2.516C4.79206 2.516 5.18806 2.624 5.54006 2.84C5.89206 3.056 6.17206 3.348 6.38006 3.716C6.58806 4.076 6.69206 4.48 6.69206 4.928V5.48C6.69206 5.512 6.67606 5.528 6.64406 5.528H5.30006C5.26806 5.528 5.25206 5.512 5.25206 5.48V4.928C5.25206 4.664 5.16406 4.436 4.98806 4.244C4.82006 4.052 4.60806 3.956 4.35206 3.956C4.06406 3.956 3.84406 4.056 3.69206 4.256C3.54006 4.448 3.46406 4.672 3.46406 4.928V8.672C3.46406 8.968 3.54806 9.208 3.71606 9.392C3.89206 9.576 4.10406 9.668 4.35206 9.668C4.60806 9.668 4.82006 9.568 4.98806 9.368C5.16406 9.16 5.25206 8.928 5.25206 8.672V8.12C5.25206 8.088 5.26806 8.072 5.30006 8.072H6.65606C6.68806 8.072 6.70406 8.088 6.70406 8.12V8.672C6.70406 9.128 6.59606 9.54 6.38006 9.908C6.17206 10.276 5.89206 10.572 5.54006 10.796C5.18806 11.012 4.79206 11.12 4.35206 11.12ZM7.62956 11C7.59756 11 7.58156 10.98 7.58156 10.94L7.59356 2.696C7.59356 2.664 7.61356 2.648 7.65356 2.648H8.98556C9.02556 2.648 9.04556 2.664 9.04556 2.696L9.03356 5.96H10.8336V2.696C10.8336 2.664 10.8496 2.648 10.8816 2.648H12.2136C12.2536 2.648 12.2736 2.664 12.2736 2.696L12.2976 10.94C12.2976 10.98 12.2776 11 12.2376 11H10.8936C10.8536 11 10.8336 10.98 10.8336 10.94V7.412H9.03356V10.94C9.03356 10.98 9.01756 11 8.98556 11H7.62956ZM12.8689 10.94L14.3569 2.696C14.3649 2.664 14.3849 2.648 14.4169 2.648H16.1569C16.1889 2.648 16.2089 2.664 16.2169 2.696L17.6449 10.94C17.6529 10.98 17.6369 11 17.5969 11H16.2649C16.2329 11 16.2129 10.98 16.2049 10.94L16.0729 10.064H14.4409L14.3089 10.94C14.3009 10.98 14.2809 11 14.2489 11H12.9169C12.8849 11 12.8689 10.98 12.8689 10.94ZM14.6809 8.78H15.8329L15.3409 5.408L15.2689 4.964L15.2209 5.408L14.6809 8.78ZM18.446 11C18.414 11 18.398 10.98 18.398 10.94L18.422 2.696C18.422 2.664 18.438 2.648 18.47 2.648H20.894C21.326 2.648 21.722 2.756 22.082 2.972C22.45 3.18 22.742 3.464 22.958 3.824C23.174 4.176 23.282 4.576 23.282 5.024C23.282 5.32 23.238 5.588 23.15 5.828C23.062 6.06 22.958 6.26 22.838 6.428C22.718 6.588 22.61 6.708 22.514 6.788C22.946 7.268 23.162 7.832 23.162 8.48L23.174 10.94C23.174 10.98 23.154 11 23.114 11H21.758C21.726 11 21.71 10.988 21.71 10.964V8.48C21.71 8.192 21.606 7.944 21.398 7.736C21.198 7.52 20.95 7.412 20.654 7.412H19.862L19.85 10.94C19.85 10.98 19.834 11 19.802 11H18.446ZM19.862 5.972H20.894C21.142 5.972 21.362 5.88 21.554 5.696C21.746 5.512 21.842 5.288 21.842 5.024C21.842 4.768 21.746 4.548 21.554 4.364C21.37 4.18 21.15 4.088 20.894 4.088H19.862V5.972ZM24.235 11C24.203 11 24.187 10.98 24.187 10.94L24.211 2.696C24.211 2.664 24.227 2.648 24.259 2.648H26.563C27.019 2.648 27.427 2.76 27.787 2.984C28.147 3.2 28.431 3.488 28.639 3.848C28.847 4.208 28.951 4.6 28.951 5.024C28.951 5.368 28.871 5.688 28.711 5.984C28.559 6.28 28.375 6.52 28.159 6.704C28.391 6.936 28.571 7.204 28.699 7.508C28.827 7.812 28.891 8.132 28.891 8.468C28.891 8.932 28.779 9.356 28.555 9.74C28.331 10.124 28.027 10.432 27.643 10.664C27.267 10.888 26.847 11 26.383 11H24.235ZM25.651 5.96H26.563C26.843 5.96 27.067 5.864 27.235 5.672C27.411 5.472 27.499 5.256 27.499 5.024C27.499 4.768 27.407 4.548 27.223 4.364C27.039 4.172 26.819 4.076 26.563 4.076H25.651V5.96ZM25.639 9.536H26.383C26.671 9.536 26.919 9.432 27.127 9.224C27.335 9.008 27.439 8.756 27.439 8.468C27.439 8.18 27.335 7.932 27.127 7.724C26.919 7.516 26.671 7.412 26.383 7.412H25.651L25.639 9.536ZM31.9734 11.12C31.5414 11.12 31.1454 11.012 30.7854 10.796C30.4334 10.572 30.1494 10.28 29.9334 9.92C29.7174 9.552 29.6094 9.148 29.6094 8.708L29.6214 4.904C29.6214 4.464 29.7254 4.064 29.9334 3.704C30.1494 3.344 30.4374 3.056 30.7974 2.84C31.1574 2.624 31.5494 2.516 31.9734 2.516C32.4054 2.516 32.7974 2.624 33.1494 2.84C33.5014 3.056 33.7814 3.344 33.9894 3.704C34.2054 4.064 34.3134 4.464 34.3134 4.904L34.3254 8.708C34.3254 9.148 34.2174 9.552 34.0014 9.92C33.7934 10.28 33.5094 10.572 33.1494 10.796C32.7974 11.012 32.4054 11.12 31.9734 11.12ZM31.9734 9.668C32.2134 9.668 32.4214 9.572 32.5974 9.38C32.7814 9.18 32.8734 8.956 32.8734 8.708L32.8614 4.904C32.8614 4.64 32.7774 4.416 32.6094 4.232C32.4414 4.048 32.2294 3.956 31.9734 3.956C31.7254 3.956 31.5134 4.048 31.3374 4.232C31.1614 4.408 31.0734 4.632 31.0734 4.904V8.708C31.0734 8.972 31.1614 9.2 31.3374 9.392C31.5134 9.576 31.7254 9.668 31.9734 9.668ZM35.3458 11C35.2818 11 35.2498 10.972 35.2498 10.916L35.2378 2.744C35.2378 2.68 35.2698 2.648 35.3338 2.648H36.4138L38.4418 7.376L38.3818 2.744C38.3818 2.68 38.4178 2.648 38.4898 2.648H39.6778C39.7258 2.648 39.7498 2.68 39.7498 2.744L39.7618 10.928C39.7618 10.976 39.7418 11 39.7018 11H38.6458L36.5698 6.584L36.6538 10.904C36.6538 10.968 36.6178 11 36.5458 11H35.3458ZM40.9122 11C40.8482 11 40.8162 10.972 40.8162 10.916L40.8042 2.744C40.8042 2.68 40.8362 2.648 40.9002 2.648H41.9802L44.0082 7.376L43.9482 2.744C43.9482 2.68 43.9842 2.648 44.0562 2.648H45.2442C45.2922 2.648 45.3162 2.68 45.3162 2.744L45.3282 10.928C45.3282 10.976 45.3082 11 45.2682 11H44.2122L42.1362 6.584L42.2202 10.904C42.2202 10.968 42.1842 11 42.1122 11H40.9122ZM46.4186 11C46.3866 11 46.3706 10.98 46.3706 10.94L46.3826 2.696C46.3826 2.664 46.3986 2.648 46.4306 2.648H50.2826C50.3146 2.648 50.3306 2.668 50.3306 2.708V4.052C50.3306 4.084 50.3146 4.1 50.2826 4.1H47.8226V5.972H50.2826C50.3146 5.972 50.3306 5.988 50.3306 6.02L50.3426 7.376C50.3426 7.408 50.3266 7.424 50.2946 7.424H47.8226V9.524H50.2946C50.3266 9.524 50.3426 9.544 50.3426 9.584V10.952C50.3426 10.984 50.3266 11 50.2946 11H46.4186ZM53.6177 11.12C53.1937 11.12 52.8017 11.012 52.4417 10.796C52.0817 10.572 51.7937 10.276 51.5777 9.908C51.3697 9.54 51.2657 9.136 51.2657 8.696L51.2897 2.696C51.2897 2.664 51.3057 2.648 51.3377 2.648H52.6817C52.7137 2.648 52.7297 2.664 52.7297 2.696V8.696C52.7297 8.968 52.8137 9.2 52.9817 9.392C53.1577 9.576 53.3697 9.668 53.6177 9.668C53.8737 9.668 54.0857 9.576 54.2537 9.392C54.4297 9.2 54.5177 8.968 54.5177 8.696V2.696C54.5177 2.664 54.5337 2.648 54.5657 2.648H55.9097C55.9417 2.648 55.9577 2.664 55.9577 2.696L55.9817 8.696C55.9817 9.144 55.8737 9.552 55.6577 9.92C55.4497 10.288 55.1657 10.58 54.8057 10.796C54.4537 11.012 54.0577 11.12 53.6177 11.12ZM56.9772 11C56.9452 11 56.9292 10.98 56.9292 10.94L56.9532 2.696C56.9532 2.664 56.9692 2.648 57.0012 2.648H59.4252C59.8572 2.648 60.2532 2.756 60.6132 2.972C60.9812 3.18 61.2732 3.464 61.4892 3.824C61.7052 4.176 61.8132 4.576 61.8132 5.024C61.8132 5.32 61.7692 5.588 61.6812 5.828C61.5932 6.06 61.4892 6.26 61.3692 6.428C61.2492 6.588 61.1412 6.708 61.0452 6.788C61.4772 7.268 61.6932 7.832 61.6932 8.48L61.7052 10.94C61.7052 10.98 61.6852 11 61.6452 11H60.2892C60.2572 11 60.2412 10.988 60.2412 10.964V8.48C60.2412 8.192 60.1372 7.944 59.9292 7.736C59.7292 7.52 59.4812 7.412 59.1852 7.412H58.3932L58.3812 10.94C58.3812 10.98 58.3652 11 58.3332 11H56.9772ZM58.3932 5.972H59.4252C59.6732 5.972 59.8932 5.88 60.0852 5.696C60.2772 5.512 60.3732 5.288 60.3732 5.024C60.3732 4.768 60.2772 4.548 60.0852 4.364C59.9012 4.18 59.6812 4.088 59.4252 4.088H58.3932V5.972ZM64.8115 8.792C64.7795 8.792 64.7595 8.772 64.7515 8.732L64.4995 5.972V2.708C64.4995 2.668 64.5155 2.648 64.5475 2.648H65.8915C65.9315 2.648 65.9515 2.668 65.9515 2.708L65.9395 5.972L65.6875 8.732C65.6795 8.772 65.6595 8.792 65.6275 8.792H64.8115ZM64.5475 11C64.5155 11 64.4995 10.98 64.4995 10.94V9.632C64.4995 9.6 64.5155 9.584 64.5475 9.584H65.8915C65.9235 9.584 65.9395 9.6 65.9395 9.632V10.94C65.9395 10.98 65.9235 11 65.8915 11H64.5475Z" fill="white"/>
<path d="M3.15206 10.796L2.07831 12.4833C2.09311 12.4927 2.10803 12.502 2.12307 12.511L3.15206 10.796ZM2.31206 9.908L0.570937 10.8921H0.570937L2.31206 9.908ZM2.00006 8.672L6.24657e-05 8.66559V8.672H2.00006ZM2.01206 4.928L4.01206 4.93441V4.928H2.01206ZM2.31206 3.728L0.570937 2.74389C0.568525 2.74815 0.566129 2.75243 0.563748 2.75671L2.31206 3.728ZM3.15206 2.852L4.19812 4.55668L4.20867 4.55011L3.15206 2.852ZM5.54006 2.84L4.49403 4.54465L4.49403 4.54465L5.54006 2.84ZM6.38006 3.716L4.63894 4.70011C4.64204 4.70561 4.64517 4.71109 4.64833 4.71656L6.38006 3.716ZM4.98806 4.244L3.48291 5.56101C3.49306 5.57261 3.50334 5.58409 3.51376 5.59545L4.98806 4.244ZM3.69206 4.256L5.26015 5.49741C5.26833 5.48707 5.27641 5.47666 5.28439 5.46617L3.69206 4.256ZM3.71606 9.392L2.23909 10.7405C2.24952 10.752 2.26009 10.7633 2.27078 10.7744L3.71606 9.392ZM4.98806 9.368L3.46128 8.07611L3.45665 8.08162L4.98806 9.368ZM6.38006 9.908L4.65523 8.8956C4.64972 8.90498 4.64429 8.91441 4.63894 8.92389L6.38006 9.908ZM5.54006 10.796L6.5861 12.5006C6.59538 12.4949 6.60462 12.4892 6.61381 12.4833L5.54006 10.796ZM4.35206 11.12V9.12C4.25636 9.12 4.21499 9.10137 4.18105 9.08101L3.15206 10.796L2.12307 12.511C2.80914 12.9226 3.56777 13.12 4.35206 13.12V11.12ZM3.15206 10.796L4.22581 9.10868C4.15435 9.0632 4.10198 9.01021 4.05319 8.92389L2.31206 9.908L0.570937 10.8921C0.938142 11.5418 1.44578 12.0808 2.07831 12.4833L3.15206 10.796ZM2.31206 9.908L4.05319 8.92389C4.02815 8.87958 4.00006 8.81112 4.00006 8.672H2.00006H6.24657e-05C6.24657e-05 9.44488 0.179978 10.2004 0.570937 10.8921L2.31206 9.908ZM2.00006 8.672L4.00005 8.67841L4.01205 4.93441L2.01206 4.928L0.0120728 4.92159L7.28369e-05 8.66559L2.00006 8.672ZM2.01206 4.928H4.01206C4.01206 4.80389 4.03672 4.74187 4.06038 4.69929L2.31206 3.728L0.563748 2.75671C0.187407 3.43413 0.0120625 4.17211 0.0120625 4.928H2.01206ZM2.31206 3.728L4.05319 4.71211C4.09842 4.63208 4.14215 4.59097 4.1981 4.55664L3.15206 2.852L2.10603 1.14735C1.45797 1.54503 0.9417 2.08792 0.570937 2.74389L2.31206 3.728ZM3.15206 2.852L4.20867 4.55011C4.23922 4.5311 4.27073 4.516 4.35206 4.516V2.516V0.516C3.55339 0.516 2.78491 0.724896 2.09546 1.15389L3.15206 2.852ZM4.35206 2.516V4.516C4.44797 4.516 4.47754 4.53452 4.49403 4.54465L5.54006 2.84L6.5861 1.13535C5.89859 0.713474 5.13615 0.516 4.35206 0.516V2.516ZM5.54006 2.84L4.49403 4.54465C4.54997 4.57897 4.5937 4.62008 4.63894 4.70011L6.38006 3.716L8.12119 2.73188C7.75042 2.07592 7.23415 1.53303 6.58609 1.13535L5.54006 2.84ZM6.38006 3.716L4.64833 4.71656C4.66703 4.74892 4.69206 4.80315 4.69206 4.928H6.69206H8.69206C8.69206 4.15684 8.5091 3.40308 8.11179 2.71544L6.38006 3.716ZM6.69206 4.928H4.69206V5.48H6.69206H8.69206V4.928H6.69206ZM6.69206 5.48H4.69206C4.69206 5.18771 4.76649 4.60114 5.26585 4.10178C5.76521 3.60242 6.35178 3.528 6.64406 3.528V5.528V7.528C6.96835 7.528 7.57891 7.44557 8.09427 6.93022C8.60963 6.41486 8.69206 5.80429 8.69206 5.48H6.69206ZM6.64406 5.528V3.528H5.30006V5.528V7.528H6.64406V5.528ZM5.30006 5.528V3.528C5.59235 3.528 6.17892 3.60243 6.67828 4.10179C7.17764 4.60115 7.25206 5.18771 7.25206 5.48H5.25206H3.25206C3.25206 5.80429 3.33449 6.41485 3.84985 6.93021C4.36521 7.44557 4.97577 7.528 5.30006 7.528V5.528ZM5.25206 5.48H7.25206V4.928H5.25206H3.25206V5.48H5.25206ZM5.25206 4.928H7.25206C7.25206 4.17115 6.98155 3.45893 6.46237 2.89255L4.98806 4.244L3.51376 5.59545C3.44417 5.51954 3.37195 5.41318 3.32022 5.27915C3.26866 5.14558 3.25206 5.0224 3.25206 4.928H5.25206ZM4.98806 4.244L6.49322 2.92699C5.94394 2.29925 5.18251 1.956 4.35206 1.956V3.956V5.956C4.22423 5.956 4.05619 5.93058 3.87805 5.84991C3.69973 5.76916 3.56869 5.65904 3.48291 5.56101L4.98806 4.244ZM4.35206 3.956V1.956C3.54316 1.956 2.68879 2.27077 2.09974 3.04583L3.69206 4.256L5.28439 5.46617C5.16818 5.61907 5.00231 5.75917 4.79867 5.85173C4.60375 5.94033 4.4396 5.956 4.35206 5.956V3.956ZM3.69206 4.256L2.12397 3.01459C1.67887 3.57682 1.46406 4.2434 1.46406 4.928H3.46406H5.46406C5.46406 5.00058 5.45279 5.09927 5.41502 5.21059C5.37689 5.32299 5.32117 5.42034 5.26015 5.49741L3.69206 4.256ZM3.46406 4.928H1.46406V8.672H3.46406H5.46406V4.928H3.46406ZM3.46406 8.672H1.46406C1.46406 9.36767 1.67314 10.1207 2.23909 10.7405L3.71606 9.392L5.19303 8.04346C5.29473 8.15485 5.36953 8.28403 5.41478 8.4133C5.45818 8.5373 5.46406 8.63119 5.46406 8.672H3.46406ZM3.71606 9.392L2.27078 10.7744C2.81272 11.341 3.542 11.668 4.35206 11.668V9.668V7.668C4.48168 7.668 4.64 7.69347 4.80325 7.76431C4.96536 7.83466 5.08407 7.92876 5.16135 8.00955L3.71606 9.392ZM4.35206 9.668V11.668C5.21259 11.668 5.98037 11.2962 6.51947 10.6544L4.98806 9.368L3.45665 8.08162C3.53699 7.98598 3.66625 7.87073 3.84983 7.78414C4.03451 7.69702 4.21259 7.668 4.35206 7.668V9.668ZM4.98806 9.368L6.51483 10.6599C6.97513 10.1159 7.25206 9.43296 7.25206 8.672H5.25206H3.25206C3.25206 8.56546 3.27138 8.4465 3.31607 8.32869C3.3601 8.21262 3.41699 8.12847 3.46129 8.07611L4.98806 9.368ZM5.25206 8.672H7.25206V8.12H5.25206H3.25206V8.672H5.25206ZM5.25206 8.12H7.25206C7.25206 8.41229 7.17764 8.99885 6.67828 9.49821C6.17892 9.99757 5.59236 10.072 5.30006 10.072V8.072V6.072C4.97577 6.072 4.3652 6.15443 3.84984 6.66979C3.33449 7.18515 3.25206 7.79571 3.25206 8.12H5.25206ZM5.30006 8.072V10.072H6.65606V8.072V6.072H5.30006V8.072ZM6.65606 8.072V10.072C6.36377 10.072 5.77721 9.99757 5.27785 9.49821C4.77849 8.99885 4.70406 8.41229 4.70406 8.12H6.70406H8.70406C8.70406 7.79571 8.62164 7.18515 8.10628 6.66979C7.59092 6.15443 6.98035 6.072 6.65606 6.072V8.072ZM6.70406 8.12H4.70406V8.672H6.70406H8.70406V8.12H6.70406ZM6.70406 8.672H4.70406C4.70406 8.7974 4.67865 8.8557 4.65523 8.8956L6.38006 9.908L8.10489 10.9204C8.51348 10.2243 8.70406 9.4586 8.70406 8.672H6.70406ZM6.38006 9.908L4.63894 8.92389C4.59014 9.01021 4.53778 9.0632 4.46631 9.10868L5.54006 10.796L6.61381 12.4833C7.24635 12.0808 7.75398 11.5418 8.12119 10.8921L6.38006 9.908ZM5.54006 10.796L4.49403 9.09135C4.47754 9.10147 4.44797 9.12 4.35206 9.12V11.12V13.12C5.13615 13.12 5.89859 12.9225 6.5861 12.5006L5.54006 10.796ZM7.58156 10.94L5.58156 10.9371V10.94H7.58156ZM7.59356 2.696L9.59356 2.69891V2.696H7.59356ZM9.04556 2.696L11.0456 2.70335V2.696H9.04556ZM9.03356 5.96L7.03358 5.95265C7.03162 6.48435 7.24147 6.99495 7.61675 7.37161C7.99203 7.74828 8.50186 7.96 9.03356 7.96V5.96ZM10.8336 5.96V7.96C11.9381 7.96 12.8336 7.06457 12.8336 5.96H10.8336ZM12.2736 2.696L10.2736 2.696L10.2736 2.70182L12.2736 2.696ZM12.2976 10.94H14.2976L14.2976 10.9342L12.2976 10.94ZM10.8336 7.412H12.8336C12.8336 6.30743 11.9381 5.412 10.8336 5.412V7.412ZM9.03356 7.412V5.412C7.92899 5.412 7.03356 6.30743 7.03356 7.412H9.03356ZM7.62956 11V9C8.05497 9 8.69085 9.15505 9.1553 9.73561C9.55157 10.2309 9.58156 10.7463 9.58156 10.94H7.58156H5.58156C5.58156 11.1737 5.61956 11.7191 6.03183 12.2344C6.51227 12.8349 7.17215 13 7.62956 13V11ZM7.58156 10.94L9.58156 10.9429L9.59356 2.69891L7.59356 2.696L5.59356 2.69309L5.58156 10.9371L7.58156 10.94ZM7.59356 2.696H9.59356C9.59356 3.12141 9.43851 3.75729 8.85795 4.22174C8.36262 4.61801 7.84725 4.648 7.65356 4.648V2.648V0.648C7.41988 0.648 6.87451 0.685992 6.35917 1.09826C5.75862 1.57871 5.59356 2.23859 5.59356 2.696H7.59356ZM7.65356 2.648V4.648H8.98556V2.648V0.648H7.65356V2.648ZM8.98556 2.648V4.648C8.79188 4.648 8.27651 4.61801 7.78117 4.22174C7.20061 3.75729 7.04556 3.12141 7.04556 2.696H9.04556H11.0456C11.0456 2.23859 10.8805 1.57871 10.28 1.09826C9.76462 0.685993 9.21925 0.648 8.98556 0.648V2.648ZM9.04556 2.696L7.04558 2.68865L7.03358 5.95265L9.03356 5.96L11.0335 5.96735L11.0455 2.70335L9.04556 2.696ZM9.03356 5.96V7.96H10.8336V5.96V3.96H9.03356V5.96ZM10.8336 5.96H12.8336V2.696H10.8336H8.83356V5.96H10.8336ZM10.8336 2.696H12.8336C12.8336 2.98829 12.7591 3.57485 12.2598 4.07421C11.7604 4.57357 11.1739 4.648 10.8816 4.648V2.648V0.648C10.5573 0.648 9.94671 0.730427 9.43135 1.24579C8.91599 1.76115 8.83356 2.37171 8.83356 2.696H10.8336ZM10.8816 2.648V4.648H12.2136V2.648V0.648H10.8816V2.648ZM12.2136 2.648V4.648C12.0199 4.648 11.5045 4.61801 11.0092 4.22174C10.4286 3.75729 10.2736 3.12141 10.2736 2.696H12.2736H14.2736C14.2736 2.23859 14.1085 1.57871 13.508 1.09826C12.9926 0.685993 12.4472 0.648 12.2136 0.648V2.648ZM12.2736 2.696L10.2736 2.70182L10.2976 10.9458L12.2976 10.94L14.2976 10.9342L14.2736 2.69018L12.2736 2.696ZM12.2976 10.94H10.2976C10.2976 10.6517 10.371 10.0681 10.8683 9.57079C11.3657 9.07343 11.9493 9 12.2376 9V11V13C12.5659 13 13.1794 12.9166 13.6968 12.3992C14.2141 11.8819 14.2976 11.2683 14.2976 10.94H12.2976ZM12.2376 11V9H10.8936V11V13H12.2376V11ZM10.8936 11V9C11.1819 9 11.7654 9.07343 12.2628 9.57079C12.7601 10.0681 12.8336 10.6517 12.8336 10.94H10.8336H8.83356C8.83356 11.2683 8.91699 11.8819 9.43435 12.3992C9.95171 12.9166 10.5653 13 10.8936 13V11ZM10.8336 10.94H12.8336V7.412H10.8336H8.83356V10.94H10.8336ZM10.8336 7.412V5.412H9.03356V7.412V9.412H10.8336V7.412ZM9.03356 7.412H7.03356V10.94H9.03356H11.0336V7.412H9.03356ZM9.03356 10.94H7.03356C7.03356 10.7463 7.06356 10.2309 7.45983 9.73561C7.92427 9.15505 8.56015 9 8.98556 9V11V13C9.44297 13 10.1029 12.8349 10.5833 12.2344C10.9956 11.7191 11.0336 11.1737 11.0336 10.94H9.03356ZM8.98556 11V9H7.62956V11V13H8.98556V11ZM12.8689 10.94L10.9007 10.5848C10.8795 10.702 10.8689 10.8209 10.8689 10.94H12.8689ZM14.3569 2.696L12.4166 2.21093C12.4059 2.25388 12.3965 2.29718 12.3887 2.34075L14.3569 2.696ZM16.2169 2.696L18.1875 2.35465C18.1792 2.30638 18.169 2.25844 18.1572 2.21092L16.2169 2.696ZM17.6449 10.94L15.6742 11.2814C15.6772 11.2984 15.6803 11.3153 15.6837 11.3322L17.6449 10.94ZM16.2049 10.94L14.2272 11.238C14.232 11.2695 14.2375 11.301 14.2437 11.3322L16.2049 10.94ZM16.0729 10.064L18.0505 9.76599C17.9031 8.78756 17.0624 8.064 16.0729 8.064V10.064ZM14.4409 10.064V8.064C13.4514 8.064 12.6106 8.78756 12.4632 9.76599L14.4409 10.064ZM14.3089 10.94L16.27 11.3322C16.2763 11.301 16.2818 11.2695 16.2865 11.238L14.3089 10.94ZM14.6809 8.78L12.706 8.46375C12.6134 9.04206 12.779 9.63191 13.1589 10.0776C13.5389 10.5233 14.0952 10.78 14.6809 10.78V8.78ZM15.8329 8.78V10.78C16.4137 10.78 16.9658 10.5275 17.3457 10.0881C17.7256 9.64879 17.8958 9.06598 17.8119 8.49124L15.8329 8.78ZM15.3409 5.408L17.3199 5.11924C17.3184 5.10877 17.3168 5.09831 17.3151 5.08786L15.3409 5.408ZM15.2689 4.964L17.2431 4.64386C17.0828 3.65564 16.2166 2.93814 15.2158 2.9647C14.215 2.99127 13.3881 3.7537 13.2805 4.74904L15.2689 4.964ZM15.2209 5.408L17.1957 5.72425C17.2011 5.69061 17.2056 5.65684 17.2093 5.62296L15.2209 5.408ZM12.8689 10.94L14.8371 11.2952L16.3251 3.05125L14.3569 2.696L12.3887 2.34075L10.9007 10.5848L12.8689 10.94ZM14.3569 2.696L16.2972 3.18107C16.2257 3.46678 16.0466 3.88626 15.6273 4.22174C15.2016 4.56224 14.7391 4.648 14.4169 4.648V2.648V0.648C14.0626 0.648 13.5741 0.741758 13.1285 1.09826C12.6891 1.44974 12.496 1.89322 12.4166 2.21093L14.3569 2.696ZM14.4169 2.648V4.648H16.1569V2.648V0.648H14.4169V2.648ZM16.1569 2.648V4.648C15.8346 4.648 15.3721 4.56224 14.9465 4.22174C14.5271 3.88626 14.348 3.46679 14.2766 3.18108L16.2169 2.696L18.1572 2.21092C18.0777 1.89321 17.8846 1.44974 17.4453 1.09826C16.9996 0.741757 16.5111 0.648 16.1569 0.648V2.648ZM16.2169 2.696L14.2462 3.03735L15.6742 11.2814L17.6449 10.94L19.6155 10.5986L18.1875 2.35465L16.2169 2.696ZM17.6449 10.94L15.6837 11.3322C15.6399 11.1133 15.5436 10.4026 16.0771 9.73561C16.6212 9.0555 17.3533 9 17.5969 9V11V13C17.8804 13 18.6405 12.9345 19.2006 12.2344C19.7502 11.5474 19.6578 10.8067 19.606 10.5478L17.6449 10.94ZM17.5969 11V9H16.2649V11V13H17.5969V11ZM16.2649 11V9C16.7034 9 17.2245 9.15523 17.6401 9.57079C18.0074 9.93808 18.1252 10.3437 18.166 10.5478L16.2049 10.94L14.2437 11.3322C14.2925 11.5763 14.4244 12.0119 14.8117 12.3992C15.2472 12.8348 15.7944 13 16.2649 13V11ZM16.2049 10.94L18.1825 10.642L18.0505 9.76599L16.0729 10.064L14.0952 10.362L14.2272 11.238L16.2049 10.94ZM16.0729 10.064V8.064H14.4409V10.064V12.064H16.0729V10.064ZM14.4409 10.064L12.4632 9.76599L12.3312 10.642L14.3089 10.94L16.2865 11.238L16.4185 10.362L14.4409 10.064ZM14.3089 10.94L12.3477 10.5478C12.3885 10.3437 12.5064 9.93808 12.8737 9.57079C13.2892 9.15523 13.8104 9 14.2489 9V11V13C14.7194 13 15.2665 12.8348 15.7021 12.3992C16.0894 12.0119 16.2212 11.5763 16.27 11.3322L14.3089 10.94ZM14.2489 11V9H12.9169V11V13H14.2489V11ZM12.9169 11V9C13.3423 9 13.9782 9.15505 14.4426 9.73561C14.8389 10.2309 14.8689 10.7463 14.8689 10.94H12.8689H10.8689C10.8689 11.1737 10.9069 11.7191 11.3191 12.2344C11.7996 12.8349 12.4595 13 12.9169 13V11ZM14.6809 8.78V10.78H15.8329V8.78V6.78H14.6809V8.78ZM15.8329 8.78L17.8119 8.49124L17.3199 5.11924L15.3409 5.408L13.3618 5.69676L13.8538 9.06876L15.8329 8.78ZM15.3409 5.408L17.3151 5.08786L17.2431 4.64386L15.2689 4.964L13.2947 5.28414L13.3667 5.72814L15.3409 5.408ZM15.2689 4.964L13.2805 4.74904L13.2325 5.19304L15.2209 5.408L17.2093 5.62296L17.2573 5.17896L15.2689 4.964ZM15.2209 5.408L13.246 5.09174L12.706 8.46375L14.6809 8.78L16.6557 9.09626L17.1957 5.72425L15.2209 5.408ZM18.398 10.94L16.398 10.9342V10.94H18.398ZM18.422 2.696L20.422 2.70182V2.696H18.422ZM22.082 2.972L21.053 4.68699C21.0678 4.69589 21.0828 4.70461 21.0979 4.71312L22.082 2.972ZM22.958 3.824L21.243 4.85299C21.2464 4.85869 21.2498 4.86437 21.2533 4.87003L22.958 3.824ZM23.15 5.828L25.02 6.53731C25.0226 6.53039 25.0252 6.52346 25.0277 6.51651L23.15 5.828ZM22.838 6.428L24.438 7.628C24.4473 7.6156 24.4564 7.60309 24.4654 7.59048L22.838 6.428ZM22.514 6.788L21.2336 5.25156C20.816 5.59959 20.558 6.10263 20.5191 6.64488C20.4802 7.18713 20.6637 7.72184 21.0274 8.12593L22.514 6.788ZM23.162 8.48H21.1619L21.162 8.48976L23.162 8.48ZM23.174 10.94H25.174L25.1739 10.9302L23.174 10.94ZM21.398 7.736L19.9304 9.09482C19.9479 9.11362 19.9656 9.13209 19.9838 9.15021L21.398 7.736ZM19.862 7.412V5.412C18.7601 5.412 17.8657 6.30329 17.862 7.4052L19.862 7.412ZM19.85 10.94L17.85 10.9332V10.94H19.85ZM19.862 5.972H17.862C17.862 7.07657 18.7574 7.972 19.862 7.972V5.972ZM21.554 5.696L20.1702 4.25202V4.25202L21.554 5.696ZM21.554 4.364L20.1398 5.77821C20.1498 5.78824 20.1599 5.79816 20.1702 5.80798L21.554 4.364ZM19.862 4.088V2.088C18.7574 2.088 17.862 2.98343 17.862 4.088H19.862ZM18.446 11V9C18.8714 9 19.5073 9.15505 19.9717 9.73561C20.368 10.2309 20.398 10.7463 20.398 10.94H18.398H16.398C16.398 11.1737 16.436 11.7191 16.8482 12.2344C17.3287 12.8349 17.9886 13 18.446 13V11ZM18.398 10.94L20.398 10.9458L20.422 2.70182L18.422 2.696L16.422 2.69018L16.398 10.9342L18.398 10.94ZM18.422 2.696H20.422C20.422 2.98829 20.3475 3.57485 19.8482 4.07421C19.3488 4.57357 18.7623 4.648 18.47 4.648V2.648V0.648C18.1457 0.648 17.5351 0.730427 17.0198 1.24579C16.5044 1.76115 16.422 2.37171 16.422 2.696H18.422ZM18.47 2.648V4.648H20.894V2.648V0.648H18.47V2.648ZM20.894 2.648V4.648C20.9745 4.648 21.0131 4.66308 21.053 4.68699L22.082 2.972L23.111 1.25701C22.4308 0.848921 21.6774 0.648 20.894 0.648V2.648ZM22.082 2.972L21.0979 4.71312C21.1669 4.75217 21.2062 4.79171 21.243 4.85299L22.958 3.824L24.673 2.79501C24.2777 2.13629 23.733 1.60783 23.0661 1.23087L22.082 2.972ZM22.958 3.824L21.2533 4.87003C21.2599 4.88074 21.282 4.9128 21.282 5.024H23.282H25.282C25.282 4.2392 25.088 3.47126 24.6626 2.77797L22.958 3.824ZM23.282 5.024H21.282C21.282 5.12158 21.2677 5.15187 21.2722 5.13949L23.15 5.828L25.0277 6.51651C25.2083 6.02413 25.282 5.51842 25.282 5.024H23.282ZM23.15 5.828L21.28 5.11869C21.2411 5.22106 21.2128 5.26232 21.2105 5.26552L22.838 6.428L24.4654 7.59048C24.7031 7.25768 24.8828 6.89894 25.02 6.53731L23.15 5.828ZM22.838 6.428L21.238 5.228C21.2223 5.24895 21.2094 5.26532 21.1993 5.27765C21.1893 5.29003 21.1829 5.29722 21.1804 5.30007C21.1777 5.30301 21.1803 5.29998 21.1881 5.29235C21.1957 5.28487 21.2109 5.27048 21.2336 5.25156L22.514 6.788L23.7943 8.32444C24.0588 8.10409 24.2733 7.84758 24.438 7.628L22.838 6.428ZM22.514 6.788L21.0274 8.12593C21.1276 8.23728 21.162 8.3242 21.162 8.48H23.162H25.162C25.162 7.3398 24.7643 6.29872 24.0006 5.45007L22.514 6.788ZM23.162 8.48L21.162 8.48976L21.174 10.9498L23.174 10.94L25.1739 10.9302L25.1619 8.47024L23.162 8.48ZM23.174 10.94H21.174C21.174 10.6517 21.2474 10.0681 21.7448 9.57079C22.2421 9.07343 22.8257 9 23.114 9V11V13C23.4423 13 24.0558 12.9166 24.5732 12.3992C25.0905 11.8819 25.174 11.2683 25.174 10.94H23.174ZM23.114 11V9H21.758V11V13H23.114V11ZM21.758 11V9C21.9343 9 22.4312 9.02291 22.922 9.391C23.521 9.84024 23.71 10.488 23.71 10.964H21.71H19.71C19.71 11.464 19.907 12.1298 20.522 12.591C21.0288 12.9711 21.5497 13 21.758 13V11ZM21.71 10.964H23.71V8.48H21.71H19.71V10.964H21.71ZM21.71 8.48H23.71C23.71 7.64899 23.3863 6.89587 22.8122 6.32179L21.398 7.736L19.9838 9.15021C19.9214 9.08789 19.8451 8.98853 19.7876 8.85145C19.7297 8.71354 19.71 8.58253 19.71 8.48H21.71ZM21.398 7.736L22.8655 6.37718C22.2846 5.74982 21.5036 5.412 20.654 5.412V7.412V9.412C20.5533 9.412 20.4143 9.39235 20.2634 9.32667C20.1124 9.26088 20.0015 9.17154 19.9304 9.09482L21.398 7.736ZM20.654 7.412V5.412H19.862V7.412V9.412H20.654V7.412ZM19.862 7.412L17.862 7.4052L17.85 10.9332L19.85 10.94L21.85 10.9468L21.862 7.4188L19.862 7.412ZM19.85 10.94H17.85C17.85 10.7463 17.88 10.2309 18.2762 9.73561C18.7407 9.15505 19.3766 9 19.802 9V11V13C20.2594 13 20.9193 12.8349 21.3997 12.2344C21.812 11.7191 21.85 11.1737 21.85 10.94H19.85ZM19.802 11V9H18.446V11V13H19.802V11ZM19.862 5.972V7.972H20.894V5.972V3.972H19.862V5.972ZM20.894 5.972V7.972C21.6973 7.972 22.403 7.65243 22.9378 7.13998L21.554 5.696L20.1702 4.25202C20.2314 4.19332 20.3317 4.11709 20.4734 4.05784C20.6175 3.99754 20.7639 3.972 20.894 3.972V5.972ZM21.554 5.696L22.9378 7.13998C23.5201 6.58188 23.842 5.8377 23.842 5.024H21.842H19.842C19.842 4.90793 19.8644 4.75923 19.9317 4.60216C19.9989 4.4454 20.0899 4.32889 20.1702 4.25202L21.554 5.696ZM21.842 5.024H23.842C23.842 4.19949 23.5062 3.4648 22.9378 2.92002L21.554 4.364L20.1702 5.80798C20.0959 5.73686 20.0055 5.62406 19.9369 5.46689C19.8676 5.30809 19.842 5.15268 19.842 5.024H21.842ZM21.554 4.364L22.9682 2.94979C22.416 2.39764 21.6901 2.088 20.894 2.088V4.088V6.088C20.7767 6.088 20.6313 6.0657 20.4794 6.00216C20.3281 5.93889 20.215 5.85343 20.1398 5.77821L21.554 4.364ZM20.894 4.088V2.088H19.862V4.088V6.088H20.894V4.088ZM19.862 4.088H17.862V5.972H19.862H21.862V4.088H19.862ZM24.187 10.94L22.187 10.9342V10.94H24.187ZM24.211 2.696L26.211 2.70182V2.696H24.211ZM27.787 2.984L26.7304 4.68211C26.7396 4.68781 26.7488 4.69344 26.758 4.69899L27.787 2.984ZM28.711 5.984L26.9516 5.03297C26.9449 5.04537 26.9383 5.05785 26.9319 5.07039L28.711 5.984ZM28.159 6.704L26.8621 5.18151C26.4372 5.54346 26.1829 6.06648 26.1606 6.62419C26.1384 7.1819 26.3501 7.72354 26.7448 8.11821L28.159 6.704ZM28.699 7.508L26.8558 8.28411V8.28411L28.699 7.508ZM28.555 9.74L30.2826 10.7477V10.7477L28.555 9.74ZM27.643 10.664L28.6667 12.3822L28.6773 12.3758L27.643 10.664ZM25.651 5.96H23.651C23.651 7.06457 24.5465 7.96 25.651 7.96V5.96ZM27.235 5.672L25.7336 4.35074L25.7299 4.35499L27.235 5.672ZM27.223 4.364L25.7791 5.74781C25.7889 5.75805 25.7988 5.76818 25.8088 5.77821L27.223 4.364ZM25.651 4.076V2.076C24.5465 2.076 23.651 2.97143 23.651 4.076H25.651ZM25.639 9.536L23.6391 9.5247C23.6361 10.0571 23.8454 10.5687 24.2208 10.9462C24.5962 11.3237 25.1066 11.536 25.639 11.536V9.536ZM27.127 9.224L28.5412 10.6382C28.5501 10.6293 28.5589 10.6203 28.5677 10.6113L27.127 9.224ZM25.651 7.412V5.412C24.5509 5.412 23.6573 6.30056 23.6511 7.4007L25.651 7.412ZM24.235 11V9C24.6604 9 25.2963 9.15505 25.7608 9.73561C26.157 10.2309 26.187 10.7463 26.187 10.94H24.187H22.187C22.187 11.1737 22.225 11.7191 22.6373 12.2344C23.1177 12.8349 23.7776 13 24.235 13V11ZM24.187 10.94L26.187 10.9458L26.211 2.70182L24.211 2.696L22.211 2.69018L22.187 10.9342L24.187 10.94ZM24.211 2.696H26.211C26.211 2.98829 26.1366 3.57485 25.6372 4.07421C25.1379 4.57357 24.5513 4.648 24.259 4.648V2.648V0.648C23.9347 0.648 23.3242 0.730427 22.8088 1.24579C22.2935 1.76115 22.211 2.37171 22.211 2.696H24.211ZM24.259 2.648V4.648H26.563V2.648V0.648H24.259V2.648ZM26.563 2.648V4.648C26.6749 4.648 26.7116 4.67037 26.7304 4.68211L27.787 2.984L28.8436 1.28589C28.1425 0.849631 27.3632 0.648 26.563 0.648V2.648ZM27.787 2.984L26.758 4.69899C26.8299 4.74212 26.8708 4.78547 26.9073 4.84855L28.639 3.848L30.3708 2.84745C29.9912 2.19053 29.4641 1.65788 28.816 1.26901L27.787 2.984ZM28.639 3.848L26.9073 4.84855C26.9359 4.89813 26.951 4.944 26.951 5.024H28.951H30.951C30.951 4.256 30.7581 3.51787 30.3708 2.84745L28.639 3.848ZM28.951 5.024H26.951C26.951 5.03232 26.9506 5.03689 26.9504 5.03827C26.9502 5.0396 26.9502 5.03896 26.9507 5.03693C26.9513 5.03489 26.9519 5.0329 26.9525 5.03144C26.953 5.03 26.953 5.03043 26.9516 5.03297L28.711 5.984L30.4704 6.93503C30.792 6.34018 30.951 5.69233 30.951 5.024H28.951ZM28.711 5.984L26.9319 5.07039C26.879 5.17342 26.8479 5.19364 26.8621 5.18151L28.159 6.704L29.456 8.22649C29.9022 7.84636 30.2391 7.38658 30.4902 6.89761L28.711 5.984ZM28.159 6.704L26.7448 8.11821C26.7929 8.16627 26.8276 8.21726 26.8558 8.28411L28.699 7.508L30.5423 6.73189C30.3145 6.19074 29.9892 5.70573 29.5732 5.28979L28.159 6.704ZM28.699 7.508L26.8558 8.28411C26.8784 8.33778 26.891 8.39347 26.891 8.468H28.891H30.891C30.891 7.87053 30.7757 7.28622 30.5423 6.73189L28.699 7.508ZM28.891 8.468H26.891C26.891 8.59404 26.8651 8.66779 26.8275 8.73226L28.555 9.74L30.2826 10.7477C30.693 10.0442 30.891 9.26996 30.891 8.468H28.891ZM28.555 9.74L26.8275 8.73226C26.7737 8.8245 26.7092 8.89152 26.6088 8.95217L27.643 10.664L28.6773 12.3758C29.3449 11.9725 29.8884 11.4235 30.2826 10.7477L28.555 9.74ZM27.643 10.664L26.6194 8.9458C26.5718 8.97415 26.5092 9 26.383 9V11V13C27.1848 13 27.9622 12.8019 28.6666 12.3822L27.643 10.664ZM26.383 11V9H24.235V11V13H26.383V11ZM25.651 5.96V7.96H26.563V5.96V3.96H25.651V5.96ZM26.563 5.96V7.96C27.3566 7.96 28.1527 7.66044 28.7402 6.98901L27.235 5.672L25.7299 4.35499C25.8335 4.23658 25.9772 4.12515 26.1532 4.04971C26.3245 3.97629 26.4722 3.96 26.563 3.96V5.96ZM27.235 5.672L28.7365 6.99326C29.183 6.48577 29.499 5.81406 29.499 5.024H27.499H25.499C25.499 4.87986 25.5278 4.73569 25.5808 4.60541C25.6323 4.47907 25.6945 4.39515 25.7336 4.35074L27.235 5.672ZM27.499 5.024H29.499C29.499 4.22784 29.1894 3.50193 28.6372 2.94979L27.223 4.364L25.8088 5.77821C25.7336 5.70299 25.6481 5.58992 25.5849 5.43861C25.5213 5.28666 25.499 5.14122 25.499 5.024H27.499ZM27.223 4.364L28.667 2.98019C28.1222 2.41173 27.3875 2.076 26.563 2.076V4.076V6.076C26.4343 6.076 26.2789 6.05037 26.1201 5.98108C25.963 5.9125 25.8502 5.82202 25.7791 5.74781L27.223 4.364ZM26.563 4.076V2.076H25.651V4.076V6.076H26.563V4.076ZM25.651 4.076H23.651V5.96H25.651H27.651V4.076H25.651ZM25.639 9.536V11.536H26.383V9.536V7.536H25.639V9.536ZM26.383 9.536V11.536C27.214 11.536 27.9672 11.2123 28.5412 10.6382L27.127 9.224L25.7128 7.80979C25.7751 7.74747 25.8745 7.6711 26.0116 7.61361C26.1495 7.55577 26.2805 7.536 26.383 7.536V9.536ZM27.127 9.224L28.5677 10.6113C29.1181 10.0396 29.439 9.29654 29.439 8.468H27.439H25.439C25.439 8.36522 25.4589 8.23948 25.5123 8.11003C25.5651 7.98205 25.6338 7.89131 25.6864 7.83672L27.127 9.224ZM27.439 8.468H29.439C29.439 7.63699 29.1153 6.88387 28.5412 6.30979L27.127 7.724L25.7128 9.13821C25.6505 9.07589 25.5741 8.97653 25.5166 8.83945C25.4588 8.70154 25.439 8.57053 25.439 8.468H27.439ZM27.127 7.724L28.5412 6.30979C27.9672 5.7357 27.214 5.412 26.383 5.412V7.412V9.412C26.2805 9.412 26.1495 9.39223 26.0116 9.33439C25.8745 9.2769 25.7751 9.20053 25.7128 9.13821L27.127 7.724ZM26.383 7.412V5.412H25.651V7.412V9.412H26.383V7.412ZM25.651 7.412L23.6511 7.4007L23.6391 9.5247L25.639 9.536L27.639 9.5473L27.651 7.4233L25.651 7.412ZM30.7854 10.796L29.7117 12.4833C29.7265 12.4927 29.7414 12.502 29.7564 12.511L30.7854 10.796ZM29.9334 9.92L28.2086 10.9324C28.2119 10.9379 28.2151 10.9435 28.2185 10.949L29.9334 9.92ZM29.6094 8.708L27.6094 8.70169V8.708H29.6094ZM29.6214 4.904L31.6214 4.91031V4.904H29.6214ZM29.9334 3.704L28.2185 2.67501C28.2128 2.68444 28.2072 2.69392 28.2017 2.70344L29.9334 3.704ZM30.7974 2.84L31.8264 4.55499L31.8264 4.55499L30.7974 2.84ZM33.1494 2.84L32.1034 4.54465L32.1034 4.54465L33.1494 2.84ZM33.9894 3.704L32.2577 4.70455C32.2632 4.71408 32.2688 4.72356 32.2745 4.73299L33.9894 3.704ZM34.3134 4.904H32.3134L32.3134 4.91031L34.3134 4.904ZM34.3254 8.708H36.3254L36.3254 8.70169L34.3254 8.708ZM34.0014 9.92L32.2766 8.90757L32.2697 8.91945L34.0014 9.92ZM33.1494 10.796L34.1955 12.5007L34.206 12.4941L33.1494 10.796ZM32.5974 9.38L31.1256 8.02588L31.1231 8.02855L32.5974 9.38ZM32.8734 8.708H34.8734L34.8734 8.70169L32.8734 8.708ZM32.8614 4.904H30.8614L30.8614 4.91031L32.8614 4.904ZM32.6094 4.232L34.0864 2.88346L34.0864 2.88346L32.6094 4.232ZM31.3374 4.232L32.7516 5.64621C32.7621 5.63574 32.7725 5.62515 32.7827 5.61445L31.3374 4.232ZM31.3374 9.392L29.8631 10.7434C29.8727 10.7539 29.8824 10.7642 29.8922 10.7744L31.3374 9.392ZM31.9734 11.12V9.12C31.8929 9.12 31.8543 9.10492 31.8144 9.08101L30.7854 10.796L29.7564 12.511C30.4366 12.9191 31.19 13.12 31.9734 13.12V11.12ZM30.7854 10.796L31.8592 9.10868C31.7708 9.05245 31.7057 8.98649 31.6484 8.89101L29.9334 9.92L28.2185 10.949C28.5932 11.5735 29.096 12.0916 29.7117 12.4833L30.7854 10.796ZM29.9334 9.92L31.6583 8.9076C31.6282 8.85643 31.6094 8.80367 31.6094 8.708H29.6094H27.6094C27.6094 9.49233 27.8066 10.2476 28.2086 10.9324L29.9334 9.92ZM29.6094 8.708L31.6094 8.71431L31.6214 4.91031L29.6214 4.904L27.6214 4.89769L27.6094 8.70169L29.6094 8.708ZM29.6214 4.904H31.6214C31.6214 4.79403 31.6432 4.74249 31.6652 4.70455L29.9334 3.704L28.2017 2.70344C27.8076 3.38551 27.6214 4.13397 27.6214 4.904H29.6214ZM29.9334 3.704L31.6484 4.73299C31.6955 4.65449 31.7479 4.60209 31.8264 4.55499L30.7974 2.84L29.7684 1.12501C29.1269 1.50991 28.6034 2.03351 28.2185 2.67501L29.9334 3.704ZM30.7974 2.84L31.8264 4.55499C31.8724 4.52743 31.9081 4.516 31.9734 4.516V2.516V0.516C31.1907 0.516 30.4425 0.720571 29.7684 1.12501L30.7974 2.84ZM31.9734 2.516V4.516C32.054 4.516 32.081 4.53088 32.1034 4.54465L33.1494 2.84L34.1955 1.13535C33.5139 0.717124 32.7569 0.516 31.9734 0.516V2.516ZM33.1494 2.84L32.1034 4.54465C32.1698 4.58541 32.215 4.6306 32.2577 4.70455L33.9894 3.704L35.7212 2.70344C35.3479 2.0574 34.833 1.52658 34.1955 1.13535L33.1494 2.84ZM33.9894 3.704L32.2745 4.73299C32.2948 4.76692 32.3134 4.8083 32.3134 4.904H34.3134H36.3134C36.3134 4.1197 36.1161 3.36108 35.7044 2.67501L33.9894 3.704ZM34.3134 4.904L32.3134 4.91031L32.3254 8.71431L34.3254 8.708L36.3254 8.70169L36.3134 4.89769L34.3134 4.904ZM34.3254 8.708H32.3254C32.3254 8.80367 32.3066 8.85642 32.2766 8.9076L34.0014 9.92L35.7263 10.9324C36.1282 10.2476 36.3254 9.49233 36.3254 8.708H34.3254ZM34.0014 9.92L32.2697 8.91945C32.2294 8.9892 32.1797 9.04385 32.0928 9.09789L33.1494 10.796L34.206 12.4941C34.8392 12.1001 35.3575 11.5708 35.7332 10.9206L34.0014 9.92ZM33.1494 10.796L32.1034 9.09135C32.081 9.10512 32.054 9.12 31.9734 9.12V11.12V13.12C32.7569 13.12 33.5139 12.9189 34.1955 12.5006L33.1494 10.796ZM31.9734 9.668V11.668C32.8254 11.668 33.553 11.2973 34.0717 10.7314L32.5974 9.38L31.1231 8.02855C31.1899 7.95572 31.3038 7.8574 31.4713 7.78008C31.6426 7.70103 31.8182 7.668 31.9734 7.668V9.668ZM32.5974 9.38L34.0693 10.7341C34.5576 10.2034 34.8734 9.5075 34.8734 8.708H32.8734H30.8734C30.8734 8.5778 30.899 8.43713 30.9544 8.30216C31.0086 8.17018 31.0768 8.07891 31.1256 8.02589L32.5974 9.38ZM32.8734 8.708L34.8734 8.70169L34.8614 4.89769L32.8614 4.904L30.8614 4.91031L30.8734 8.71431L32.8734 8.708ZM32.8614 4.904H34.8614C34.8614 4.17352 34.6122 3.45933 34.0864 2.88346L32.6094 4.232L31.1325 5.58054C31.0518 5.49224 30.977 5.3768 30.9258 5.24025C30.8753 5.1056 30.8614 4.98704 30.8614 4.904H32.8614ZM32.6094 4.232L34.0864 2.88346C33.5278 2.27167 32.7739 1.956 31.9734 1.956V3.956V5.956C31.8572 5.956 31.6994 5.93395 31.5283 5.85969C31.3559 5.78488 31.2235 5.68027 31.1325 5.58054L32.6094 4.232ZM31.9734 3.956V1.956C31.1634 1.956 30.4341 2.28298 29.8922 2.84956L31.3374 4.232L32.7827 5.61445C32.7054 5.69524 32.5867 5.78934 32.4246 5.85969C32.2614 5.93053 32.1031 5.956 31.9734 5.956V3.956ZM31.3374 4.232L29.9232 2.81779C29.3355 3.40551 29.0734 4.15575 29.0734 4.904H31.0734H33.0734C33.0734 4.98591 33.0596 5.114 33.0009 5.2633C32.9409 5.41609 32.8513 5.54656 32.7516 5.64621L31.3374 4.232ZM31.0734 4.904H29.0734V8.708H31.0734H33.0734V4.904H31.0734ZM31.0734 8.708H29.0734C29.0734 9.46485 29.344 10.1771 29.8631 10.7434L31.3374 9.392L32.8117 8.04055C32.8813 8.11646 32.9536 8.22282 33.0053 8.35685C33.0568 8.49042 33.0734 8.6136 33.0734 8.708H31.0734ZM31.3374 9.392L29.8922 10.7744C30.4341 11.341 31.1634 11.668 31.9734 11.668V9.668V7.668C32.1031 7.668 32.2614 7.69347 32.4246 7.76431C32.5867 7.83466 32.7054 7.92876 32.7827 8.00955L31.3374 9.392ZM35.2498 10.916H37.2498L37.2498 10.9131L35.2498 10.916ZM35.2378 2.744H33.2378L33.2378 2.74694L35.2378 2.744ZM36.4138 2.648L38.2519 1.8596C37.9366 1.12453 37.2136 0.648 36.4138 0.648V2.648ZM38.4418 7.376L36.6038 8.1644C36.98 9.04144 37.9234 9.53052 38.8569 9.33245C39.7905 9.13437 40.454 8.30433 40.4416 7.3501L38.4418 7.376ZM38.3818 2.744H36.3818C36.3818 2.75264 36.3819 2.76127 36.382 2.7699L38.3818 2.744ZM39.7498 2.744H37.7498L37.7498 2.74693L39.7498 2.744ZM39.7618 10.928H41.7618L41.7618 10.9251L39.7618 10.928ZM38.6458 11L36.8358 11.8509C37.1656 12.5523 37.8708 13 38.6458 13V11ZM36.5698 6.584L38.3798 5.73312C37.9782 4.87891 37.0341 4.42174 36.1149 4.63641C35.1958 4.85109 34.5518 5.67917 34.5702 6.62288L36.5698 6.584ZM36.6538 10.904H38.6538C38.6538 10.891 38.6537 10.8781 38.6534 10.8651L36.6538 10.904ZM35.3458 11V9C35.5614 9 36.0966 9.04138 36.5908 9.47385C37.1361 9.95094 37.2498 10.5611 37.2498 10.916H35.2498H33.2498C33.2498 11.3269 33.3795 11.9791 33.9568 12.4842C34.483 12.9446 35.0662 13 35.3458 13V11ZM35.2498 10.916L37.2498 10.9131L37.2378 2.74106L35.2378 2.744L33.2378 2.74694L33.2498 10.9189L35.2498 10.916ZM35.2378 2.744H37.2378C37.2378 3.02029 37.1674 3.59485 36.676 4.08621C36.1847 4.57757 35.6101 4.648 35.3338 4.648V2.648V0.648C34.9935 0.648 34.371 0.734427 33.8476 1.25779C33.3242 1.78115 33.2378 2.40371 33.2378 2.744H35.2378ZM35.3338 2.648V4.648H36.4138V2.648V0.648H35.3338V2.648ZM36.4138 2.648L34.5758 3.4364L36.6038 8.1644L38.4418 7.376L40.2799 6.5876L38.2519 1.8596L36.4138 2.648ZM38.4418 7.376L40.4416 7.3501L40.3816 2.71809L38.3818 2.744L36.382 2.7699L36.442 7.4019L38.4418 7.376ZM38.3818 2.744H40.3818C40.3818 3.0853 40.275 3.68908 39.7375 4.16682C39.245 4.60465 38.7079 4.648 38.4898 4.648V2.648V0.648C38.1997 0.648 37.6086 0.70735 37.0801 1.17718C36.5066 1.68692 36.3818 2.3387 36.3818 2.744H38.3818ZM38.4898 2.648V4.648H39.6778V2.648V0.648H38.4898V2.648ZM39.6778 2.648V4.648C39.2138 4.648 38.5751 4.46299 38.1318 3.872C37.7697 3.38921 37.7498 2.90431 37.7498 2.744H39.7498H41.7498C41.7498 2.51969 41.7179 1.98679 41.3318 1.472C40.8646 0.849008 40.1898 0.648 39.6778 0.648V2.648ZM39.7498 2.744L37.7498 2.74693L37.7618 10.9309L39.7618 10.928L41.7618 10.9251L41.7498 2.74107L39.7498 2.744ZM39.7618 10.928H37.7618C37.7618 10.7235 37.7969 10.1978 38.2104 9.70163C38.6821 9.13558 39.3079 9 39.7018 9V11V13C40.1357 13 40.7915 12.8524 41.2833 12.2624C41.7168 11.7422 41.7618 11.1805 41.7618 10.928H39.7618ZM39.7018 11V9H38.6458V11V13H39.7018V11ZM38.6458 11L40.4558 10.1491L38.3798 5.73312L36.5698 6.584L34.7598 7.43488L36.8358 11.8509L38.6458 11ZM36.5698 6.584L34.5702 6.62288L34.6542 10.9429L36.6538 10.904L38.6534 10.8651L38.5694 6.54512L36.5698 6.584ZM36.6538 10.904H34.6538C34.6538 10.5627 34.7606 9.95892 35.2981 9.48118C35.7906 9.04335 36.3278 9 36.5458 9V11V13C36.8359 13 37.427 12.9407 37.9555 12.4708C38.529 11.9611 38.6538 11.3093 38.6538 10.904H36.6538ZM36.5458 11V9H35.3458V11V13H36.5458V11ZM40.8162 10.916H42.8162L42.8162 10.9131L40.8162 10.916ZM40.8042 2.744H38.8042L38.8042 2.74694L40.8042 2.744ZM41.9802 2.648L43.8183 1.8596C43.503 1.12453 42.7801 0.648 41.9802 0.648V2.648ZM44.0082 7.376L42.1702 8.1644C42.5464 9.04144 43.4898 9.53052 44.4233 9.33245C45.3569 9.13437 46.0204 8.30433 46.008 7.3501L44.0082 7.376ZM43.9482 2.744H41.9482C41.9482 2.75264 41.9483 2.76127 41.9484 2.7699L43.9482 2.744ZM45.3162 2.744H43.3162L43.3162 2.74693L45.3162 2.744ZM45.3282 10.928H47.3282L47.3282 10.9251L45.3282 10.928ZM44.2122 11L42.4022 11.8509C42.732 12.5523 43.4372 13 44.2122 13V11ZM42.1362 6.584L43.9462 5.73312C43.5446 4.87891 42.6005 4.42174 41.6813 4.63641C40.7622 4.85109 40.1182 5.67917 40.1366 6.62288L42.1362 6.584ZM42.2202 10.904H44.2202C44.2202 10.891 44.2201 10.8781 44.2198 10.8651L42.2202 10.904ZM40.9122 11V9C41.1278 9 41.663 9.04138 42.1572 9.47385C42.7025 9.95094 42.8162 10.5611 42.8162 10.916H40.8162H38.8162C38.8162 11.3269 38.946 11.9791 39.5232 12.4842C40.0495 12.9446 40.6327 13 40.9122 13V11ZM40.8162 10.916L42.8162 10.9131L42.8042 2.74106L40.8042 2.744L38.8042 2.74694L38.8162 10.9189L40.8162 10.916ZM40.8042 2.744H42.8042C42.8042 3.02029 42.7338 3.59485 42.2424 4.08621C41.7511 4.57757 41.1765 4.648 40.9002 4.648V2.648V0.648C40.5599 0.648 39.9374 0.734427 39.414 1.25779C38.8906 1.78115 38.8042 2.40371 38.8042 2.744H40.8042ZM40.9002 2.648V4.648H41.9802V2.648V0.648H40.9002V2.648ZM41.9802 2.648L40.1422 3.4364L42.1702 8.1644L44.0082 7.376L45.8463 6.5876L43.8183 1.8596L41.9802 2.648ZM44.0082 7.376L46.008 7.3501L45.9481 2.71809L43.9482 2.744L41.9484 2.7699L42.0084 7.4019L44.0082 7.376ZM43.9482 2.744H45.9482C45.9482 3.0853 45.8414 3.68908 45.3039 4.16682C44.8114 4.60465 44.2743 4.648 44.0562 4.648V2.648V0.648C43.7662 0.648 43.175 0.70735 42.6465 1.17718C42.073 1.68692 41.9482 2.3387 41.9482 2.744H43.9482ZM44.0562 2.648V4.648H45.2442V2.648V0.648H44.0562V2.648ZM45.2442 2.648V4.648C44.7802 4.648 44.1415 4.46299 43.6982 3.872C43.3361 3.38921 43.3162 2.90431 43.3162 2.744H45.3162H47.3162C47.3162 2.51969 47.2843 1.98679 46.8982 1.472C46.431 0.849008 45.7562 0.648 45.2442 0.648V2.648ZM45.3162 2.744L43.3162 2.74693L43.3282 10.9309L45.3282 10.928L47.3282 10.9251L47.3162 2.74107L45.3162 2.744ZM45.3282 10.928H43.3282C43.3282 10.7235 43.3633 10.1978 43.7768 9.70163C44.2485 9.13558 44.8744 9 45.2682 9V11V13C45.7021 13 46.358 12.8524 46.8497 12.2624C47.2832 11.7422 47.3282 11.1805 47.3282 10.928H45.3282ZM45.2682 11V9H44.2122V11V13H45.2682V11ZM44.2122 11L46.0222 10.1491L43.9462 5.73312L42.1362 6.584L40.3262 7.43488L42.4022 11.8509L44.2122 11ZM42.1362 6.584L40.1366 6.62288L40.2206 10.9429L42.2202 10.904L44.2198 10.8651L44.1358 6.54512L42.1362 6.584ZM42.2202 10.904H40.2202C40.2202 10.5627 40.327 9.95892 40.8645 9.48118C41.3571 9.04335 41.8942 9 42.1122 9V11V13C42.4023 13 42.9934 12.9407 43.5219 12.4708C44.0954 11.9611 44.2202 11.3093 44.2202 10.904H42.2202ZM42.1122 11V9H40.9122V11V13H42.1122V11ZM46.3706 10.94L44.3706 10.9371V10.94H46.3706ZM46.3826 2.696L48.3826 2.69891V2.696H46.3826ZM47.8226 4.1V2.1C46.7181 2.1 45.8226 2.99543 45.8226 4.1H47.8226ZM47.8226 5.972H45.8226C45.8226 7.07657 46.7181 7.972 47.8226 7.972V5.972ZM50.3306 6.02H48.3306C48.3306 6.0259 48.3307 6.0318 48.3307 6.0377L50.3306 6.02ZM50.3426 7.376H52.3426C52.3426 7.3701 52.3426 7.3642 52.3425 7.3583L50.3426 7.376ZM47.8226 7.424V5.424C46.7181 5.424 45.8226 6.31943 45.8226 7.424H47.8226ZM47.8226 9.524H45.8226C45.8226 10.6286 46.7181 11.524 47.8226 11.524V9.524ZM46.4186 11V9C46.844 9 47.4799 9.15505 47.9444 9.73561C48.3406 10.2309 48.3706 10.7463 48.3706 10.94H46.3706H44.3706C44.3706 11.1737 44.4086 11.7191 44.8209 12.2344C45.3013 12.8349 45.9612 13 46.4186 13V11ZM46.3706 10.94L48.3706 10.9429L48.3826 2.69891L46.3826 2.696L44.3826 2.69309L44.3706 10.9371L46.3706 10.94ZM46.3826 2.696H48.3826C48.3826 2.98829 48.3082 3.57485 47.8088 4.07421C47.3095 4.57357 46.7229 4.648 46.4306 4.648V2.648V0.648C46.1063 0.648 45.4958 0.730427 44.9804 1.24579C44.465 1.76115 44.3826 2.37171 44.3826 2.696H46.3826ZM46.4306 2.648V4.648H50.2826V2.648V0.648H46.4306V2.648ZM50.2826 2.648V4.648C49.8572 4.648 49.2213 4.49294 48.7569 3.91239C48.3606 3.41705 48.3306 2.90168 48.3306 2.708H50.3306H52.3306C52.3306 2.47432 52.2926 1.92895 51.8804 1.41361C51.3999 0.813055 50.74 0.648 50.2826 0.648V2.648ZM50.3306 2.708H48.3306V4.052H50.3306H52.3306V2.708H50.3306ZM50.3306 4.052H48.3306C48.3306 3.75971 48.405 3.17315 48.9044 2.67379C49.4038 2.17443 49.9903 2.1 50.2826 2.1V4.1V6.1C50.6069 6.1 51.2175 6.01757 51.7328 5.50221C52.2482 4.98685 52.3306 4.37629 52.3306 4.052H50.3306ZM50.2826 4.1V2.1H47.8226V4.1V6.1H50.2826V4.1ZM47.8226 4.1H45.8226V5.972H47.8226H49.8226V4.1H47.8226ZM47.8226 5.972V7.972H50.2826V5.972V3.972H47.8226V5.972ZM50.2826 5.972V7.972C49.9903 7.972 49.4038 7.89757 48.9044 7.39821C48.405 6.89885 48.3306 6.31229 48.3306 6.02H50.3306H52.3306C52.3306 5.69571 52.2482 5.08515 51.7328 4.56979C51.2175 4.05443 50.6069 3.972 50.2826 3.972V5.972ZM50.3306 6.02L48.3307 6.0377L48.3427 7.3937L50.3426 7.376L52.3425 7.3583L52.3305 6.0023L50.3306 6.02ZM50.3426 7.376H48.3426C48.3426 7.08371 48.4171 6.49715 48.9164 5.99779C49.4158 5.49843 50.0023 5.424 50.2946 5.424V7.424V9.424C50.6189 9.424 51.2295 9.34157 51.7448 8.82621C52.2602 8.31085 52.3426 7.70029 52.3426 7.376H50.3426ZM50.2946 7.424V5.424H47.8226V7.424V9.424H50.2946V7.424ZM47.8226 7.424H45.8226V9.524H47.8226H49.8226V7.424H47.8226ZM47.8226 9.524V11.524H50.2946V9.524V7.524H47.8226V9.524ZM50.2946 9.524V11.524C49.8692 11.524 49.2333 11.3689 48.7689 10.7884C48.3726 10.2931 48.3426 9.77769 48.3426 9.584H50.3426H52.3426C52.3426 9.35032 52.3046 8.80494 51.8924 8.28961C51.4119 7.68905 50.752 7.524 50.2946 7.524V9.524ZM50.3426 9.584H48.3426V10.952H50.3426H52.3426V9.584H50.3426ZM50.3426 10.952H48.3426C48.3426 10.6597 48.4171 10.0731 48.9164 9.57378C49.4158 9.07443 50.0023 9 50.2946 9V11V13C50.6189 13 51.2295 12.9176 51.7448 12.4022C52.2602 11.8869 52.3426 11.2763 52.3426 10.952H50.3426ZM50.2946 11V9H46.4186V11V13H50.2946V11ZM52.4417 10.796L51.3851 12.4941C51.3942 12.4998 51.4034 12.5054 51.4127 12.511L52.4417 10.796ZM51.5777 9.908L49.8366 10.8921C49.8419 10.9016 49.8473 10.911 49.8529 10.9204L51.5777 9.908ZM51.2657 8.696L49.2657 8.688V8.696H51.2657ZM51.2897 2.696L53.2897 2.704V2.696H51.2897ZM52.9817 9.392L51.4765 10.709C51.496 10.7313 51.516 10.7531 51.5364 10.7744L52.9817 9.392ZM54.2537 9.392L52.7794 8.04055L52.7767 8.04346L54.2537 9.392ZM55.9577 2.696L53.9577 2.696L53.9577 2.704L55.9577 2.696ZM55.9817 8.696H57.9817L57.9817 8.688L55.9817 8.696ZM55.6577 9.92L53.9329 8.9076C53.9273 8.91698 53.9219 8.92641 53.9166 8.93589L55.6577 9.92ZM54.8057 10.796L53.7767 9.08101C53.771 9.08443 53.7653 9.08788 53.7597 9.09135L54.8057 10.796ZM53.6177 11.12V9.12C53.5524 9.12 53.5166 9.10857 53.4707 9.08101L52.4417 10.796L51.4127 12.511C52.0868 12.9154 52.835 13.12 53.6177 13.12V11.12ZM52.4417 10.796L53.4983 9.09789C53.4151 9.04612 53.3557 8.98616 53.3025 8.8956L51.5777 9.908L49.8529 10.9204C50.2317 11.5658 50.7483 12.0979 51.3851 12.4941L52.4417 10.796ZM51.5777 9.908L53.3188 8.92389C53.2876 8.86864 53.2657 8.80581 53.2657 8.696H51.2657H49.2657C49.2657 9.46619 49.4518 10.2114 49.8366 10.8921L51.5777 9.908ZM51.2657 8.696L53.2657 8.704L53.2897 2.704L51.2897 2.696L49.2897 2.688L49.2657 8.688L51.2657 8.696ZM51.2897 2.696H53.2897C53.2897 2.98829 53.2153 3.57485 52.7159 4.07421C52.2165 4.57357 51.63 4.648 51.3377 4.648V2.648V0.648C51.0134 0.648 50.4028 0.730427 49.8875 1.24579C49.3721 1.76115 49.2897 2.37171 49.2897 2.696H51.2897ZM51.3377 2.648V4.648H52.6817V2.648V0.648H51.3377V2.648ZM52.6817 2.648V4.648C52.3894 4.648 51.8028 4.57357 51.3035 4.07421C50.8041 3.57485 50.7297 2.98829 50.7297 2.696H52.7297H54.7297C54.7297 2.37171 54.6473 1.76115 54.1319 1.24579C53.6165 0.730428 53.006 0.648 52.6817 0.648V2.648ZM52.7297 2.696H50.7297V8.696H52.7297H54.7297V2.696H52.7297ZM52.7297 8.696H50.7297C50.7297 9.41763 50.9673 10.1271 51.4765 10.709L52.9817 9.392L54.4868 8.07499C54.5607 8.15942 54.6278 8.26767 54.6732 8.39312C54.7179 8.51665 54.7297 8.62352 54.7297 8.696H52.7297ZM52.9817 9.392L51.5364 10.7744C52.0784 11.341 52.8076 11.668 53.6177 11.668V9.668V7.668C53.7473 7.668 53.9056 7.69347 54.0689 7.76431C54.231 7.83466 54.3497 7.92876 54.427 8.00955L52.9817 9.392ZM53.6177 9.668V11.668C54.4181 11.668 55.1721 11.3523 55.7307 10.7405L54.2537 9.392L52.7767 8.04346C52.8678 7.94373 53.0001 7.83912 53.1725 7.76431C53.3436 7.69005 53.5014 7.668 53.6177 7.668V9.668ZM54.2537 9.392L55.728 10.7434C56.2582 10.165 56.5177 9.444 56.5177 8.696H54.5177H52.5177C52.5177 8.61297 52.5318 8.49613 52.5817 8.36469C52.6321 8.23181 52.7046 8.12213 52.7794 8.04055L54.2537 9.392ZM54.5177 8.696H56.5177V2.696H54.5177H52.5177V8.696H54.5177ZM54.5177 2.696H56.5177C56.5177 2.98829 56.4433 3.57485 55.9439 4.07421C55.4445 4.57357 54.858 4.648 54.5657 4.648V2.648V0.648C54.2414 0.648 53.6308 0.730429 53.1155 1.24579C52.6001 1.76115 52.5177 2.37171 52.5177 2.696H54.5177ZM54.5657 2.648V4.648H55.9097V2.648V0.648H54.5657V2.648ZM55.9097 2.648V4.648C55.6174 4.648 55.0308 4.57357 54.5315 4.07421C54.0321 3.57485 53.9577 2.98829 53.9577 2.696H55.9577H57.9577C57.9577 2.37171 57.8753 1.76115 57.3599 1.24579C56.8445 0.730427 56.234 0.648 55.9097 0.648V2.648ZM55.9577 2.696L53.9577 2.704L53.9817 8.704L55.9817 8.696L57.9817 8.688L57.9577 2.688L55.9577 2.696ZM55.9817 8.696H53.9817C53.9817 8.80656 53.9595 8.86214 53.9329 8.9076L55.6577 9.92L57.3825 10.9324C57.7878 10.2419 57.9817 9.48144 57.9817 8.696H55.9817ZM55.6577 9.92L53.9166 8.93589C53.8775 9.00496 53.838 9.04424 53.7767 9.08101L54.8057 10.796L55.8347 12.511C56.4934 12.1158 57.0219 11.571 57.3988 10.9041L55.6577 9.92ZM54.8057 10.796L53.7597 9.09135C53.7432 9.10147 53.7136 9.12 53.6177 9.12V11.12V13.12C54.4018 13.12 55.1642 12.9225 55.8517 12.5006L54.8057 10.796ZM56.9292 10.94L54.9292 10.9342V10.94H56.9292ZM56.9532 2.696L58.9532 2.70182V2.696H56.9532ZM60.6132 2.972L59.5842 4.68699C59.5991 4.69589 59.614 4.70461 59.6291 4.71312L60.6132 2.972ZM61.4892 3.824L59.7742 4.85299C59.7777 4.85869 59.7811 4.86437 59.7846 4.87003L61.4892 3.824ZM61.6812 5.828L63.5512 6.53731C63.5538 6.53039 63.5564 6.52346 63.559 6.51651L61.6812 5.828ZM61.3692 6.428L62.9692 7.628C62.9785 7.6156 62.9877 7.60309 62.9967 7.59048L61.3692 6.428ZM61.0452 6.788L59.7648 5.25156C59.3472 5.59959 59.0892 6.10263 59.0503 6.64488C59.0114 7.18713 59.195 7.72184 59.5586 8.12593L61.0452 6.788ZM61.6932 8.48H59.6932L59.6932 8.48976L61.6932 8.48ZM61.7052 10.94H63.7052L63.7052 10.9302L61.7052 10.94ZM59.9292 7.736L58.4617 9.09482C58.4791 9.11362 58.4969 9.13209 58.515 9.15021L59.9292 7.736ZM58.3932 7.412V5.412C57.2913 5.412 56.397 6.30329 56.3932 7.4052L58.3932 7.412ZM58.3812 10.94L56.3812 10.9332V10.94H58.3812ZM58.3932 5.972H56.3932C56.3932 7.07657 57.2887 7.972 58.3932 7.972V5.972ZM60.0852 5.696L58.7014 4.25202V4.25202L60.0852 5.696ZM60.0852 4.364L58.671 5.77821C58.681 5.78824 58.6912 5.79816 58.7014 5.80798L60.0852 4.364ZM58.3932 4.088V2.088C57.2887 2.088 56.3932 2.98343 56.3932 4.088H58.3932ZM56.9772 11V9C57.4026 9 58.0385 9.15505 58.503 9.73561C58.8992 10.2309 58.9292 10.7463 58.9292 10.94H56.9292H54.9292C54.9292 11.1737 54.9672 11.7191 55.3795 12.2344C55.8599 12.8349 56.5198 13 56.9772 13V11ZM56.9292 10.94L58.9292 10.9458L58.9532 2.70182L56.9532 2.696L54.9532 2.69018L54.9292 10.9342L56.9292 10.94ZM56.9532 2.696H58.9532C58.9532 2.98829 58.8788 3.57485 58.3794 4.07421C57.8801 4.57357 57.2935 4.648 57.0012 4.648V2.648V0.648C56.6769 0.648 56.0664 0.730427 55.551 1.24579C55.0356 1.76115 54.9532 2.37171 54.9532 2.696H56.9532ZM57.0012 2.648V4.648H59.4252V2.648V0.648H57.0012V2.648ZM59.4252 2.648V4.648C59.5058 4.648 59.5444 4.66308 59.5842 4.68699L60.6132 2.972L61.6422 1.25701C60.9621 0.848921 60.2087 0.648 59.4252 0.648V2.648ZM60.6132 2.972L59.6291 4.71312C59.6982 4.75217 59.7375 4.79171 59.7742 4.85299L61.4892 3.824L63.2042 2.79501C62.809 2.13629 62.2643 1.60783 61.5973 1.23087L60.6132 2.972ZM61.4892 3.824L59.7846 4.87003C59.7911 4.88074 59.8132 4.9128 59.8132 5.024H61.8132H63.8132C63.8132 4.2392 63.6193 3.47126 63.1939 2.77797L61.4892 3.824ZM61.8132 5.024H59.8132C59.8132 5.12158 59.7989 5.15187 59.8035 5.13949L61.6812 5.828L63.559 6.51651C63.7395 6.02413 63.8132 5.51842 63.8132 5.024H61.8132ZM61.6812 5.828L59.8112 5.11869C59.7724 5.22106 59.744 5.26232 59.7418 5.26552L61.3692 6.428L62.9967 7.59048C63.2344 7.25768 63.414 6.89894 63.5512 6.53731L61.6812 5.828ZM61.3692 6.428L59.7692 5.228C59.7535 5.24895 59.7406 5.26532 59.7306 5.27765C59.7205 5.29003 59.7142 5.29722 59.7116 5.30007C59.709 5.30301 59.7115 5.29998 59.7193 5.29235C59.727 5.28487 59.7421 5.27048 59.7648 5.25156L61.0452 6.788L62.3256 8.32444C62.59 8.10409 62.8045 7.84758 62.9692 7.628L61.3692 6.428ZM61.0452 6.788L59.5586 8.12593C59.6588 8.23728 59.6932 8.3242 59.6932 8.48H61.6932H63.6932C63.6932 7.3398 63.2956 6.29872 62.5318 5.45007L61.0452 6.788ZM61.6932 8.48L59.6932 8.48976L59.7052 10.9498L61.7052 10.94L63.7052 10.9302L63.6932 8.47024L61.6932 8.48ZM61.7052 10.94H59.7052C59.7052 10.6517 59.7786 10.0681 60.276 9.57079C60.7734 9.07343 61.3569 9 61.6452 9V11V13C61.9735 13 62.5871 12.9166 63.1044 12.3992C63.6218 11.8819 63.7052 11.2683 63.7052 10.94H61.7052ZM61.6452 11V9H60.2892V11V13H61.6452V11ZM60.2892 11V9C60.4655 9 60.9624 9.02291 61.4532 9.391C62.0522 9.84024 62.2412 10.488 62.2412 10.964H60.2412H58.2412C58.2412 11.464 58.4382 12.1298 59.0532 12.591C59.56 12.9711 60.0809 13 60.2892 13V11ZM60.2412 10.964H62.2412V8.48H60.2412H58.2412V10.964H60.2412ZM60.2412 8.48H62.2412C62.2412 7.64899 61.9175 6.89587 61.3434 6.32179L59.9292 7.736L58.515 9.15021C58.4527 9.08789 58.3763 8.98853 58.3188 8.85145C58.261 8.71354 58.2412 8.58253 58.2412 8.48H60.2412ZM59.9292 7.736L61.3967 6.37718C60.8158 5.74982 60.0348 5.412 59.1852 5.412V7.412V9.412C59.0846 9.412 58.9455 9.39235 58.7947 9.32667C58.6436 9.26088 58.5327 9.17154 58.4617 9.09482L59.9292 7.736ZM59.1852 7.412V5.412H58.3932V7.412V9.412H59.1852V7.412ZM58.3932 7.412L56.3932 7.4052L56.3812 10.9332L58.3812 10.94L60.3812 10.9468L60.3932 7.4188L58.3932 7.412ZM58.3812 10.94H56.3812C56.3812 10.7463 56.4112 10.2309 56.8075 9.73561C57.2719 9.15505 57.9078 9 58.3332 9V11V13C58.7906 13 59.4505 12.8349 59.931 12.2344C60.3432 11.7191 60.3812 11.1737 60.3812 10.94H58.3812ZM58.3332 11V9H56.9772V11V13H58.3332V11ZM58.3932 5.972V7.972H59.4252V5.972V3.972H58.3932V5.972ZM59.4252 5.972V7.972C60.2285 7.972 60.9343 7.65243 61.469 7.13998L60.0852 5.696L58.7014 4.25202C58.7627 4.19332 58.8629 4.11709 59.0046 4.05784C59.1488 3.99754 59.2951 3.972 59.4252 3.972V5.972ZM60.0852 5.696L61.469 7.13998C62.0514 6.58188 62.3732 5.8377 62.3732 5.024H60.3732H58.3732C58.3732 4.90793 58.3956 4.75923 58.4629 4.60216C58.5301 4.4454 58.6212 4.32889 58.7014 4.25202L60.0852 5.696ZM60.3732 5.024H62.3732C62.3732 4.19949 62.0375 3.4648 61.469 2.92002L60.0852 4.364L58.7014 5.80798C58.6272 5.73686 58.5367 5.62406 58.4681 5.46689C58.3988 5.30809 58.3732 5.15268 58.3732 5.024H60.3732ZM60.0852 4.364L61.4994 2.94979C60.9473 2.39764 60.2214 2.088 59.4252 2.088V4.088V6.088C59.308 6.088 59.1626 6.0657 59.0106 6.00216C58.8593 5.93889 58.7462 5.85343 58.671 5.77821L60.0852 4.364ZM59.4252 4.088V2.088H58.3932V4.088V6.088H59.4252V4.088ZM58.3932 4.088H56.3932V5.972H58.3932H60.3932V4.088H58.3932ZM64.7515 8.732L62.7598 8.91385C62.7663 8.98447 62.7765 9.0547 62.7904 9.12423L64.7515 8.732ZM64.4995 5.972H62.4995C62.4995 6.03271 62.5023 6.09339 62.5078 6.15385L64.4995 5.972ZM65.9515 2.708L67.9515 2.71535V2.708H65.9515ZM65.9395 5.972L67.9312 6.15385C67.9365 6.09583 67.9393 6.03761 67.9395 5.97935L65.9395 5.972ZM65.6875 8.732L67.6487 9.12423C67.6626 9.0547 67.6728 8.98447 67.6792 8.91385L65.6875 8.732ZM64.8115 8.792V6.792C65.25 6.792 65.7712 6.94723 66.1867 7.36279C66.554 7.73008 66.6719 8.13568 66.7127 8.33977L64.7515 8.732L62.7904 9.12423C62.8392 9.36832 62.971 9.80392 63.3583 10.1912C63.7939 10.6268 64.341 10.792 64.8115 10.792V8.792ZM64.7515 8.732L66.7432 8.55015L66.4912 5.79015L64.4995 5.972L62.5078 6.15385L62.7598 8.91385L64.7515 8.732ZM64.4995 5.972H66.4995V2.708H64.4995H62.4995V5.972H64.4995ZM64.4995 2.708H66.4995C66.4995 2.90168 66.4695 3.41705 66.0733 3.91239C65.6088 4.49295 64.9729 4.648 64.5475 4.648V2.648V0.648C64.0901 0.648 63.4302 0.813052 62.9498 1.41361C62.5375 1.92895 62.4995 2.47431 62.4995 2.708H64.4995ZM64.5475 2.648V4.648H65.8915V2.648V0.648H64.5475V2.648ZM65.8915 2.648V4.648C65.6032 4.648 65.0197 4.57457 64.5223 4.07722C64.025 3.57986 63.9515 2.99629 63.9515 2.708H65.9515H67.9515C67.9515 2.37971 67.8681 1.76614 67.3507 1.24878C66.8334 0.731425 66.2198 0.648 65.8915 0.648V2.648ZM65.9515 2.708L63.9515 2.70065L63.9395 5.96465L65.9395 5.972L67.9395 5.97935L67.9515 2.71535L65.9515 2.708ZM65.9395 5.972L63.9478 5.79015L63.6958 8.55015L65.6875 8.732L67.6792 8.91385L67.9312 6.15385L65.9395 5.972ZM65.6875 8.732L63.7264 8.33977C63.7672 8.13568 63.885 7.73008 64.2523 7.36278C64.6679 6.94723 65.189 6.792 65.6275 6.792V8.792V10.792C66.098 10.792 66.6452 10.6268 67.0807 10.1912C67.468 9.80392 67.5999 9.36832 67.6487 9.12423L65.6875 8.732ZM65.6275 8.792V6.792H64.8115V8.792V10.792H65.6275V8.792ZM64.5475 11V9C64.9729 9 65.6088 9.15505 66.0733 9.73561C66.4695 10.2309 66.4995 10.7463 66.4995 10.94H64.4995H62.4995C62.4995 11.1737 62.5375 11.7191 62.9498 12.2344C63.4302 12.8349 64.0901 13 64.5475 13V11ZM64.4995 10.94H66.4995V9.632H64.4995H62.4995V10.94H64.4995ZM64.4995 9.632H66.4995C66.4995 9.92429 66.4251 10.5109 65.9257 11.0102C65.4264 11.5096 64.8398 11.584 64.5475 11.584V9.584V7.584C64.2232 7.584 63.6127 7.66643 63.0973 8.18179C62.582 8.69715 62.4995 9.30771 62.4995 9.632H64.4995ZM64.5475 9.584V11.584H65.8915V9.584V7.584H64.5475V9.584ZM65.8915 9.584V11.584C65.5992 11.584 65.0127 11.5096 64.5133 11.0102C64.014 10.5109 63.9395 9.92429 63.9395 9.632H65.9395H67.9395C67.9395 9.30771 67.8571 8.69714 67.3417 8.18179C66.8264 7.66643 66.2158 7.584 65.8915 7.584V9.584ZM65.9395 9.632H63.9395V10.94H65.9395H67.9395V9.632H65.9395ZM65.9395 10.94H63.9395C63.9395 10.7463 63.9695 10.2309 64.3658 9.73561C64.8302 9.15505 65.4661 9 65.8915 9V11V13C66.3489 13 67.0088 12.8349 67.4893 12.2344C67.9015 11.7191 67.9395 11.1737 67.9395 10.94H65.9395ZM65.8915 11V9H64.5475V11V13H65.8915V11Z" fill="black" mask="url(#path-1-outside-1_1010_7)"/>
<path d="M4.35206 11.12C3.91206 11.12 3.51206 11.012 3.15206 10.796C2.80006 10.572 2.52006 10.276 2.31206 9.908C2.10406 9.54 2.00006 9.128 2.00006 8.672L2.01206 4.928C2.01206 4.488 2.11206 4.088 2.31206 3.728C2.52006 3.36 2.80006 3.068 3.15206 2.852C3.51206 2.628 3.91206 2.516 4.35206 2.516C4.79206 2.516 5.18806 2.624 5.54006 2.84C5.89206 3.056 6.17206 3.348 6.38006 3.716C6.58806 4.076 6.69206 4.48 6.69206 4.928V5.48C6.69206 5.512 6.67606 5.528 6.64406 5.528H5.30006C5.26806 5.528 5.25206 5.512 5.25206 5.48V4.928C5.25206 4.664 5.16406 4.436 4.98806 4.244C4.82006 4.052 4.60806 3.956 4.35206 3.956C4.06406 3.956 3.84406 4.056 3.69206 4.256C3.54006 4.448 3.46406 4.672 3.46406 4.928V8.672C3.46406 8.968 3.54806 9.208 3.71606 9.392C3.89206 9.576 4.10406 9.668 4.35206 9.668C4.60806 9.668 4.82006 9.568 4.98806 9.368C5.16406 9.16 5.25206 8.928 5.25206 8.672V8.12C5.25206 8.088 5.26806 8.072 5.30006 8.072H6.65606C6.68806 8.072 6.70406 8.088 6.70406 8.12V8.672C6.70406 9.128 6.59606 9.54 6.38006 9.908C6.17206 10.276 5.89206 10.572 5.54006 10.796C5.18806 11.012 4.79206 11.12 4.35206 11.12ZM7.62956 11C7.59756 11 7.58156 10.98 7.58156 10.94L7.59356 2.696C7.59356 2.664 7.61356 2.648 7.65356 2.648H8.98556C9.02556 2.648 9.04556 2.664 9.04556 2.696L9.03356 5.96H10.8336V2.696C10.8336 2.664 10.8496 2.648 10.8816 2.648H12.2136C12.2536 2.648 12.2736 2.664 12.2736 2.696L12.2976 10.94C12.2976 10.98 12.2776 11 12.2376 11H10.8936C10.8536 11 10.8336 10.98 10.8336 10.94V7.412H9.03356V10.94C9.03356 10.98 9.01756 11 8.98556 11H7.62956ZM12.8689 10.94L14.3569 2.696C14.3649 2.664 14.3849 2.648 14.4169 2.648H16.1569C16.1889 2.648 16.2089 2.664 16.2169 2.696L17.6449 10.94C17.6529 10.98 17.6369 11 17.5969 11H16.2649C16.2329 11 16.2129 10.98 16.2049 10.94L16.0729 10.064H14.4409L14.3089 10.94C14.3009 10.98 14.2809 11 14.2489 11H12.9169C12.8849 11 12.8689 10.98 12.8689 10.94ZM14.6809 8.78H15.8329L15.3409 5.408L15.2689 4.964L15.2209 5.408L14.6809 8.78ZM18.446 11C18.414 11 18.398 10.98 18.398 10.94L18.422 2.696C18.422 2.664 18.438 2.648 18.47 2.648H20.894C21.326 2.648 21.722 2.756 22.082 2.972C22.45 3.18 22.742 3.464 22.958 3.824C23.174 4.176 23.282 4.576 23.282 5.024C23.282 5.32 23.238 5.588 23.15 5.828C23.062 6.06 22.958 6.26 22.838 6.428C22.718 6.588 22.61 6.708 22.514 6.788C22.946 7.268 23.162 7.832 23.162 8.48L23.174 10.94C23.174 10.98 23.154 11 23.114 11H21.758C21.726 11 21.71 10.988 21.71 10.964V8.48C21.71 8.192 21.606 7.944 21.398 7.736C21.198 7.52 20.95 7.412 20.654 7.412H19.862L19.85 10.94C19.85 10.98 19.834 11 19.802 11H18.446ZM19.862 5.972H20.894C21.142 5.972 21.362 5.88 21.554 5.696C21.746 5.512 21.842 5.288 21.842 5.024C21.842 4.768 21.746 4.548 21.554 4.364C21.37 4.18 21.15 4.088 20.894 4.088H19.862V5.972ZM24.235 11C24.203 11 24.187 10.98 24.187 10.94L24.211 2.696C24.211 2.664 24.227 2.648 24.259 2.648H26.563C27.019 2.648 27.427 2.76 27.787 2.984C28.147 3.2 28.431 3.488 28.639 3.848C28.847 4.208 28.951 4.6 28.951 5.024C28.951 5.368 28.871 5.688 28.711 5.984C28.559 6.28 28.375 6.52 28.159 6.704C28.391 6.936 28.571 7.204 28.699 7.508C28.827 7.812 28.891 8.132 28.891 8.468C28.891 8.932 28.779 9.356 28.555 9.74C28.331 10.124 28.027 10.432 27.643 10.664C27.267 10.888 26.847 11 26.383 11H24.235ZM25.651 5.96H26.563C26.843 5.96 27.067 5.864 27.235 5.672C27.411 5.472 27.499 5.256 27.499 5.024C27.499 4.768 27.407 4.548 27.223 4.364C27.039 4.172 26.819 4.076 26.563 4.076H25.651V5.96ZM25.639 9.536H26.383C26.671 9.536 26.919 9.432 27.127 9.224C27.335 9.008 27.439 8.756 27.439 8.468C27.439 8.18 27.335 7.932 27.127 7.724C26.919 7.516 26.671 7.412 26.383 7.412H25.651L25.639 9.536ZM31.9734 11.12C31.5414 11.12 31.1454 11.012 30.7854 10.796C30.4334 10.572 30.1494 10.28 29.9334 9.92C29.7174 9.552 29.6094 9.148 29.6094 8.708L29.6214 4.904C29.6214 4.464 29.7254 4.064 29.9334 3.704C30.1494 3.344 30.4374 3.056 30.7974 2.84C31.1574 2.624 31.5494 2.516 31.9734 2.516C32.4054 2.516 32.7974 2.624 33.1494 2.84C33.5014 3.056 33.7814 3.344 33.9894 3.704C34.2054 4.064 34.3134 4.464 34.3134 4.904L34.3254 8.708C34.3254 9.148 34.2174 9.552 34.0014 9.92C33.7934 10.28 33.5094 10.572 33.1494 10.796C32.7974 11.012 32.4054 11.12 31.9734 11.12ZM31.9734 9.668C32.2134 9.668 32.4214 9.572 32.5974 9.38C32.7814 9.18 32.8734 8.956 32.8734 8.708L32.8614 4.904C32.8614 4.64 32.7774 4.416 32.6094 4.232C32.4414 4.048 32.2294 3.956 31.9734 3.956C31.7254 3.956 31.5134 4.048 31.3374 4.232C31.1614 4.408 31.0734 4.632 31.0734 4.904V8.708C31.0734 8.972 31.1614 9.2 31.3374 9.392C31.5134 9.576 31.7254 9.668 31.9734 9.668ZM35.3458 11C35.2818 11 35.2498 10.972 35.2498 10.916L35.2378 2.744C35.2378 2.68 35.2698 2.648 35.3338 2.648H36.4138L38.4418 7.376L38.3818 2.744C38.3818 2.68 38.4178 2.648 38.4898 2.648H39.6778C39.7258 2.648 39.7498 2.68 39.7498 2.744L39.7618 10.928C39.7618 10.976 39.7418 11 39.7018 11H38.6458L36.5698 6.584L36.6538 10.904C36.6538 10.968 36.6178 11 36.5458 11H35.3458ZM40.9122 11C40.8482 11 40.8162 10.972 40.8162 10.916L40.8042 2.744C40.8042 2.68 40.8362 2.648 40.9002 2.648H41.9802L44.0082 7.376L43.9482 2.744C43.9482 2.68 43.9842 2.648 44.0562 2.648H45.2442C45.2922 2.648 45.3162 2.68 45.3162 2.744L45.3282 10.928C45.3282 10.976 45.3082 11 45.2682 11H44.2122L42.1362 6.584L42.2202 10.904C42.2202 10.968 42.1842 11 42.1122 11H40.9122ZM46.4186 11C46.3866 11 46.3706 10.98 46.3706 10.94L46.3826 2.696C46.3826 2.664 46.3986 2.648 46.4306 2.648H50.2826C50.3146 2.648 50.3306 2.668 50.3306 2.708V4.052C50.3306 4.084 50.3146 4.1 50.2826 4.1H47.8226V5.972H50.2826C50.3146 5.972 50.3306 5.988 50.3306 6.02L50.3426 7.376C50.3426 7.408 50.3266 7.424 50.2946 7.424H47.8226V9.524H50.2946C50.3266 9.524 50.3426 9.544 50.3426 9.584V10.952C50.3426 10.984 50.3266 11 50.2946 11H46.4186ZM53.6177 11.12C53.1937 11.12 52.8017 11.012 52.4417 10.796C52.0817 10.572 51.7937 10.276 51.5777 9.908C51.3697 9.54 51.2657 9.136 51.2657 8.696L51.2897 2.696C51.2897 2.664 51.3057 2.648 51.3377 2.648H52.6817C52.7137 2.648 52.7297 2.664 52.7297 2.696V8.696C52.7297 8.968 52.8137 9.2 52.9817 9.392C53.1577 9.576 53.3697 9.668 53.6177 9.668C53.8737 9.668 54.0857 9.576 54.2537 9.392C54.4297 9.2 54.5177 8.968 54.5177 8.696V2.696C54.5177 2.664 54.5337 2.648 54.5657 2.648H55.9097C55.9417 2.648 55.9577 2.664 55.9577 2.696L55.9817 8.696C55.9817 9.144 55.8737 9.552 55.6577 9.92C55.4497 10.288 55.1657 10.58 54.8057 10.796C54.4537 11.012 54.0577 11.12 53.6177 11.12ZM56.9772 11C56.9452 11 56.9292 10.98 56.9292 10.94L56.9532 2.696C56.9532 2.664 56.9692 2.648 57.0012 2.648H59.4252C59.8572 2.648 60.2532 2.756 60.6132 2.972C60.9812 3.18 61.2732 3.464 61.4892 3.824C61.7052 4.176 61.8132 4.576 61.8132 5.024C61.8132 5.32 61.7692 5.588 61.6812 5.828C61.5932 6.06 61.4892 6.26 61.3692 6.428C61.2492 6.588 61.1412 6.708 61.0452 6.788C61.4772 7.268 61.6932 7.832 61.6932 8.48L61.7052 10.94C61.7052 10.98 61.6852 11 61.6452 11H60.2892C60.2572 11 60.2412 10.988 60.2412 10.964V8.48C60.2412 8.192 60.1372 7.944 59.9292 7.736C59.7292 7.52 59.4812 7.412 59.1852 7.412H58.3932L58.3812 10.94C58.3812 10.98 58.3652 11 58.3332 11H56.9772ZM58.3932 5.972H59.4252C59.6732 5.972 59.8932 5.88 60.0852 5.696C60.2772 5.512 60.3732 5.288 60.3732 5.024C60.3732 4.768 60.2772 4.548 60.0852 4.364C59.9012 4.18 59.6812 4.088 59.4252 4.088H58.3932V5.972ZM64.8115 8.792C64.7795 8.792 64.7595 8.772 64.7515 8.732L64.4995 5.972V2.708C64.4995 2.668 64.5155 2.648 64.5475 2.648H65.8915C65.9315 2.648 65.9515 2.668 65.9515 2.708L65.9395 5.972L65.6875 8.732C65.6795 8.772 65.6595 8.792 65.6275 8.792H64.8115ZM64.5475 11C64.5155 11 64.4995 10.98 64.4995 10.94V9.632C64.4995 9.6 64.5155 9.584 64.5475 9.584H65.8915C65.9235 9.584 65.9395 9.6 65.9395 9.632V10.94C65.9395 10.98 65.9235 11 65.8915 11H64.5475Z" fill="white"/>
</svg>
