<svg width="32" height="15" viewBox="0 0 32 15" fill="none" xmlns="http://www.w3.org/2000/svg">
  <path d="M2 2V13H7" stroke="black" stroke-width="3" stroke-linecap="round" stroke-linejoin="round"/>
  <path d="M2 2V13H7" stroke="white" stroke-width="1.5" stroke-linecap="round" stroke-linejoin="round"/>
  <path d="M13 2.5C10.5 2.5 8.5 4.5 8.5 7.5C8.5 10.5 10.5 12.5 13 12.5C15.5 12.5 17.5 10.5 17.5 7.5C17.5 4.5 15.5 2.5 13 2.5ZM13 4.5C14.5 4.5 15.5 5.5 15.5 7.5C15.5 9.5 14.5 10.5 13 10.5C11.5 10.5 10.5 9.5 10.5 7.5C10.5 5.5 11.5 4.5 13 4.5Z" fill="white" stroke="black" stroke-width="1.5" stroke-linejoin="round"/>
  <path d="M19 2V13H24" stroke="black" stroke-width="3" stroke-linecap="round" stroke-linejoin="round"/>
  <path d="M19 2V13H24" stroke="white" stroke-width="1.5" stroke-linecap="round" stroke-linejoin="round"/>
  <path d="M29 2V9M29 12V13" stroke="black" stroke-width="3" stroke-linecap="round" stroke-linejoin="round"/>
  <path d="M29 2V9M29 12V13" stroke="white" stroke-width="1.5" stroke-linecap="round" stroke-linejoin="round"/>
  <path d="M13 2.5C10.5 2.5 8.5 4.5 8.5 7.5C8.5 10.5 10.5 12.5 13 12.5C15.5 12.5 17.5 10.5 17.5 7.5C17.5 4.5 15.5 2.5 13 2.5ZM13 4.5C14.5 4.5 15.5 5.5 15.5 7.5C15.5 9.5 14.5 10.5 13 10.5C11.5 10.5 10.5 9.5 10.5 7.5C10.5 5.5 11.5 4.5 13 4.5Z" fill="white"/>
</svg>
