<svg width="34" height="15" viewBox="0 0 34 15" fill="none" xmlns="http://www.w3.org/2000/svg">
  <path d="M2 13V2L6 8L10 2V13" stroke="black" stroke-width="3" stroke-linecap="round" stroke-linejoin="round"/>
  <path d="M2 13V2L6 8L10 2V13" stroke="white" stroke-width="1.5" stroke-linecap="round" stroke-linejoin="round"/>
  <path d="M13 2V13H16C18.5 13 20.5 11 20.5 7.5C20.5 4 18.5 2 16 2H13ZM15.5 4H16C17.5 4 18.5 5 18.5 7.5C18.5 10 17.5 11 16 11H15.5V4Z" fill="white" stroke="black" stroke-width="1.5" stroke-linejoin="round"/>
  <path d="M23 13V2H27C29 2 30.5 3.5 30.5 5.5C30.5 7.5 29 8.5 27 8.5H23M27 8.5L31 13" stroke="black" stroke-width="3" stroke-linecap="round" stroke-linejoin="round"/>
  <path d="M23 13V2H27C29 2 30.5 3.5 30.5 5.5C30.5 7.5 29 8.5 27 8.5H23M27 8.5L31 13" stroke="white" stroke-width="1.5" stroke-linecap="round" stroke-linejoin="round"/>
  <path d="M13 2V13H16C18.5 13 20.5 11 20.5 7.5C20.5 4 18.5 2 16 2H13ZM15.5 4H16C17.5 4 18.5 5 18.5 7.5C18.5 10 17.5 11 16 11H15.5V4Z" fill="white"/>
</svg>
