<svg width="28" height="15" viewBox="0 0 28 15" fill="none" xmlns="http://www.w3.org/2000/svg">
<mask id="path-1-outside-1_1010_9" maskUnits="userSpaceOnUse" x="-0.480469" y="0" width="29" height="13" fill="black">
<rect fill="white" x="-0.480469" width="29" height="13"/>
<path d="M2.04753 11C2.01553 11 1.99953 10.98 1.99953 10.94L2.02353 2.696C2.02353 2.664 2.03953 2.648 2.07153 2.648H3.53553C3.56753 2.648 3.59553 2.664 3.61953 2.696L4.71153 4.28L5.80353 2.696C5.82753 2.664 5.85553 2.648 5.88753 2.648H7.36353C7.39553 2.648 7.41153 2.664 7.41153 2.696L7.43553 10.94C7.43553 10.98 7.41953 11 7.38753 11H6.03153C5.99953 11 5.98353 10.98 5.98353 10.94L5.97153 4.82L4.71153 6.644L3.46353 4.82L3.45153 10.94C3.45153 10.98 3.43553 11 3.40353 11H2.04753ZM8.50484 11C8.46484 11 8.44484 10.98 8.44484 10.94L8.45684 2.696C8.45684 2.664 8.47284 2.648 8.50484 2.648H9.84884C9.88084 2.648 9.89684 2.664 9.89684 2.696L9.90884 10.94C9.90884 10.98 9.89284 11 9.86084 11H8.50484ZM10.5564 10.94L12.0444 2.696C12.0524 2.664 12.0724 2.648 12.1044 2.648H13.8444C13.8764 2.648 13.8964 2.664 13.9044 2.696L15.3324 10.94C15.3404 10.98 15.3244 11 15.2844 11H13.9524C13.9204 11 13.9004 10.98 13.8924 10.94L13.7604 10.064H12.1284L11.9964 10.94C11.9884 10.98 11.9684 11 11.9364 11H10.6044C10.5724 11 10.5564 10.98 10.5564 10.94ZM12.3684 8.78H13.5204L13.0284 5.408L12.9564 4.964L12.9084 5.408L12.3684 8.78ZM16.1335 11C16.1015 11 16.0855 10.98 16.0855 10.94L16.1095 2.696C16.1095 2.664 16.1255 2.648 16.1575 2.648H17.6215C17.6535 2.648 17.6815 2.664 17.7055 2.696L18.7975 4.28L19.8895 2.696C19.9135 2.664 19.9415 2.648 19.9735 2.648H21.4495C21.4815 2.648 21.4975 2.664 21.4975 2.696L21.5215 10.94C21.5215 10.98 21.5055 11 21.4735 11H20.1175C20.0855 11 20.0695 10.98 20.0695 10.94L20.0575 4.82L18.7975 6.644L17.5495 4.82L17.5375 10.94C17.5375 10.98 17.5215 11 17.4895 11H16.1335ZM24.624 8.792C24.592 8.792 24.572 8.772 24.564 8.732L24.312 5.972V2.708C24.312 2.668 24.328 2.648 24.36 2.648H25.704C25.744 2.648 25.764 2.668 25.764 2.708L25.752 5.972L25.5 8.732C25.492 8.772 25.472 8.792 25.44 8.792H24.624ZM24.36 11C24.328 11 24.312 10.98 24.312 10.94V9.632C24.312 9.6 24.328 9.584 24.36 9.584H25.704C25.736 9.584 25.752 9.6 25.752 9.632V10.94C25.752 10.98 25.736 11 25.704 11H24.36Z"/>
</mask>
<path d="M2.04753 11C2.01553 11 1.99953 10.98 1.99953 10.94L2.02353 2.696C2.02353 2.664 2.03953 2.648 2.07153 2.648H3.53553C3.56753 2.648 3.59553 2.664 3.61953 2.696L4.71153 4.28L5.80353 2.696C5.82753 2.664 5.85553 2.648 5.88753 2.648H7.36353C7.39553 2.648 7.41153 2.664 7.41153 2.696L7.43553 10.94C7.43553 10.98 7.41953 11 7.38753 11H6.03153C5.99953 11 5.98353 10.98 5.98353 10.94L5.97153 4.82L4.71153 6.644L3.46353 4.82L3.45153 10.94C3.45153 10.98 3.43553 11 3.40353 11H2.04753ZM8.50484 11C8.46484 11 8.44484 10.98 8.44484 10.94L8.45684 2.696C8.45684 2.664 8.47284 2.648 8.50484 2.648H9.84884C9.88084 2.648 9.89684 2.664 9.89684 2.696L9.90884 10.94C9.90884 10.98 9.89284 11 9.86084 11H8.50484ZM10.5564 10.94L12.0444 2.696C12.0524 2.664 12.0724 2.648 12.1044 2.648H13.8444C13.8764 2.648 13.8964 2.664 13.9044 2.696L15.3324 10.94C15.3404 10.98 15.3244 11 15.2844 11H13.9524C13.9204 11 13.9004 10.98 13.8924 10.94L13.7604 10.064H12.1284L11.9964 10.94C11.9884 10.98 11.9684 11 11.9364 11H10.6044C10.5724 11 10.5564 10.98 10.5564 10.94ZM12.3684 8.78H13.5204L13.0284 5.408L12.9564 4.964L12.9084 5.408L12.3684 8.78ZM16.1335 11C16.1015 11 16.0855 10.98 16.0855 10.94L16.1095 2.696C16.1095 2.664 16.1255 2.648 16.1575 2.648H17.6215C17.6535 2.648 17.6815 2.664 17.7055 2.696L18.7975 4.28L19.8895 2.696C19.9135 2.664 19.9415 2.648 19.9735 2.648H21.4495C21.4815 2.648 21.4975 2.664 21.4975 2.696L21.5215 10.94C21.5215 10.98 21.5055 11 21.4735 11H20.1175C20.0855 11 20.0695 10.98 20.0695 10.94L20.0575 4.82L18.7975 6.644L17.5495 4.82L17.5375 10.94C17.5375 10.98 17.5215 11 17.4895 11H16.1335ZM24.624 8.792C24.592 8.792 24.572 8.772 24.564 8.732L24.312 5.972V2.708C24.312 2.668 24.328 2.648 24.36 2.648H25.704C25.744 2.648 25.764 2.668 25.764 2.708L25.752 5.972L25.5 8.732C25.492 8.772 25.472 8.792 25.44 8.792H24.624ZM24.36 11C24.328 11 24.312 10.98 24.312 10.94V9.632C24.312 9.6 24.328 9.584 24.36 9.584H25.704C25.736 9.584 25.752 9.6 25.752 9.632V10.94C25.752 10.98 25.736 11 25.704 11H24.36Z" fill="white"/>
<path d="M1.99953 10.94L-0.000468731 10.9342V10.94H1.99953ZM2.02353 2.696L4.02353 2.70182V2.696H2.02353ZM3.61953 2.696L5.26616 1.56083C5.25105 1.53891 5.2355 1.5173 5.21953 1.496L3.61953 2.696ZM4.71153 4.28L3.0649 5.41517C3.4382 5.95665 4.05385 6.28 4.71153 6.28C5.36922 6.28 5.98486 5.95666 6.35816 5.41517L4.71153 4.28ZM5.80353 2.696L4.20353 1.496C4.18756 1.5173 4.17201 1.53891 4.1569 1.56083L5.80353 2.696ZM7.41153 2.696L5.41152 2.696L5.41154 2.70182L7.41153 2.696ZM7.43553 10.94H9.43554L9.43552 10.9342L7.43553 10.94ZM5.98353 10.94H7.98354L7.98353 10.9361L5.98353 10.94ZM5.97153 4.82L7.97153 4.81608C7.96981 3.94157 7.40013 3.16959 6.56501 2.91008C5.7299 2.65058 4.82302 2.96374 4.32598 3.68327L5.97153 4.82ZM4.71153 6.644L3.06092 7.77337C3.43282 8.31691 4.04847 8.64252 4.70706 8.644C5.36566 8.64547 5.98276 8.32261 6.35708 7.78073L4.71153 6.644ZM3.46353 4.82L5.11415 3.69063C4.61939 2.96753 3.71159 2.65064 2.87432 2.90876C2.03704 3.16689 1.46525 3.93992 1.46354 4.81608L3.46353 4.82ZM3.45153 10.94L1.45153 10.9361V10.94H3.45153ZM2.04753 11V9C2.47294 9 3.10882 9.15505 3.57327 9.73561C3.96954 10.2309 3.99953 10.7463 3.99953 10.94H1.99953H-0.000468731C-0.000468731 11.1737 0.0375241 11.7191 0.449794 12.2344C0.930239 12.8349 1.59012 13 2.04753 13V11ZM1.99953 10.94L3.99952 10.9458L4.02352 2.70182L2.02353 2.696L0.0235398 2.69018L-0.000460267 10.9342L1.99953 10.94ZM2.02353 2.696H4.02353C4.02353 2.98829 3.9491 3.57485 3.44975 4.07421C2.95039 4.57357 2.36382 4.648 2.07153 4.648V2.648V0.648C1.74724 0.648 1.13668 0.730427 0.621316 1.24579C0.105958 1.76115 0.0235313 2.37171 0.0235313 2.696H2.02353ZM2.07153 2.648V4.648H3.53553V2.648V0.648H2.07153V2.648ZM3.53553 2.648V4.648C3.20064 4.648 2.87398 4.55976 2.58825 4.39648C2.31551 4.24063 2.13315 4.04749 2.01953 3.896L3.61953 2.696L5.21953 1.496C4.92256 1.10004 4.35325 0.648 3.53553 0.648V2.648ZM3.61953 2.696L1.9729 3.83117L3.0649 5.41517L4.71153 4.28L6.35816 3.14483L5.26616 1.56083L3.61953 2.696ZM4.71153 4.28L6.35816 5.41517L7.45016 3.83117L5.80353 2.696L4.1569 1.56083L3.0649 3.14483L4.71153 4.28ZM5.80353 2.696L7.40353 3.896C7.28992 4.04748 7.10755 4.24063 6.83481 4.39648C6.54909 4.55976 6.22242 4.648 5.88753 4.648V2.648V0.648C5.06982 0.648 4.5005 1.10004 4.20353 1.496L5.80353 2.696ZM5.88753 2.648V4.648H7.36353V2.648V0.648H5.88753V2.648ZM7.36353 2.648V4.648C7.07124 4.648 6.48468 4.57357 5.98532 4.07421C5.48596 3.57485 5.41153 2.98829 5.41153 2.696H7.41153H9.41153C9.41153 2.37171 9.3291 1.76115 8.81375 1.24579C8.29839 0.730427 7.68782 0.648 7.36353 0.648V2.648ZM7.41153 2.696L5.41154 2.70182L5.43554 10.9458L7.43553 10.94L9.43552 10.9342L9.41152 2.69018L7.41153 2.696ZM7.43553 10.94H5.43553C5.43553 10.7463 5.46552 10.2309 5.86179 9.73561C6.32624 9.15505 6.96212 9 7.38753 9V11V13C7.84494 13 8.50482 12.8349 8.98527 12.2344C9.39754 11.7191 9.43553 11.1737 9.43553 10.94H7.43553ZM7.38753 11V9H6.03153V11V13H7.38753V11ZM6.03153 11V9C6.45694 9 7.09282 9.15505 7.55727 9.73561C7.95354 10.2309 7.98353 10.7463 7.98353 10.94H5.98353H3.98353C3.98353 11.1737 4.02152 11.7191 4.43379 12.2344C4.91424 12.8349 5.57412 13 6.03153 13V11ZM5.98353 10.94L7.98353 10.9361L7.97153 4.81608L5.97153 4.82L3.97154 4.82392L3.98354 10.9439L5.98353 10.94ZM5.97153 4.82L4.32598 3.68327L3.06598 5.50727L4.71153 6.644L6.35708 7.78073L7.61708 5.95673L5.97153 4.82ZM4.71153 6.644L6.36215 5.51463L5.11415 3.69063L3.46353 4.82L1.81292 5.94937L3.06092 7.77337L4.71153 6.644ZM3.46353 4.82L1.46354 4.81608L1.45154 10.9361L3.45153 10.94L5.45153 10.9439L5.46353 4.82392L3.46353 4.82ZM3.45153 10.94H1.45153C1.45153 10.7463 1.48152 10.2309 1.87779 9.73561C2.34224 9.15505 2.97812 9 3.40353 9V11V13C3.86094 13 4.52082 12.8349 5.00127 12.2344C5.41354 11.7191 5.45153 11.1737 5.45153 10.94H3.45153ZM3.40353 11V9H2.04753V11V13H3.40353V11ZM8.44484 10.94L6.44484 10.9371V10.94H8.44484ZM8.45684 2.696L10.4568 2.69891V2.696H8.45684ZM9.89684 2.696L7.89684 2.696L7.89685 2.69891L9.89684 2.696ZM9.90884 10.94H11.9088L11.9088 10.9371L9.90884 10.94ZM8.50484 11V9C8.79313 9 9.3767 9.07343 9.87406 9.57079C10.3714 10.0681 10.4448 10.6517 10.4448 10.94H8.44484H6.44484C6.44484 11.2683 6.52827 11.8819 7.04563 12.3992C7.56299 12.9166 8.17655 13 8.50484 13V11ZM8.44484 10.94L10.4448 10.9429L10.4568 2.69891L8.45684 2.696L6.45685 2.69309L6.44485 10.9371L8.44484 10.94ZM8.45684 2.696H10.4568C10.4568 2.98829 10.3824 3.57485 9.88306 4.07421C9.3837 4.57357 8.79713 4.648 8.50484 4.648V2.648V0.648C8.18055 0.648 7.56999 0.730427 7.05463 1.24579C6.53927 1.76115 6.45684 2.37171 6.45684 2.696H8.45684ZM8.50484 2.648V4.648H9.84884V2.648V0.648H8.50484V2.648ZM9.84884 2.648V4.648C9.55655 4.648 8.96999 4.57357 8.47063 4.07421C7.97127 3.57485 7.89684 2.98829 7.89684 2.696H9.89684H11.8968C11.8968 2.37171 11.8144 1.76115 11.2991 1.24579C10.7837 0.730427 10.1731 0.648 9.84884 0.648V2.648ZM9.89684 2.696L7.89685 2.69891L7.90885 10.9429L9.90884 10.94L11.9088 10.9371L11.8968 2.69309L9.89684 2.696ZM9.90884 10.94H7.90884C7.90884 10.7463 7.93884 10.2309 8.3351 9.73561C8.79955 9.15505 9.43543 9 9.86084 9V11V13C10.3183 13 10.9781 12.8349 11.4586 12.2344C11.8709 11.7191 11.9088 11.1737 11.9088 10.94H9.90884ZM9.86084 11V9H8.50484V11V13H9.86084V11ZM10.5564 10.94L8.58818 10.5848C8.56702 10.702 8.55638 10.8209 8.55638 10.94H10.5564ZM12.0444 2.696L10.1041 2.21093C10.0934 2.25388 10.084 2.29718 10.0762 2.34075L12.0444 2.696ZM13.9044 2.696L15.875 2.35465C15.8667 2.30638 15.8565 2.25844 15.8447 2.21092L13.9044 2.696ZM15.3324 10.94L13.3617 11.2814C13.3647 11.2984 13.3678 11.3153 13.3712 11.3322L15.3324 10.94ZM13.8924 10.94L11.9147 11.238C11.9195 11.2695 11.925 11.301 11.9312 11.3322L13.8924 10.94ZM13.7604 10.064L15.738 9.76599C15.5906 8.78756 14.7499 8.064 13.7604 8.064V10.064ZM12.1284 10.064V8.064C11.1389 8.064 10.2981 8.78756 10.1507 9.76599L12.1284 10.064ZM11.9964 10.94L13.9575 11.3322C13.9638 11.301 13.9693 11.2695 13.974 11.238L11.9964 10.94ZM12.3684 8.78L10.3935 8.46375C10.3009 9.04206 10.4665 9.63191 10.8464 10.0776C11.2264 10.5233 11.7827 10.78 12.3684 10.78V8.78ZM13.5204 8.78V10.78C14.1012 10.78 14.6533 10.5275 15.0332 10.0881C15.4131 9.64879 15.5833 9.06598 15.4994 8.49124L13.5204 8.78ZM13.0284 5.408L15.0074 5.11924C15.0059 5.10877 15.0043 5.09831 15.0026 5.08786L13.0284 5.408ZM12.9564 4.964L14.9306 4.64386C14.7703 3.65564 13.9041 2.93814 12.9033 2.9647C11.9025 2.99127 11.0756 3.7537 10.968 4.74904L12.9564 4.964ZM12.9084 5.408L14.8832 5.72425C14.8886 5.69061 14.8931 5.65684 14.8968 5.62296L12.9084 5.408ZM10.5564 10.94L12.5246 11.2952L14.0126 3.05125L12.0444 2.696L10.0762 2.34075L8.58818 10.5848L10.5564 10.94ZM12.0444 2.696L13.9847 3.18107C13.9132 3.46678 13.7341 3.88626 13.3148 4.22174C12.8891 4.56224 12.4266 4.648 12.1044 4.648V2.648V0.648C11.7501 0.648 11.2616 0.741758 10.816 1.09826C10.3766 1.44974 10.1835 1.89322 10.1041 2.21093L12.0444 2.696ZM12.1044 2.648V4.648H13.8444V2.648V0.648H12.1044V2.648ZM13.8444 2.648V4.648C13.5221 4.648 13.0596 4.56224 12.634 4.22174C12.2146 3.88626 12.0355 3.46679 11.9641 3.18108L13.9044 2.696L15.8447 2.21092C15.7652 1.89321 15.5721 1.44974 15.1328 1.09826C14.6871 0.741757 14.1986 0.648 13.8444 0.648V2.648ZM13.9044 2.696L11.9337 3.03735L13.3617 11.2814L15.3324 10.94L17.303 10.5986L15.875 2.35465L13.9044 2.696ZM15.3324 10.94L13.3712 11.3322C13.3274 11.1133 13.2311 10.4026 13.7646 9.73561C14.3087 9.0555 15.0408 9 15.2844 9V11V13C15.5679 13 16.328 12.9345 16.8881 12.2344C17.4377 11.5474 17.3453 10.8067 17.2935 10.5478L15.3324 10.94ZM15.2844 11V9H13.9524V11V13H15.2844V11ZM13.9524 11V9C14.3909 9 14.912 9.15523 15.3276 9.57079C15.6949 9.93808 15.8127 10.3437 15.8535 10.5478L13.8924 10.94L11.9312 11.3322C11.98 11.5763 12.1119 12.0119 12.4992 12.3992C12.9347 12.8348 13.4819 13 13.9524 13V11ZM13.8924 10.94L15.87 10.642L15.738 9.76599L13.7604 10.064L11.7827 10.362L11.9147 11.238L13.8924 10.94ZM13.7604 10.064V8.064H12.1284V10.064V12.064H13.7604V10.064ZM12.1284 10.064L10.1507 9.76599L10.0187 10.642L11.9964 10.94L13.974 11.238L14.106 10.362L12.1284 10.064ZM11.9964 10.94L10.0352 10.5478C10.076 10.3437 10.1939 9.93808 10.5612 9.57079C10.9767 9.15523 11.4979 9 11.9364 9V11V13C12.4069 13 12.954 12.8348 13.3896 12.3992C13.7769 12.0119 13.9087 11.5763 13.9575 11.3322L11.9964 10.94ZM11.9364 11V9H10.6044V11V13H11.9364V11ZM10.6044 11V9C11.0298 9 11.6657 9.15505 12.1301 9.73561C12.5264 10.2309 12.5564 10.7463 12.5564 10.94H10.5564H8.55638C8.55638 11.1737 8.59437 11.7191 9.00664 12.2344C9.48708 12.8349 10.147 13 10.6044 13V11ZM12.3684 8.78V10.78H13.5204V8.78V6.78H12.3684V8.78ZM13.5204 8.78L15.4994 8.49124L15.0074 5.11924L13.0284 5.408L11.0493 5.69676L11.5413 9.06876L13.5204 8.78ZM13.0284 5.408L15.0026 5.08786L14.9306 4.64386L12.9564 4.964L10.9822 5.28414L11.0542 5.72814L13.0284 5.408ZM12.9564 4.964L10.968 4.74904L10.92 5.19304L12.9084 5.408L14.8968 5.62296L14.9448 5.17896L12.9564 4.964ZM12.9084 5.408L10.9335 5.09174L10.3935 8.46375L12.3684 8.78L14.3432 9.09626L14.8832 5.72425L12.9084 5.408ZM16.0855 10.94L14.0855 10.9342V10.94H16.0855ZM16.1095 2.696L18.1095 2.70182V2.696H16.1095ZM17.7055 2.696L19.3521 1.56083C19.337 1.53891 19.3214 1.5173 19.3055 1.496L17.7055 2.696ZM18.7975 4.28L17.1508 5.41517C17.5241 5.95665 18.1398 6.28 18.7975 6.28C19.4552 6.28 20.0708 5.95666 20.4441 5.41517L18.7975 4.28ZM19.8895 2.696L18.2895 1.496C18.2735 1.5173 18.2579 1.53891 18.2428 1.56083L19.8895 2.696ZM21.4975 2.696L19.4975 2.696L19.4975 2.70182L21.4975 2.696ZM21.5215 10.94H23.5215L23.5215 10.9342L21.5215 10.94ZM20.0695 10.94H22.0695L22.0695 10.9361L20.0695 10.94ZM20.0575 4.82L22.0575 4.81608C22.0557 3.94157 21.4861 3.16959 20.651 2.91008C19.8158 2.65058 18.909 2.96374 18.4119 3.68327L20.0575 4.82ZM18.7975 6.644L17.1469 7.77337C17.5188 8.31691 18.1344 8.64252 18.793 8.644C19.4516 8.64547 20.0687 8.32261 20.443 7.78073L18.7975 6.644ZM17.5495 4.82L19.2001 3.69063C18.7053 2.96753 17.7975 2.65064 16.9603 2.90876C16.123 3.16689 15.5512 3.93992 15.5495 4.81608L17.5495 4.82ZM17.5375 10.94L15.5375 10.9361V10.94H17.5375ZM16.1335 11V9C16.5589 9 17.1948 9.15505 17.6592 9.73561C18.0555 10.2309 18.0855 10.7463 18.0855 10.94H16.0855H14.0855C14.0855 11.1737 14.1235 11.7191 14.5357 12.2344C15.0162 12.8349 15.6761 13 16.1335 13V11ZM16.0855 10.94L18.0855 10.9458L18.1095 2.70182L16.1095 2.696L14.1095 2.69018L14.0855 10.9342L16.0855 10.94ZM16.1095 2.696H18.1095C18.1095 2.98829 18.035 3.57485 17.5357 4.07421C17.0363 4.57357 16.4498 4.648 16.1575 4.648V2.648V0.648C15.8332 0.648 15.2226 0.730427 14.7073 1.24579C14.1919 1.76115 14.1095 2.37171 14.1095 2.696H16.1095ZM16.1575 2.648V4.648H17.6215V2.648V0.648H16.1575V2.648ZM17.6215 2.648V4.648C17.2866 4.648 16.9599 4.55976 16.6742 4.39648C16.4015 4.24063 16.2191 4.04749 16.1055 3.896L17.7055 2.696L19.3055 1.496C19.0085 1.10004 18.4392 0.648 17.6215 0.648V2.648ZM17.7055 2.696L16.0588 3.83117L17.1508 5.41517L18.7975 4.28L20.4441 3.14483L19.3521 1.56083L17.7055 2.696ZM18.7975 4.28L20.4441 5.41517L21.5361 3.83117L19.8895 2.696L18.2428 1.56083L17.1508 3.14483L18.7975 4.28ZM19.8895 2.696L21.4895 3.896C21.3759 4.04748 21.1935 4.24063 20.9207 4.39648C20.635 4.55976 20.3084 4.648 19.9735 4.648V2.648V0.648C19.1558 0.648 18.5864 1.10004 18.2895 1.496L19.8895 2.696ZM19.9735 2.648V4.648H21.4495V2.648V0.648H19.9735V2.648ZM21.4495 2.648V4.648C21.1572 4.648 20.5706 4.57357 20.0713 4.07421C19.5719 3.57485 19.4975 2.98829 19.4975 2.696H21.4975H23.4975C23.4975 2.37171 23.415 1.76115 22.8997 1.24579C22.3843 0.730427 21.7738 0.648 21.4495 0.648V2.648ZM21.4975 2.696L19.4975 2.70182L19.5215 10.9458L21.5215 10.94L23.5215 10.9342L23.4975 2.69018L21.4975 2.696ZM21.5215 10.94H19.5215C19.5215 10.7463 19.5515 10.2309 19.9477 9.73561C20.4122 9.15505 21.0481 9 21.4735 9V11V13C21.9309 13 22.5908 12.8349 23.0712 12.2344C23.4835 11.7191 23.5215 11.1737 23.5215 10.94H21.5215ZM21.4735 11V9H20.1175V11V13H21.4735V11ZM20.1175 11V9C20.5429 9 21.1788 9.15505 21.6432 9.73561C22.0395 10.2309 22.0695 10.7463 22.0695 10.94H20.0695H18.0695C18.0695 11.1737 18.1075 11.7191 18.5197 12.2344C19.0002 12.8349 19.6601 13 20.1175 13V11ZM20.0695 10.94L22.0695 10.9361L22.0575 4.81608L20.0575 4.82L18.0575 4.82392L18.0695 10.9439L20.0695 10.94ZM20.0575 4.82L18.4119 3.68327L17.1519 5.50727L18.7975 6.644L20.443 7.78073L21.703 5.95673L20.0575 4.82ZM18.7975 6.644L20.4481 5.51463L19.2001 3.69063L17.5495 4.82L15.8989 5.94937L17.1469 7.77337L18.7975 6.644ZM17.5495 4.82L15.5495 4.81608L15.5375 10.9361L17.5375 10.94L19.5375 10.9439L19.5495 4.82392L17.5495 4.82ZM17.5375 10.94H15.5375C15.5375 10.7463 15.5675 10.2309 15.9637 9.73561C16.4282 9.15505 17.0641 9 17.4895 9V11V13C17.9469 13 18.6068 12.8349 19.0872 12.2344C19.4995 11.7191 19.5375 11.1737 19.5375 10.94H17.5375ZM17.4895 11V9H16.1335V11V13H17.4895V11ZM24.564 8.732L22.5723 8.91385C22.5788 8.98447 22.589 9.0547 22.6029 9.12423L24.564 8.732ZM24.312 5.972H22.312C22.312 6.03271 22.3148 6.09339 22.3203 6.15385L24.312 5.972ZM25.764 2.708L27.764 2.71535V2.708H25.764ZM25.752 5.972L27.7437 6.15385C27.749 6.09583 27.7518 6.03761 27.752 5.97935L25.752 5.972ZM25.5 8.732L27.4612 9.12423C27.4751 9.0547 27.4853 8.98447 27.4917 8.91385L25.5 8.732ZM24.624 8.792V6.792C25.0625 6.792 25.5837 6.94723 25.9992 7.36279C26.3665 7.73008 26.4844 8.13568 26.5252 8.33977L24.564 8.732L22.6029 9.12423C22.6517 9.36832 22.7835 9.80392 23.1708 10.1912C23.6064 10.6268 24.1535 10.792 24.624 10.792V8.792ZM24.564 8.732L26.5557 8.55015L26.3037 5.79015L24.312 5.972L22.3203 6.15385L22.5723 8.91385L24.564 8.732ZM24.312 5.972H26.312V2.708H24.312H22.312V5.972H24.312ZM24.312 2.708H26.312C26.312 2.90168 26.282 3.41705 25.8858 3.91239C25.4213 4.49295 24.7854 4.648 24.36 4.648V2.648V0.648C23.9026 0.648 23.2427 0.813052 22.7623 1.41361C22.35 1.92895 22.312 2.47431 22.312 2.708H24.312ZM24.36 2.648V4.648H25.704V2.648V0.648H24.36V2.648ZM25.704 2.648V4.648C25.4157 4.648 24.8322 4.57457 24.3348 4.07722C23.8375 3.57986 23.764 2.99629 23.764 2.708H25.764H27.764C27.764 2.37971 27.6806 1.76614 27.1632 1.24878C26.6459 0.731425 26.0323 0.648 25.704 0.648V2.648ZM25.764 2.708L23.764 2.70065L23.752 5.96465L25.752 5.972L27.752 5.97935L27.764 2.71535L25.764 2.708ZM25.752 5.972L23.7603 5.79015L23.5083 8.55015L25.5 8.732L27.4917 8.91385L27.7437 6.15385L25.752 5.972ZM25.5 8.732L23.5389 8.33977C23.5797 8.13568 23.6975 7.73008 24.0648 7.36278C24.4804 6.94723 25.0015 6.792 25.44 6.792V8.792V10.792C25.9105 10.792 26.4577 10.6268 26.8932 10.1912C27.2805 9.80392 27.4124 9.36832 27.4612 9.12423L25.5 8.732ZM25.44 8.792V6.792H24.624V8.792V10.792H25.44V8.792ZM24.36 11V9C24.7854 9 25.4213 9.15505 25.8858 9.73561C26.282 10.2309 26.312 10.7463 26.312 10.94H24.312H22.312C22.312 11.1737 22.35 11.7191 22.7623 12.2344C23.2427 12.8349 23.9026 13 24.36 13V11ZM24.312 10.94H26.312V9.632H24.312H22.312V10.94H24.312ZM24.312 9.632H26.312C26.312 9.92429 26.2376 10.5109 25.7382 11.0102C25.2389 11.5096 24.6523 11.584 24.36 11.584V9.584V7.584C24.0357 7.584 23.4252 7.66643 22.9098 8.18179C22.3945 8.69715 22.312 9.30771 22.312 9.632H24.312ZM24.36 9.584V11.584H25.704V9.584V7.584H24.36V9.584ZM25.704 9.584V11.584C25.4117 11.584 24.8252 11.5096 24.3258 11.0102C23.8265 10.5109 23.752 9.92429 23.752 9.632H25.752H27.752C27.752 9.30771 27.6696 8.69714 27.1542 8.18179C26.6389 7.66643 26.0283 7.584 25.704 7.584V9.584ZM25.752 9.632H23.752V10.94H25.752H27.752V9.632H25.752ZM25.752 10.94H23.752C23.752 10.7463 23.782 10.2309 24.1783 9.73561C24.6427 9.15505 25.2786 9 25.704 9V11V13C26.1614 13 26.8213 12.8349 27.3018 12.2344C27.714 11.7191 27.752 11.1737 27.752 10.94H25.752ZM25.704 11V9H24.36V11V13H25.704V11Z" fill="black" mask="url(#path-1-outside-1_1010_9)"/>
<path d="M2.04753 11C2.01553 11 1.99953 10.98 1.99953 10.94L2.02353 2.696C2.02353 2.664 2.03953 2.648 2.07153 2.648H3.53553C3.56753 2.648 3.59553 2.664 3.61953 2.696L4.71153 4.28L5.80353 2.696C5.82753 2.664 5.85553 2.648 5.88753 2.648H7.36353C7.39553 2.648 7.41153 2.664 7.41153 2.696L7.43553 10.94C7.43553 10.98 7.41953 11 7.38753 11H6.03153C5.99953 11 5.98353 10.98 5.98353 10.94L5.97153 4.82L4.71153 6.644L3.46353 4.82L3.45153 10.94C3.45153 10.98 3.43553 11 3.40353 11H2.04753ZM8.50484 11C8.46484 11 8.44484 10.98 8.44484 10.94L8.45684 2.696C8.45684 2.664 8.47284 2.648 8.50484 2.648H9.84884C9.88084 2.648 9.89684 2.664 9.89684 2.696L9.90884 10.94C9.90884 10.98 9.89284 11 9.86084 11H8.50484ZM10.5564 10.94L12.0444 2.696C12.0524 2.664 12.0724 2.648 12.1044 2.648H13.8444C13.8764 2.648 13.8964 2.664 13.9044 2.696L15.3324 10.94C15.3404 10.98 15.3244 11 15.2844 11H13.9524C13.9204 11 13.9004 10.98 13.8924 10.94L13.7604 10.064H12.1284L11.9964 10.94C11.9884 10.98 11.9684 11 11.9364 11H10.6044C10.5724 11 10.5564 10.98 10.5564 10.94ZM12.3684 8.78H13.5204L13.0284 5.408L12.9564 4.964L12.9084 5.408L12.3684 8.78ZM16.1335 11C16.1015 11 16.0855 10.98 16.0855 10.94L16.1095 2.696C16.1095 2.664 16.1255 2.648 16.1575 2.648H17.6215C17.6535 2.648 17.6815 2.664 17.7055 2.696L18.7975 4.28L19.8895 2.696C19.9135 2.664 19.9415 2.648 19.9735 2.648H21.4495C21.4815 2.648 21.4975 2.664 21.4975 2.696L21.5215 10.94C21.5215 10.98 21.5055 11 21.4735 11H20.1175C20.0855 11 20.0695 10.98 20.0695 10.94L20.0575 4.82L18.7975 6.644L17.5495 4.82L17.5375 10.94C17.5375 10.98 17.5215 11 17.4895 11H16.1335ZM24.624 8.792C24.592 8.792 24.572 8.772 24.564 8.732L24.312 5.972V2.708C24.312 2.668 24.328 2.648 24.36 2.648H25.704C25.744 2.648 25.764 2.668 25.764 2.708L25.752 5.972L25.5 8.732C25.492 8.772 25.472 8.792 25.44 8.792H24.624ZM24.36 11C24.328 11 24.312 10.98 24.312 10.94V9.632C24.312 9.6 24.328 9.584 24.36 9.584H25.704C25.736 9.584 25.752 9.6 25.752 9.632V10.94C25.752 10.98 25.736 11 25.704 11H24.36Z" fill="white"/>
</svg>
