<svg width="22" height="15" viewBox="0 0 22 15" fill="none" xmlns="http://www.w3.org/2000/svg">
  <path d="M7 2.5C4.5 2.5 2.5 4.5 2.5 7.5C2.5 10.5 4.5 12.5 7 12.5C9.5 12.5 11.5 10.5 11.5 7.5C11.5 4.5 9.5 2.5 7 2.5ZM7 4.5C8.5 4.5 9.5 5.5 9.5 7.5C9.5 9.5 8.5 10.5 7 10.5C5.5 10.5 4.5 9.5 4.5 7.5C4.5 5.5 5.5 4.5 7 4.5Z" fill="white" stroke="black" stroke-width="1.5" stroke-linejoin="round"/>
  <path d="M14 2V13M14 7.5L19 2M14 7.5L19 13" stroke="black" stroke-width="3" stroke-linecap="round" stroke-linejoin="round"/>
  <path d="M14 2V13M14 7.5L19 2M14 7.5L19 13" stroke="white" stroke-width="1.5" stroke-linecap="round" stroke-linejoin="round"/>
  <path d="M7 2.5C4.5 2.5 2.5 4.5 2.5 7.5C2.5 10.5 4.5 12.5 7 12.5C9.5 12.5 11.5 10.5 11.5 7.5C11.5 4.5 9.5 2.5 7 2.5ZM7 4.5C8.5 4.5 9.5 5.5 9.5 7.5C9.5 9.5 8.5 10.5 7 10.5C5.5 10.5 4.5 9.5 4.5 7.5C4.5 5.5 5.5 4.5 7 4.5Z" fill="white"/>
</svg>
