<svg width="42" height="15" viewBox="0 0 42 15" fill="none" xmlns="http://www.w3.org/2000/svg">
  <path d="M8 4.5C8 3.5 7 2.5 5 2.5C3 2.5 2 3.5 2 4.5C2 5.5 3 6 5 6.5C7 7 8 7.5 8 8.5C8 9.5 7 10.5 5 10.5C3 10.5 2 9.5 2 8.5" stroke="black" stroke-width="3" stroke-linecap="round" stroke-linejoin="round"/>
  <path d="M8 4.5C8 3.5 7 2.5 5 2.5C3 2.5 2 3.5 2 4.5C2 5.5 3 6 5 6.5C7 7 8 7.5 8 8.5C8 9.5 7 10.5 5 10.5C3 10.5 2 9.5 2 8.5" stroke="white" stroke-width="1.5" stroke-linecap="round" stroke-linejoin="round"/>
  <path d="M11 2L13 13L15 7L17 13L19 2" stroke="black" stroke-width="3" stroke-linecap="round" stroke-linejoin="round"/>
  <path d="M11 2L13 13L15 7L17 13L19 2" stroke="white" stroke-width="1.5" stroke-linecap="round" stroke-linejoin="round"/>
  <path d="M22 13L25 2L28 13M23.5 9H26.5" stroke="black" stroke-width="3" stroke-linecap="round" stroke-linejoin="round"/>
  <path d="M22 13L25 2L28 13M23.5 9H26.5" stroke="white" stroke-width="1.5" stroke-linecap="round" stroke-linejoin="round"/>
  <path d="M38 7.5C38 4.5 36 2.5 33 2.5C30 2.5 28 4.5 28 7.5C28 10.5 30 12.5 33 12.5C35 12.5 37 11.5 37.5 9.5H35.5C35 10 34 10.5 33 10.5C31.5 10.5 30 9.5 30 7.5C30 5.5 31.5 4.5 33 4.5C34.5 4.5 35.5 5.5 35.5 7.5H38Z" fill="white" stroke="black" stroke-width="1.5" stroke-linejoin="round"/>
  <path d="M33 2.5C30 2.5 28 4.5 28 7.5C28 10.5 30 12.5 33 12.5C35 12.5 37 11.5 37.5 9.5H35.5C35 10 34 10.5 33 10.5C31.5 10.5 30 9.5 30 7.5C30 5.5 31.5 4.5 33 4.5C34.5 4.5 35.5 5.5 35.5 7.5H38C38 4.5 36 2.5 33 2.5Z" fill="white"/>
</svg>
