<svg width="34" height="15" viewBox="0 0 34 15" fill="none" xmlns="http://www.w3.org/2000/svg">
  <path d="M2 2L4.5 13L7 7L9.5 13L12 2H10L8.5 9L7 5L5.5 9L4 2H2Z" fill="white" stroke="black" stroke-width="1.5" stroke-linejoin="round"/>
  <path d="M17 2.5C14.5 2.5 12.5 4.5 12.5 7.5C12.5 10.5 14.5 12.5 17 12.5C19.5 12.5 21.5 10.5 21.5 7.5C21.5 4.5 19.5 2.5 17 2.5ZM17 4.5C18.5 4.5 19.5 5.5 19.5 7.5C19.5 9.5 18.5 10.5 17 10.5C15.5 10.5 14.5 9.5 14.5 7.5C14.5 5.5 15.5 4.5 17 4.5Z" fill="white" stroke="black" stroke-width="1.5" stroke-linejoin="round"/>
  <path d="M22 2L24.5 13L27 7L29.5 13L32 2H30L28.5 9L27 5L25.5 9L24 2H22Z" fill="white" stroke="black" stroke-width="1.5" stroke-linejoin="round"/>
  <path d="M2 2L4.5 13L7 7L9.5 13L12 2H10L8.5 9L7 5L5.5 9L4 2H2Z" fill="white"/>
  <path d="M17 2.5C14.5 2.5 12.5 4.5 12.5 7.5C12.5 10.5 14.5 12.5 17 12.5C19.5 12.5 21.5 10.5 21.5 7.5C21.5 4.5 19.5 2.5 17 2.5ZM17 4.5C18.5 4.5 19.5 5.5 19.5 7.5C19.5 9.5 18.5 10.5 17 10.5C15.5 10.5 14.5 9.5 14.5 7.5C14.5 5.5 15.5 4.5 17 4.5Z" fill="white"/>
  <path d="M22 2L24.5 13L27 7L29.5 13L32 2H30L28.5 9L27 5L25.5 9L24 2H22Z" fill="white"/>
</svg>
