<svg xmlns="http://www.w3.org/2000/svg" xmlns:xlink="http://www.w3.org/1999/xlink" width="150" zoomAndPan="magnify" viewBox="0 0 112.5 112.499997" height="150" preserveAspectRatio="xMidYMid meet" version="1.0"><defs><clipPath id="cffab9ce92"><path d="M 89 6 L 112.003906 6 L 112.003906 30 L 89 30 Z M 89 6 " clip-rule="nonzero"/></clipPath><clipPath id="d0dc660c77"><path d="M 93.007812 3.179688 L 115.988281 9.554688 L 109.613281 32.535156 L 86.628906 26.160156 Z M 93.007812 3.179688 " clip-rule="nonzero"/></clipPath><clipPath id="1fc94fbc7d"><path d="M 104.496094 6.367188 L 105.980469 15.214844 L 112.800781 21.046875 L 103.953125 22.527344 L 98.121094 29.347656 L 96.640625 20.5 L 89.820312 14.667969 L 98.667969 13.1875 Z M 104.496094 6.367188 " clip-rule="nonzero"/></clipPath><clipPath id="f4a7ba8106"><path d="M 0.601562 0.210938 L 23.003906 0.210938 L 23.003906 23.390625 L 0.601562 23.390625 Z M 0.601562 0.210938 " clip-rule="nonzero"/></clipPath><clipPath id="b97709f27c"><path d="M 4.007812 -2.820312 L 26.988281 3.554688 L 20.613281 26.535156 L -2.371094 20.160156 Z M 4.007812 -2.820312 " clip-rule="nonzero"/></clipPath><clipPath id="1d154446a1"><path d="M 15.496094 0.367188 L 16.980469 9.214844 L 23.800781 15.046875 L 14.953125 16.527344 L 9.121094 23.347656 L 7.640625 14.5 L 0.820312 8.667969 L 9.667969 7.1875 Z M 15.496094 0.367188 " clip-rule="nonzero"/></clipPath><clipPath id="1f04327e7a"><rect x="0" width="24" y="0" height="24"/></clipPath><clipPath id="8a5ec9b33f"><path d="M 70 2 L 85 2 L 85 17 L 70 17 Z M 70 2 " clip-rule="nonzero"/></clipPath><clipPath id="ea6a8da1e1"><path d="M 63.597656 9.480469 L 76.925781 -4.652344 L 91.058594 8.675781 L 77.730469 22.808594 Z M 63.597656 9.480469 " clip-rule="nonzero"/></clipPath><clipPath id="06b93b5bb8"><path d="M 70.261719 2.414062 L 77.199219 4.710938 L 83.992188 2.011719 L 81.699219 8.949219 L 84.394531 15.742188 L 77.457031 13.449219 L 70.664062 16.144531 L 72.960938 9.207031 Z M 70.261719 2.414062 " clip-rule="nonzero"/></clipPath><clipPath id="b2f0b45bd2"><path d="M 0.246094 0 L 14.585938 0 L 14.585938 14.246094 L 0.246094 14.246094 Z M 0.246094 0 " clip-rule="nonzero"/></clipPath><clipPath id="292e740cdc"><path d="M -6.402344 7.480469 L 6.925781 -6.652344 L 21.058594 6.675781 L 7.730469 20.808594 Z M -6.402344 7.480469 " clip-rule="nonzero"/></clipPath><clipPath id="cf19546b93"><path d="M 0.261719 0.414062 L 7.199219 2.710938 L 13.992188 0.0117188 L 11.699219 6.949219 L 14.394531 13.742188 L 7.457031 11.449219 L 0.664062 14.144531 L 2.960938 7.207031 Z M 0.261719 0.414062 " clip-rule="nonzero"/></clipPath><clipPath id="0b6b8aefb7"><rect x="0" width="15" y="0" height="15"/></clipPath></defs><path stroke-linecap="round" transform="matrix(3.951189, 0, 0, 3.951189, 8.438473, 8.438477)" fill="none" stroke-linejoin="round" d="M 5.000227 3.000234 L 19.000168 3.000234 C 19.131655 3.000234 19.261165 3.013086 19.390675 3.038791 C 19.519197 3.064495 19.643763 3.102063 19.765365 3.152483 C 19.886966 3.202903 20.001646 3.264198 20.111384 3.337356 C 20.220133 3.409526 20.320973 3.49257 20.413904 3.585501 C 20.506834 3.678432 20.589879 3.779272 20.663037 3.88901 C 20.736196 3.997758 20.797491 4.113428 20.847911 4.235029 C 20.898331 4.355641 20.935898 4.481197 20.961603 4.609718 C 20.987307 4.73824 21.000159 4.868738 21.000159 5.000226 L 21.000159 19.000167 C 21.000159 19.131654 20.987307 19.261164 20.961603 19.390674 C 20.935898 19.519195 20.898331 19.643762 20.847911 19.765363 C 20.797491 19.886965 20.736196 20.001645 20.663037 20.111383 C 20.589879 20.220132 20.506834 20.320972 20.413904 20.413903 C 20.320973 20.506833 20.220133 20.589878 20.111384 20.663036 C 20.001646 20.736195 19.886966 20.79749 19.765365 20.84791 C 19.643763 20.89833 19.519197 20.935897 19.390675 20.961602 C 19.261165 20.987306 19.131655 21.000158 19.000168 21.000158 L 5.000227 21.000158 C 4.868739 21.000158 4.738241 20.987306 4.609719 20.961602 C 4.481198 20.935897 4.355642 20.89833 4.23503 20.84791 C 4.113429 20.79749 3.997759 20.736195 3.889011 20.663036 C 3.779273 20.589878 3.678433 20.506833 3.585502 20.413903 C 3.492571 20.320972 3.409527 20.220132 3.337357 20.111383 C 3.264199 20.001645 3.202904 19.886965 3.152484 19.765363 C 3.102064 19.643762 3.064496 19.519195 3.038792 19.390674 C 3.013087 19.261164 3.000235 19.131654 3.000235 19.000167 L 3.000235 5.000226 C 3.000235 4.868738 3.013087 4.73824 3.038792 4.609718 C 3.064496 4.481197 3.102064 4.355641 3.152484 4.235029 C 3.202904 4.113428 3.264199 3.997758 3.337357 3.88901 C 3.409527 3.779272 3.492571 3.678432 3.585502 3.585501 C 3.678433 3.49257 3.779273 3.409526 3.889011 3.337356 C 3.997759 3.264198 4.113429 3.202903 4.23503 3.152483 C 4.355642 3.102063 4.481198 3.064495 4.609719 3.038791 C 4.738241 3.013086 4.868739 3.000234 5.000227 3.000234 Z M 5.000227 3.000234 " stroke="currentColor" stroke-width="1" stroke-opacity="1" stroke-miterlimit="4"/><path stroke-linecap="round" transform="matrix(3.951189, 0, 0, 3.951189, 8.438473, 8.438477)" fill="none" stroke-linejoin="round" d="M 7.99972 7.500462 C 7.99972 7.5667 7.986868 7.629972 7.962152 7.691267 C 7.936448 7.752562 7.900857 7.806937 7.853403 7.853402 C 7.806938 7.900856 7.752563 7.936447 7.691268 7.962151 C 7.629973 7.986867 7.566701 7.999719 7.500463 7.999719 C 7.433237 7.999719 7.369965 7.986867 7.30867 7.962151 C 7.247375 7.936447 7.193001 7.900856 7.146535 7.853402 C 7.099081 7.806937 7.06349 7.752562 7.037786 7.691267 C 7.01307 7.629972 7.000218 7.5667 7.000218 7.500462 C 7.000218 7.433236 7.01307 7.369964 7.037786 7.308669 C 7.06349 7.247374 7.099081 7.192999 7.146535 7.146534 C 7.193001 7.09908 7.247375 7.063489 7.30867 7.037785 C 7.369965 7.013069 7.433237 7.000217 7.500463 7.000217 C 7.566701 7.000217 7.629973 7.013069 7.691268 7.037785 C 7.752563 7.063489 7.806938 7.09908 7.853403 7.146534 C 7.900857 7.192999 7.936448 7.247374 7.962152 7.308669 C 7.986868 7.369964 7.99972 7.433236 7.99972 7.500462 Z M 7.99972 7.500462 " stroke="currentColor" stroke-width="1" stroke-opacity="1" stroke-miterlimit="4"/><path stroke-linecap="round" transform="matrix(3.951189, 0, 0, 3.951189, 8.438473, 8.438477)" fill="none" stroke-linejoin="round" d="M 7.899869 7.899867 L 10.599808 10.599807 " stroke="currentColor" stroke-width="1" stroke-opacity="1" stroke-miterlimit="4"/><path stroke-linecap="round" transform="matrix(3.951189, 0, 0, 3.951189, 8.438473, 8.438477)" fill="none" stroke-linejoin="round" d="M 17.000176 7.500462 C 17.000176 7.5667 16.987324 7.629972 16.96162 7.691267 C 16.936904 7.752562 16.900325 7.806937 16.853859 7.853402 C 16.806405 7.900856 16.753019 7.936447 16.691725 7.962151 C 16.63043 7.986867 16.566169 7.999719 16.499931 7.999719 C 16.433693 7.999719 16.369432 7.986867 16.309126 7.962151 C 16.247831 7.936447 16.193457 7.900856 16.146003 7.853402 C 16.099537 7.806937 16.062958 7.752562 16.038242 7.691267 C 16.012538 7.629972 15.999686 7.5667 15.999686 7.500462 C 15.999686 7.433236 16.012538 7.369964 16.038242 7.308669 C 16.062958 7.247374 16.099537 7.192999 16.146003 7.146534 C 16.193457 7.09908 16.247831 7.063489 16.309126 7.037785 C 16.369432 7.013069 16.433693 7.000217 16.499931 7.000217 C 16.566169 7.000217 16.63043 7.013069 16.691725 7.037785 C 16.753019 7.063489 16.806405 7.09908 16.853859 7.146534 C 16.900325 7.192999 16.936904 7.247374 16.96162 7.308669 C 16.987324 7.369964 17.000176 7.433236 17.000176 7.500462 Z M 17.000176 7.500462 " stroke="currentColor" stroke-width="1" stroke-opacity="1" stroke-miterlimit="4"/><path stroke-linecap="round" transform="matrix(3.951189, 0, 0, 3.951189, 8.438473, 8.438477)" fill="none" stroke-linejoin="round" d="M 13.399598 10.599807 L 16.099537 7.899867 " stroke="currentColor" stroke-width="1" stroke-opacity="1" stroke-miterlimit="4"/><path stroke-linecap="round" transform="matrix(3.951189, 0, 0, 3.951189, 8.438473, 8.438477)" fill="none" stroke-linejoin="round" d="M 7.99972 16.49993 C 7.99972 16.566168 7.986868 16.630429 7.962152 16.691724 C 7.936448 16.753018 7.900857 16.806404 7.853403 16.853858 C 7.806938 16.900324 7.752563 16.936903 7.691268 16.961619 C 7.629973 16.987323 7.566701 17.000175 7.500463 17.000175 C 7.433237 17.000175 7.369965 16.987323 7.30867 16.961619 C 7.247375 16.936903 7.193001 16.900324 7.146535 16.853858 C 7.099081 16.806404 7.06349 16.753018 7.037786 16.691724 C 7.01307 16.630429 7.000218 16.566168 7.000218 16.49993 C 7.000218 16.433692 7.01307 16.369431 7.037786 16.309125 C 7.06349 16.24783 7.099081 16.193456 7.146535 16.146002 C 7.193001 16.099536 7.247375 16.062957 7.30867 16.038241 C 7.369965 16.012537 7.433237 15.999685 7.500463 15.999685 C 7.566701 15.999685 7.629973 16.012537 7.691268 16.038241 C 7.752563 16.062957 7.806938 16.099536 7.853403 16.146002 C 7.900857 16.193456 7.936448 16.24783 7.962152 16.309125 C 7.986868 16.369431 7.99972 16.433692 7.99972 16.49993 Z M 7.99972 16.49993 " stroke="currentColor" stroke-width="1" stroke-opacity="1" stroke-miterlimit="4"/><path stroke-linecap="round" transform="matrix(3.951189, 0, 0, 3.951189, 8.438473, 8.438477)" fill="none" stroke-linejoin="round" d="M 7.899869 16.099536 L 10.599808 13.399597 " stroke="currentColor" stroke-width="1" stroke-opacity="1" stroke-miterlimit="4"/><path stroke-linecap="round" transform="matrix(3.951189, 0, 0, 3.951189, 8.438473, 8.438477)" fill="none" stroke-linejoin="round" d="M 17.000176 16.49993 C 17.000176 16.566168 16.987324 16.630429 16.96162 16.691724 C 16.936904 16.753018 16.900325 16.806404 16.853859 16.853858 C 16.806405 16.900324 16.753019 16.936903 16.691725 16.961619 C 16.63043 16.987323 16.566169 17.000175 16.499931 17.000175 C 16.433693 17.000175 16.369432 16.987323 16.309126 16.961619 C 16.247831 16.936903 16.193457 16.900324 16.146003 16.853858 C 16.099537 16.806404 16.062958 16.753018 16.038242 16.691724 C 16.012538 16.630429 15.999686 16.566168 15.999686 16.49993 C 15.999686 16.433692 16.012538 16.369431 16.038242 16.309125 C 16.062958 16.24783 16.099537 16.193456 16.146003 16.146002 C 16.193457 16.099536 16.247831 16.062957 16.309126 16.038241 C 16.369432 16.012537 16.433693 15.999685 16.499931 15.999685 C 16.566169 15.999685 16.63043 16.012537 16.691725 16.038241 C 16.753019 16.062957 16.806405 16.099536 16.853859 16.146002 C 16.900325 16.193456 16.936904 16.24783 16.96162 16.309125 C 16.987324 16.369431 17.000176 16.433692 17.000176 16.49993 Z M 17.000176 16.49993 " stroke="currentColor" stroke-width="1" stroke-opacity="1" stroke-miterlimit="4"/><path stroke-linecap="round" transform="matrix(3.951189, 0, 0, 3.951189, 8.438473, 8.438477)" fill="none" stroke-linejoin="round" d="M 13.399598 13.399597 L 16.099537 16.099536 " stroke="currentColor" stroke-width="1" stroke-opacity="1" stroke-miterlimit="4"/><path stroke-linecap="round" transform="matrix(3.951189, 0, 0, 3.951189, 8.438473, 8.438477)" fill="none" stroke-linejoin="round" d="M 13.999694 11.999702 C 13.999694 12.131189 13.986842 12.261688 13.961138 12.390209 C 13.936422 12.518731 13.897866 12.644286 13.847446 12.764899 C 13.797026 12.8865 13.735731 13.002169 13.662573 13.110918 C 13.590403 13.220656 13.507358 13.321496 13.414427 13.414426 C 13.321497 13.507357 13.220657 13.590402 13.110919 13.662572 C 13.00217 13.73573 12.886501 13.797025 12.7649 13.847445 C 12.644287 13.897865 12.518732 13.936421 12.39021 13.961137 C 12.261689 13.986841 12.13119 13.999693 11.999703 13.999693 C 11.868216 13.999693 11.738705 13.986841 11.610184 13.961137 C 11.480674 13.936421 11.356107 13.897865 11.234506 13.847445 C 11.112905 13.797025 10.998224 13.73573 10.888487 13.662572 C 10.779738 13.590402 10.678898 13.507357 10.585967 13.414426 C 10.493036 13.321496 10.409991 13.220656 10.336833 13.110918 C 10.263675 13.002169 10.20238 12.8865 10.15196 12.764899 C 10.10154 12.644286 10.063972 12.518731 10.038268 12.390209 C 10.012563 12.261688 9.999711 12.131189 9.999711 11.999702 C 9.999711 11.868215 10.012563 11.738704 10.038268 11.610183 C 10.063972 11.480673 10.10154 11.356106 10.15196 11.234505 C 10.20238 11.112904 10.263675 10.998223 10.336833 10.888486 C 10.409991 10.779737 10.493036 10.678897 10.585967 10.585966 C 10.678898 10.493035 10.779738 10.40999 10.888487 10.336832 C 10.998224 10.263674 11.112905 10.202379 11.234506 10.151959 C 11.356107 10.101539 11.480674 10.063971 11.610184 10.038267 C 11.738705 10.012562 11.868216 9.99971 11.999703 9.99971 C 12.13119 9.99971 12.261689 10.012562 12.39021 10.038267 C 12.518732 10.063971 12.644287 10.101539 12.7649 10.151959 C 12.886501 10.202379 13.00217 10.263674 13.110919 10.336832 C 13.220657 10.40999 13.321497 10.493035 13.414427 10.585966 C 13.507358 10.678897 13.590403 10.779737 13.662573 10.888486 C 13.735731 10.998223 13.797026 11.112904 13.847446 11.234505 C 13.897866 11.356106 13.936422 11.480673 13.961138 11.610183 C 13.986842 11.738704 13.999694 11.868215 13.999694 11.999702 Z M 13.999694 11.999702 " stroke="currentColor" stroke-width="1" stroke-opacity="1" stroke-miterlimit="4"/><g clip-path="url(#cffab9ce92)"><g clip-path="url(#d0dc660c77)"><g clip-path="url(#1fc94fbc7d)"><g transform="matrix(1, 0, 0, 1, 89, 6)"><g clip-path="url(#1f04327e7a)"><g clip-path="url(#f4a7ba8106)"><g clip-path="url(#b97709f27c)"><g clip-path="url(#1d154446a1)"><path fill="currentColor" d="M 4.007812 -2.820312 L 26.988281 3.554688 L 20.613281 26.535156 L -2.371094 20.160156 Z M 4.007812 -2.820312 " fill-opacity="1" fill-rule="nonzero"/></g></g></g></g></g></g></g></g><g clip-path="url(#8a5ec9b33f)"><g clip-path="url(#ea6a8da1e1)"><g clip-path="url(#06b93b5bb8)"><g transform="matrix(1, 0, 0, 1, 70, 2)"><g clip-path="url(#0b6b8aefb7)"><g clip-path="url(#b2f0b45bd2)"><g clip-path="url(#292e740cdc)"><g clip-path="url(#cf19546b93)"><path fill="currentColor" d="M -6.402344 7.480469 L 6.925781 -6.652344 L 21.058594 6.675781 L 7.730469 20.808594 Z M -6.402344 7.480469 " fill-opacity="1" fill-rule="nonzero"/></g></g></g></g></g></g></g></g></svg>