<svg xmlns="http://www.w3.org/2000/svg" xmlns:xlink="http://www.w3.org/1999/xlink" width="150" zoomAndPan="magnify" viewBox="0 0 112.5 112.499997" height="150" preserveAspectRatio="xMidYMid meet" version="1.0"><defs><clipPath id="d4fd4aa081"><path d="M 89 6 L 112.003906 6 L 112.003906 30 L 89 30 Z M 89 6 " clip-rule="nonzero"/></clipPath><clipPath id="9b85e9b901"><path d="M 93.007812 3.179688 L 115.988281 9.554688 L 109.613281 32.535156 L 86.628906 26.160156 Z M 93.007812 3.179688 " clip-rule="nonzero"/></clipPath><clipPath id="1afe8f708e"><path d="M 104.496094 6.367188 L 105.980469 15.214844 L 112.800781 21.046875 L 103.953125 22.527344 L 98.121094 29.347656 L 96.640625 20.5 L 89.820312 14.667969 L 98.667969 13.1875 Z M 104.496094 6.367188 " clip-rule="nonzero"/></clipPath><clipPath id="bcc4cad0de"><path d="M 0.601562 0.210938 L 23.003906 0.210938 L 23.003906 23.390625 L 0.601562 23.390625 Z M 0.601562 0.210938 " clip-rule="nonzero"/></clipPath><clipPath id="982367a350"><path d="M 4.007812 -2.820312 L 26.988281 3.554688 L 20.613281 26.535156 L -2.371094 20.160156 Z M 4.007812 -2.820312 " clip-rule="nonzero"/></clipPath><clipPath id="22c1e2bc56"><path d="M 15.496094 0.367188 L 16.980469 9.214844 L 23.800781 15.046875 L 14.953125 16.527344 L 9.121094 23.347656 L 7.640625 14.5 L 0.820312 8.667969 L 9.667969 7.1875 Z M 15.496094 0.367188 " clip-rule="nonzero"/></clipPath><clipPath id="754fba94a4"><rect x="0" width="24" y="0" height="24"/></clipPath><clipPath id="992acc364d"><path d="M 70 2 L 85 2 L 85 17 L 70 17 Z M 70 2 " clip-rule="nonzero"/></clipPath><clipPath id="c3760b8572"><path d="M 63.597656 9.480469 L 76.925781 -4.652344 L 91.058594 8.675781 L 77.730469 22.808594 Z M 63.597656 9.480469 " clip-rule="nonzero"/></clipPath><clipPath id="f2d844a797"><path d="M 70.261719 2.414062 L 77.199219 4.710938 L 83.992188 2.011719 L 81.699219 8.949219 L 84.394531 15.742188 L 77.457031 13.449219 L 70.664062 16.144531 L 72.960938 9.207031 Z M 70.261719 2.414062 " clip-rule="nonzero"/></clipPath><clipPath id="095d844469"><path d="M 0.246094 0 L 14.585938 0 L 14.585938 14.246094 L 0.246094 14.246094 Z M 0.246094 0 " clip-rule="nonzero"/></clipPath><clipPath id="16ef9bac80"><path d="M -6.402344 7.480469 L 6.925781 -6.652344 L 21.058594 6.675781 L 7.730469 20.808594 Z M -6.402344 7.480469 " clip-rule="nonzero"/></clipPath><clipPath id="8bc654b394"><path d="M 0.261719 0.414062 L 7.199219 2.710938 L 13.992188 0.0117188 L 11.699219 6.949219 L 14.394531 13.742188 L 7.457031 11.449219 L 0.664062 14.144531 L 2.960938 7.207031 Z M 0.261719 0.414062 " clip-rule="nonzero"/></clipPath><clipPath id="326608b8ab"><rect x="0" width="15" y="0" height="15"/></clipPath><clipPath id="201a427ea4"><path d="M 2 1 L 32 1 L 32 31 L 2 31 Z M 2 1 " clip-rule="nonzero"/></clipPath><clipPath id="ff7a0c3612"><path d="M -3.84375 24.269531 L 8.972656 -4.660156 L 37.898438 8.15625 L 25.085938 37.082031 Z M -3.84375 24.269531 " clip-rule="nonzero"/></clipPath><clipPath id="3b860a1962"><path d="M 2.566406 9.804688 L 14.464844 9.570312 L 23.4375 1.75 L 23.667969 13.648438 L 31.492188 22.621094 L 19.59375 22.851562 L 10.621094 30.675781 L 10.386719 18.777344 Z M 2.566406 9.804688 " clip-rule="nonzero"/></clipPath><clipPath id="bbd366d646"><path d="M 0.390625 0.671875 L 29.539062 0.671875 L 29.539062 29.824219 L 0.390625 29.824219 Z M 0.390625 0.671875 " clip-rule="nonzero"/></clipPath><clipPath id="b943576bc4"><path d="M -5.84375 23.269531 L 6.972656 -5.660156 L 35.898438 7.15625 L 23.085938 36.082031 Z M -5.84375 23.269531 " clip-rule="nonzero"/></clipPath><clipPath id="c893ccedfb"><path d="M 0.566406 8.804688 L 12.464844 8.570312 L 21.4375 0.75 L 21.667969 12.648438 L 29.492188 21.621094 L 17.59375 21.851562 L 8.621094 29.675781 L 8.386719 17.777344 Z M 0.566406 8.804688 " clip-rule="nonzero"/></clipPath><clipPath id="f943f7b3f7"><rect x="0" width="30" y="0" height="30"/></clipPath><clipPath id="72b88dbb19"><path d="M 2 31 L 15 31 L 15 44 L 2 44 Z M 2 31 " clip-rule="nonzero"/></clipPath><clipPath id="a95adbccc2"><path d="M 0 40.476562 L 5.386719 28.316406 L 17.550781 33.703125 L 12.160156 45.863281 Z M 0 40.476562 " clip-rule="nonzero"/></clipPath><clipPath id="71f890a89e"><path d="M 2.695312 34.398438 L 7.695312 34.296875 L 11.46875 31.011719 L 11.566406 36.011719 L 14.855469 39.785156 L 9.851562 39.882812 L 6.082031 43.171875 L 5.984375 38.167969 Z M 2.695312 34.398438 " clip-rule="nonzero"/></clipPath><clipPath id="9ec73f288f"><path d="M 0.628906 0 L 13 0 L 13 12.246094 L 0.628906 12.246094 Z M 0.628906 0 " clip-rule="nonzero"/></clipPath><clipPath id="ab4206d338"><path d="M -2 9.476562 L 3.386719 -2.683594 L 15.550781 2.703125 L 10.160156 14.863281 Z M -2 9.476562 " clip-rule="nonzero"/></clipPath><clipPath id="be3a2293f5"><path d="M 0.695312 3.398438 L 5.695312 3.296875 L 9.46875 0.0117188 L 9.566406 5.011719 L 12.855469 8.785156 L 7.851562 8.882812 L 4.082031 12.171875 L 3.984375 7.167969 Z M 0.695312 3.398438 " clip-rule="nonzero"/></clipPath><clipPath id="e9cda35e0f"><rect x="0" width="13" y="0" height="13"/></clipPath></defs><path stroke-linecap="round" transform="matrix(3.951189, 0, 0, 3.951189, 8.438473, 8.438463)" fill="none" stroke-linejoin="round" d="M 5.000227 3.000238 L 19.000168 3.000238 C 19.131655 3.000238 19.261165 3.01309 19.390675 3.038794 C 19.519197 3.064499 19.643763 3.102066 19.765365 3.152486 C 19.886966 3.202906 20.001646 3.264201 20.111384 3.33736 C 20.220133 3.409529 20.320973 3.492574 20.413904 3.585505 C 20.506834 3.678436 20.589879 3.779276 20.663037 3.889013 C 20.736196 3.997762 20.797491 4.113431 20.847911 4.235033 C 20.898331 4.355645 20.935898 4.481201 20.961603 4.609722 C 20.987307 4.738243 21.000159 4.868742 21.000159 5.000229 L 21.000159 19.00017 C 21.000159 19.131658 20.987307 19.261168 20.961603 19.389689 C 20.935898 19.519199 20.898331 19.643766 20.847911 19.765367 C 20.797491 19.886968 20.736196 20.001649 20.663037 20.111386 C 20.589879 20.220135 20.506834 20.320975 20.413904 20.413906 C 20.320973 20.506837 20.220133 20.589882 20.111384 20.66304 C 20.001646 20.736198 19.886966 20.797493 19.765365 20.847913 C 19.643763 20.898333 19.519197 20.935901 19.390675 20.961605 C 19.261165 20.98731 19.131655 21.000162 19.000168 21.000162 L 5.000227 21.000162 C 4.868739 21.000162 4.738241 20.98731 4.609719 20.961605 C 4.481198 20.935901 4.355642 20.898333 4.23503 20.847913 C 4.113429 20.797493 3.997759 20.736198 3.889011 20.66304 C 3.779273 20.589882 3.678433 20.506837 3.585502 20.413906 C 3.492571 20.320975 3.409527 20.220135 3.337357 20.111386 C 3.264199 20.001649 3.202904 19.886968 3.152484 19.765367 C 3.102064 19.643766 3.064496 19.519199 3.038792 19.389689 C 3.013087 19.261168 3.000235 19.131658 3.000235 19.00017 L 3.000235 5.000229 C 3.000235 4.868742 3.013087 4.738243 3.038792 4.609722 C 3.064496 4.481201 3.102064 4.355645 3.152484 4.235033 C 3.202904 4.113431 3.264199 3.997762 3.337357 3.889013 C 3.409527 3.779276 3.492571 3.678436 3.585502 3.585505 C 3.678433 3.492574 3.779273 3.409529 3.889011 3.33736 C 3.997759 3.264201 4.113429 3.202906 4.23503 3.152486 C 4.355642 3.102066 4.481198 3.064499 4.609719 3.038794 C 4.738241 3.01309 4.868739 3.000238 5.000227 3.000238 Z M 5.000227 3.000238 " stroke="currentColor" stroke-width="1" stroke-opacity="1" stroke-miterlimit="4"/><path stroke-linecap="round" transform="matrix(3.951189, 0, 0, 3.951189, 8.438473, 8.438463)" fill="none" stroke-linejoin="round" d="M 7.99972 7.500466 C 7.99972 7.566704 7.986868 7.629976 7.962152 7.691271 C 7.936448 7.752566 7.900857 7.80694 7.853403 7.853406 C 7.806938 7.90086 7.752563 7.93645 7.691268 7.962155 C 7.629973 7.98687 7.566701 7.999722 7.500463 7.999722 C 7.433237 7.999722 7.369965 7.98687 7.30867 7.962155 C 7.247375 7.93645 7.193001 7.90086 7.146535 7.853406 C 7.099081 7.80694 7.06349 7.752566 7.037786 7.691271 C 7.01307 7.629976 7.000218 7.566704 7.000218 7.500466 C 7.000218 7.433239 7.01307 7.369967 7.037786 7.308672 C 7.06349 7.247378 7.099081 7.193003 7.146535 7.146538 C 7.193001 7.099084 7.247375 7.063493 7.30867 7.037789 C 7.369965 7.013073 7.433237 7.000221 7.500463 7.000221 C 7.566701 7.000221 7.629973 7.013073 7.691268 7.037789 C 7.752563 7.063493 7.806938 7.099084 7.853403 7.146538 C 7.900857 7.193003 7.936448 7.247378 7.962152 7.308672 C 7.986868 7.369967 7.99972 7.433239 7.99972 7.500466 Z M 7.99972 7.500466 " stroke="currentColor" stroke-width="1" stroke-opacity="1" stroke-miterlimit="4"/><path stroke-linecap="round" transform="matrix(3.951189, 0, 0, 3.951189, 8.438473, 8.438463)" fill="none" stroke-linejoin="round" d="M 7.899869 7.899871 L 10.599808 10.59981 " stroke="currentColor" stroke-width="1" stroke-opacity="1" stroke-miterlimit="4"/><path stroke-linecap="round" transform="matrix(3.951189, 0, 0, 3.951189, 8.438473, 8.438463)" fill="none" stroke-linejoin="round" d="M 17.000176 7.500466 C 17.000176 7.566704 16.987324 7.629976 16.96162 7.691271 C 16.936904 7.752566 16.900325 7.80694 16.853859 7.853406 C 16.806405 7.90086 16.753019 7.93645 16.691725 7.962155 C 16.63043 7.98687 16.566169 7.999722 16.499931 7.999722 C 16.433693 7.999722 16.369432 7.98687 16.309126 7.962155 C 16.247831 7.93645 16.193457 7.90086 16.146003 7.853406 C 16.099537 7.80694 16.062958 7.752566 16.038242 7.691271 C 16.012538 7.629976 15.999686 7.566704 15.999686 7.500466 C 15.999686 7.433239 16.012538 7.369967 16.038242 7.308672 C 16.062958 7.247378 16.099537 7.193003 16.146003 7.146538 C 16.193457 7.099084 16.247831 7.063493 16.309126 7.037789 C 16.369432 7.013073 16.433693 7.000221 16.499931 7.000221 C 16.566169 7.000221 16.63043 7.013073 16.691725 7.037789 C 16.753019 7.063493 16.806405 7.099084 16.853859 7.146538 C 16.900325 7.193003 16.936904 7.247378 16.96162 7.308672 C 16.987324 7.369967 17.000176 7.433239 17.000176 7.500466 Z M 17.000176 7.500466 " stroke="currentColor" stroke-width="1" stroke-opacity="1" stroke-miterlimit="4"/><path stroke-linecap="round" transform="matrix(3.951189, 0, 0, 3.951189, 8.438473, 8.438463)" fill="none" stroke-linejoin="round" d="M 13.399598 10.59981 L 16.099537 7.899871 " stroke="currentColor" stroke-width="1" stroke-opacity="1" stroke-miterlimit="4"/><path stroke-linecap="round" transform="matrix(3.951189, 0, 0, 3.951189, 8.438473, 8.438463)" fill="none" stroke-linejoin="round" d="M 7.99972 16.499934 C 7.99972 16.566172 7.986868 16.630432 7.962152 16.691727 C 7.936448 16.753022 7.900857 16.806408 7.853403 16.853862 C 7.806938 16.900327 7.752563 16.936907 7.691268 16.961622 C 7.629973 16.987327 7.566701 17.000179 7.500463 17.000179 C 7.433237 17.000179 7.369965 16.987327 7.30867 16.961622 C 7.247375 16.936907 7.193001 16.900327 7.146535 16.853862 C 7.099081 16.806408 7.06349 16.753022 7.037786 16.691727 C 7.01307 16.630432 7.000218 16.566172 7.000218 16.499934 C 7.000218 16.433696 7.01307 16.369435 7.037786 16.309129 C 7.06349 16.247834 7.099081 16.193459 7.146535 16.146005 C 7.193001 16.09954 7.247375 16.062961 7.30867 16.038245 C 7.369965 16.012541 7.433237 15.999689 7.500463 15.999689 C 7.566701 15.999689 7.629973 16.012541 7.691268 16.038245 C 7.752563 16.062961 7.806938 16.09954 7.853403 16.146005 C 7.900857 16.193459 7.936448 16.247834 7.962152 16.309129 C 7.986868 16.369435 7.99972 16.433696 7.99972 16.499934 Z M 7.99972 16.499934 " stroke="currentColor" stroke-width="1" stroke-opacity="1" stroke-miterlimit="4"/><path stroke-linecap="round" transform="matrix(3.951189, 0, 0, 3.951189, 8.438473, 8.438463)" fill="none" stroke-linejoin="round" d="M 7.899869 16.09954 L 10.599808 13.399601 " stroke="currentColor" stroke-width="1" stroke-opacity="1" stroke-miterlimit="4"/><path stroke-linecap="round" transform="matrix(3.951189, 0, 0, 3.951189, 8.438473, 8.438463)" fill="none" stroke-linejoin="round" d="M 17.000176 16.499934 C 17.000176 16.566172 16.987324 16.630432 16.96162 16.691727 C 16.936904 16.753022 16.900325 16.806408 16.853859 16.853862 C 16.806405 16.900327 16.753019 16.936907 16.691725 16.961622 C 16.63043 16.987327 16.566169 17.000179 16.499931 17.000179 C 16.433693 17.000179 16.369432 16.987327 16.309126 16.961622 C 16.247831 16.936907 16.193457 16.900327 16.146003 16.853862 C 16.099537 16.806408 16.062958 16.753022 16.038242 16.691727 C 16.012538 16.630432 15.999686 16.566172 15.999686 16.499934 C 15.999686 16.433696 16.012538 16.369435 16.038242 16.309129 C 16.062958 16.247834 16.099537 16.193459 16.146003 16.146005 C 16.193457 16.09954 16.247831 16.062961 16.309126 16.038245 C 16.369432 16.012541 16.433693 15.999689 16.499931 15.999689 C 16.566169 15.999689 16.63043 16.012541 16.691725 16.038245 C 16.753019 16.062961 16.806405 16.09954 16.853859 16.146005 C 16.900325 16.193459 16.936904 16.247834 16.96162 16.309129 C 16.987324 16.369435 17.000176 16.433696 17.000176 16.499934 Z M 17.000176 16.499934 " stroke="currentColor" stroke-width="1" stroke-opacity="1" stroke-miterlimit="4"/><path stroke-linecap="round" transform="matrix(3.951189, 0, 0, 3.951189, 8.438473, 8.438463)" fill="none" stroke-linejoin="round" d="M 13.399598 13.399601 L 16.099537 16.09954 " stroke="currentColor" stroke-width="1" stroke-opacity="1" stroke-miterlimit="4"/><path stroke-linecap="round" transform="matrix(3.951189, 0, 0, 3.951189, 8.438473, 8.438463)" fill="none" stroke-linejoin="round" d="M 13.999694 11.999706 C 13.999694 12.131193 13.986842 12.261692 13.961138 12.390213 C 13.936422 12.518734 13.897866 12.64429 13.847446 12.764902 C 13.797026 12.886504 13.735731 13.002173 13.662573 13.110922 C 13.590403 13.220659 13.507358 13.321499 13.414427 13.41443 C 13.321497 13.507361 13.220657 13.590406 13.110919 13.662575 C 13.00217 13.735734 12.886501 13.797029 12.7649 13.847449 C 12.644287 13.897869 12.518732 13.936425 12.39021 13.961141 C 12.261689 13.986845 12.13119 13.999697 11.999703 13.999697 C 11.868216 13.999697 11.738705 13.986845 11.610184 13.961141 C 11.480674 13.936425 11.356107 13.897869 11.234506 13.847449 C 11.112905 13.797029 10.998224 13.735734 10.888487 13.662575 C 10.779738 13.590406 10.678898 13.507361 10.585967 13.41443 C 10.493036 13.321499 10.409991 13.220659 10.336833 13.110922 C 10.263675 13.002173 10.20238 12.886504 10.15196 12.764902 C 10.10154 12.64429 10.063972 12.518734 10.038268 12.390213 C 10.012563 12.261692 9.999711 12.131193 9.999711 11.999706 C 9.999711 11.868218 10.012563 11.738708 10.038268 11.610187 C 10.063972 11.480677 10.10154 11.35611 10.15196 11.234509 C 10.20238 11.112908 10.263675 10.998227 10.336833 10.888489 C 10.409991 10.77974 10.493036 10.6789 10.585967 10.58597 C 10.678898 10.493039 10.779738 10.409994 10.888487 10.336836 C 10.998224 10.263677 11.112905 10.202382 11.234506 10.151962 C 11.356107 10.101543 11.480674 10.063975 11.610184 10.03827 C 11.738705 10.012566 11.868216 9.999714 11.999703 9.999714 C 12.13119 9.999714 12.261689 10.012566 12.39021 10.03827 C 12.518732 10.063975 12.644287 10.101543 12.7649 10.151962 C 12.886501 10.202382 13.00217 10.263677 13.110919 10.336836 C 13.220657 10.409994 13.321497 10.493039 13.414427 10.58597 C 13.507358 10.6789 13.590403 10.77974 13.662573 10.888489 C 13.735731 10.998227 13.797026 11.112908 13.847446 11.234509 C 13.897866 11.35611 13.936422 11.480677 13.961138 11.610187 C 13.986842 11.738708 13.999694 11.868218 13.999694 11.999706 Z M 13.999694 11.999706 " stroke="currentColor" stroke-width="1" stroke-opacity="1" stroke-miterlimit="4"/><g clip-path="url(#d4fd4aa081)"><g clip-path="url(#9b85e9b901)"><g clip-path="url(#1afe8f708e)"><g transform="matrix(1, 0, 0, 1, 89, 6)"><g clip-path="url(#754fba94a4)"><g clip-path="url(#bcc4cad0de)"><g clip-path="url(#982367a350)"><g clip-path="url(#22c1e2bc56)"><path fill="currentColor" d="M 4.007812 -2.820312 L 26.988281 3.554688 L 20.613281 26.535156 L -2.371094 20.160156 Z M 4.007812 -2.820312 " fill-opacity="1" fill-rule="nonzero"/></g></g></g></g></g></g></g></g><g clip-path="url(#992acc364d)"><g clip-path="url(#c3760b8572)"><g clip-path="url(#f2d844a797)"><g transform="matrix(1, 0, 0, 1, 70, 2)"><g clip-path="url(#326608b8ab)"><g clip-path="url(#095d844469)"><g clip-path="url(#16ef9bac80)"><g clip-path="url(#8bc654b394)"><path fill="currentColor" d="M -6.402344 7.480469 L 6.925781 -6.652344 L 21.058594 6.675781 L 7.730469 20.808594 Z M -6.402344 7.480469 " fill-opacity="1" fill-rule="nonzero"/></g></g></g></g></g></g></g></g><g clip-path="url(#201a427ea4)"><g clip-path="url(#ff7a0c3612)"><g clip-path="url(#3b860a1962)"><g transform="matrix(1, 0, 0, 1, 2, 1)"><g clip-path="url(#f943f7b3f7)"><g clip-path="url(#bbd366d646)"><g clip-path="url(#b943576bc4)"><g clip-path="url(#c893ccedfb)"><path fill="currentColor" d="M -5.84375 23.269531 L 6.972656 -5.660156 L 35.898438 7.15625 L 23.085938 36.082031 Z M -5.84375 23.269531 " fill-opacity="1" fill-rule="nonzero"/></g></g></g></g></g></g></g></g><g clip-path="url(#72b88dbb19)"><g clip-path="url(#a95adbccc2)"><g clip-path="url(#71f890a89e)"><g transform="matrix(1, 0, 0, 1, 2, 31)"><g clip-path="url(#e9cda35e0f)"><g clip-path="url(#9ec73f288f)"><g clip-path="url(#ab4206d338)"><g clip-path="url(#be3a2293f5)"><path fill="currentColor" d="M -2 9.476562 L 3.386719 -2.683594 L 15.550781 2.703125 L 10.160156 14.863281 Z M -2 9.476562 " fill-opacity="1" fill-rule="nonzero"/></g></g></g></g></g></g></g></g></svg>