<svg xmlns="http://www.w3.org/2000/svg" xmlns:xlink="http://www.w3.org/1999/xlink" width="150" zoomAndPan="magnify" viewBox="0 0 112.5 112.499997" height="150" preserveAspectRatio="xMidYMid meet" version="1.0"><path stroke-linecap="round" transform="matrix(3.951189, 0, 0, 3.951189, 8.438473, 8.438473)" fill="none" stroke-linejoin="round" d="M 5.000227 3.000235 L 19.000168 3.000235 C 19.131655 3.000235 19.261165 3.013088 19.390675 3.038792 C 19.519197 3.064496 19.643763 3.102064 19.765365 3.152484 C 19.886966 3.202904 20.001646 3.264199 20.111384 3.337357 C 20.220133 3.409527 20.320973 3.492571 20.413904 3.585502 C 20.506834 3.678433 20.589879 3.779273 20.663037 3.889011 C 20.736196 3.99776 20.797491 4.113429 20.847911 4.23503 C 20.898331 4.355642 20.935898 4.481198 20.961603 4.609719 C 20.987307 4.738241 21.000159 4.86874 21.000159 5.000227 L 21.000159 19.000168 C 21.000159 19.131655 20.987307 19.261165 20.961603 19.390675 C 20.935898 19.519197 20.898331 19.643764 20.847911 19.765365 C 20.797491 19.886966 20.736196 20.001646 20.663037 20.111384 C 20.589879 20.220133 20.506834 20.320973 20.413904 20.413904 C 20.320973 20.506835 20.220133 20.589879 20.111384 20.663038 C 20.001646 20.736196 19.886966 20.797491 19.765365 20.847911 C 19.643763 20.898331 19.519197 20.935898 19.390675 20.961603 C 19.261165 20.987307 19.131655 21.000159 19.000168 21.000159 L 5.000227 21.000159 C 4.868739 21.000159 4.738241 20.987307 4.609719 20.961603 C 4.481198 20.935898 4.355642 20.898331 4.23503 20.847911 C 4.113429 20.797491 3.997759 20.736196 3.889011 20.663038 C 3.779273 20.589879 3.678433 20.506835 3.585502 20.413904 C 3.492571 20.320973 3.409527 20.220133 3.337357 20.111384 C 3.264199 20.001646 3.202904 19.886966 3.152484 19.765365 C 3.102064 19.643764 3.064496 19.519197 3.038792 19.390675 C 3.013087 19.261165 3.000235 19.131655 3.000235 19.000168 L 3.000235 5.000227 C 3.000235 4.86874 3.013087 4.738241 3.038792 4.609719 C 3.064496 4.481198 3.102064 4.355642 3.152484 4.23503 C 3.202904 4.113429 3.264199 3.99776 3.337357 3.889011 C 3.409527 3.779273 3.492571 3.678433 3.585502 3.585502 C 3.678433 3.492571 3.779273 3.409527 3.889011 3.337357 C 3.997759 3.264199 4.113429 3.202904 4.23503 3.152484 C 4.355642 3.102064 4.481198 3.064496 4.609719 3.038792 C 4.738241 3.013088 4.868739 3.000235 5.000227 3.000235 Z M 5.000227 3.000235 " stroke="currentColor" stroke-width="1" stroke-opacity="1" stroke-miterlimit="4"/><path stroke-linecap="round" transform="matrix(3.951189, 0, 0, 3.951189, 8.438473, 8.438473)" fill="none" stroke-linejoin="round" d="M 7.99972 7.500464 C 7.99972 7.566701 7.986868 7.629974 7.962152 7.691268 C 7.936448 7.752563 7.900857 7.806938 7.853403 7.853403 C 7.806938 7.900857 7.752563 7.936448 7.691268 7.962152 C 7.629973 7.986868 7.566701 7.99972 7.500463 7.99972 C 7.433237 7.99972 7.369965 7.986868 7.30867 7.962152 C 7.247375 7.936448 7.193001 7.900857 7.146535 7.853403 C 7.099081 7.806938 7.06349 7.752563 7.037786 7.691268 C 7.01307 7.629974 7.000218 7.566701 7.000218 7.500464 C 7.000218 7.433237 7.01307 7.369965 7.037786 7.30867 C 7.06349 7.247375 7.099081 7.193001 7.146535 7.146535 C 7.193001 7.099081 7.247375 7.063491 7.30867 7.037786 C 7.369965 7.013071 7.433237 7.000218 7.500463 7.000218 C 7.566701 7.000218 7.629973 7.013071 7.691268 7.037786 C 7.752563 7.063491 7.806938 7.099081 7.853403 7.146535 C 7.900857 7.193001 7.936448 7.247375 7.962152 7.30867 C 7.986868 7.369965 7.99972 7.433237 7.99972 7.500464 Z M 7.99972 7.500464 " stroke="currentColor" stroke-width="1" stroke-opacity="1" stroke-miterlimit="4"/><path stroke-linecap="round" transform="matrix(3.951189, 0, 0, 3.951189, 8.438473, 8.438473)" fill="none" stroke-linejoin="round" d="M 7.899869 7.899869 L 10.599808 10.599808 " stroke="currentColor" stroke-width="1" stroke-opacity="1" stroke-miterlimit="4"/><path stroke-linecap="round" transform="matrix(3.951189, 0, 0, 3.951189, 8.438473, 8.438473)" fill="none" stroke-linejoin="round" d="M 17.000176 7.500464 C 17.000176 7.566701 16.987324 7.629974 16.96162 7.691268 C 16.936904 7.752563 16.900325 7.806938 16.853859 7.853403 C 16.806405 7.900857 16.753019 7.936448 16.691725 7.962152 C 16.63043 7.986868 16.566169 7.99972 16.499931 7.99972 C 16.433693 7.99972 16.369432 7.986868 16.309126 7.962152 C 16.247831 7.936448 16.193457 7.900857 16.146003 7.853403 C 16.099537 7.806938 16.062958 7.752563 16.038242 7.691268 C 16.012538 7.629974 15.999686 7.566701 15.999686 7.500464 C 15.999686 7.433237 16.012538 7.369965 16.038242 7.30867 C 16.062958 7.247375 16.099537 7.193001 16.146003 7.146535 C 16.193457 7.099081 16.247831 7.063491 16.309126 7.037786 C 16.369432 7.013071 16.433693 7.000218 16.499931 7.000218 C 16.566169 7.000218 16.63043 7.013071 16.691725 7.037786 C 16.753019 7.063491 16.806405 7.099081 16.853859 7.146535 C 16.900325 7.193001 16.936904 7.247375 16.96162 7.30867 C 16.987324 7.369965 17.000176 7.433237 17.000176 7.500464 Z M 17.000176 7.500464 " stroke="currentColor" stroke-width="1" stroke-opacity="1" stroke-miterlimit="4"/><path stroke-linecap="round" transform="matrix(3.951189, 0, 0, 3.951189, 8.438473, 8.438473)" fill="none" stroke-linejoin="round" d="M 13.399598 10.599808 L 16.099537 7.899869 " stroke="currentColor" stroke-width="1" stroke-opacity="1" stroke-miterlimit="4"/><path stroke-linecap="round" transform="matrix(3.951189, 0, 0, 3.951189, 8.438473, 8.438473)" fill="none" stroke-linejoin="round" d="M 7.99972 16.499931 C 7.99972 16.566169 7.986868 16.63043 7.962152 16.691725 C 7.936448 16.75302 7.900857 16.806405 7.853403 16.853859 C 7.806938 16.900325 7.752563 16.936904 7.691268 16.96162 C 7.629973 16.987324 7.566701 17.000176 7.500463 17.000176 C 7.433237 17.000176 7.369965 16.987324 7.30867 16.96162 C 7.247375 16.936904 7.193001 16.900325 7.146535 16.853859 C 7.099081 16.806405 7.06349 16.75302 7.037786 16.691725 C 7.01307 16.63043 7.000218 16.566169 7.000218 16.499931 C 7.000218 16.433693 7.01307 16.369432 7.037786 16.309126 C 7.06349 16.247831 7.099081 16.193457 7.146535 16.146003 C 7.193001 16.099537 7.247375 16.062958 7.30867 16.038243 C 7.369965 16.012538 7.433237 15.999686 7.500463 15.999686 C 7.566701 15.999686 7.629973 16.012538 7.691268 16.038243 C 7.752563 16.062958 7.806938 16.099537 7.853403 16.146003 C 7.900857 16.193457 7.936448 16.247831 7.962152 16.309126 C 7.986868 16.369432 7.99972 16.433693 7.99972 16.499931 Z M 7.99972 16.499931 " stroke="currentColor" stroke-width="1" stroke-opacity="1" stroke-miterlimit="4"/><path stroke-linecap="round" transform="matrix(3.951189, 0, 0, 3.951189, 8.438473, 8.438473)" fill="none" stroke-linejoin="round" d="M 7.899869 16.099537 L 10.599808 13.399598 " stroke="currentColor" stroke-width="1" stroke-opacity="1" stroke-miterlimit="4"/><path stroke-linecap="round" transform="matrix(3.951189, 0, 0, 3.951189, 8.438473, 8.438473)" fill="none" stroke-linejoin="round" d="M 17.000176 16.499931 C 17.000176 16.566169 16.987324 16.63043 16.96162 16.691725 C 16.936904 16.75302 16.900325 16.806405 16.853859 16.853859 C 16.806405 16.900325 16.753019 16.936904 16.691725 16.96162 C 16.63043 16.987324 16.566169 17.000176 16.499931 17.000176 C 16.433693 17.000176 16.369432 16.987324 16.309126 16.96162 C 16.247831 16.936904 16.193457 16.900325 16.146003 16.853859 C 16.099537 16.806405 16.062958 16.75302 16.038242 16.691725 C 16.012538 16.63043 15.999686 16.566169 15.999686 16.499931 C 15.999686 16.433693 16.012538 16.369432 16.038242 16.309126 C 16.062958 16.247831 16.099537 16.193457 16.146003 16.146003 C 16.193457 16.099537 16.247831 16.062958 16.309126 16.038243 C 16.369432 16.012538 16.433693 15.999686 16.499931 15.999686 C 16.566169 15.999686 16.63043 16.012538 16.691725 16.038243 C 16.753019 16.062958 16.806405 16.099537 16.853859 16.146003 C 16.900325 16.193457 16.936904 16.247831 16.96162 16.309126 C 16.987324 16.369432 17.000176 16.433693 17.000176 16.499931 Z M 17.000176 16.499931 " stroke="currentColor" stroke-width="1" stroke-opacity="1" stroke-miterlimit="4"/><path stroke-linecap="round" transform="matrix(3.951189, 0, 0, 3.951189, 8.438473, 8.438473)" fill="none" stroke-linejoin="round" d="M 13.399598 13.399598 L 16.099537 16.099537 " stroke="currentColor" stroke-width="1" stroke-opacity="1" stroke-miterlimit="4"/><path stroke-linecap="round" transform="matrix(3.951189, 0, 0, 3.951189, 8.438473, 8.438473)" fill="none" stroke-linejoin="round" d="M 13.999694 11.999703 C 13.999694 12.13119 13.986842 12.261689 13.961138 12.39021 C 13.936422 12.518732 13.897866 12.644288 13.847446 12.7649 C 13.797026 12.886501 13.735731 13.00217 13.662573 13.110919 C 13.590403 13.220657 13.507358 13.321497 13.414427 13.414428 C 13.321497 13.507359 13.220657 13.590403 13.110919 13.662573 C 13.00217 13.735731 12.886501 13.797026 12.7649 13.847446 C 12.644287 13.897866 12.518732 13.936422 12.39021 13.961138 C 12.261689 13.986842 12.13119 13.999695 11.999703 13.999695 C 11.868216 13.999695 11.738705 13.986842 11.610184 13.961138 C 11.480674 13.936422 11.356107 13.897866 11.234506 13.847446 C 11.112905 13.797026 10.998224 13.735731 10.888487 13.662573 C 10.779738 13.590403 10.678898 13.507359 10.585967 13.414428 C 10.493036 13.321497 10.409991 13.220657 10.336833 13.110919 C 10.263675 13.00217 10.20238 12.886501 10.15196 12.7649 C 10.10154 12.644288 10.063972 12.518732 10.038268 12.39021 C 10.012563 12.261689 9.999711 12.13119 9.999711 11.999703 C 9.999711 11.868216 10.012563 11.738706 10.038268 11.610184 C 10.063972 11.480674 10.10154 11.356107 10.15196 11.234506 C 10.20238 11.112905 10.263675 10.998224 10.336833 10.888487 C 10.409991 10.779738 10.493036 10.678898 10.585967 10.585967 C 10.678898 10.493036 10.779738 10.409991 10.888487 10.336833 C 10.998224 10.263675 11.112905 10.20238 11.234506 10.15196 C 11.356107 10.10154 11.480674 10.063972 11.610184 10.038268 C 11.738705 10.012564 11.868216 9.999711 11.999703 9.999711 C 12.13119 9.999711 12.261689 10.012564 12.39021 10.038268 C 12.518732 10.063972 12.644287 10.10154 12.7649 10.15196 C 12.886501 10.20238 13.00217 10.263675 13.110919 10.336833 C 13.220657 10.409991 13.321497 10.493036 13.414427 10.585967 C 13.507358 10.678898 13.590403 10.779738 13.662573 10.888487 C 13.735731 10.998224 13.797026 11.112905 13.847446 11.234506 C 13.897866 11.356107 13.936422 11.480674 13.961138 11.610184 C 13.986842 11.738706 13.999694 11.868216 13.999694 11.999703 Z M 13.999694 11.999703 " stroke="currentColor" stroke-width="1" stroke-opacity="1" stroke-miterlimit="4"/></svg>